<mxfile host="app.diagrams.net" modified="2023-12-09T13:28:58.282Z" agent="Mozilla/5.0 (Windows NT 10.0; Win64; x64) AppleWebKit/537.36 (KHTML, like Gecko) Chrome/120.0.0.0 Safari/537.36" etag="XaVKC9o-8-F8bbeOkLCF" version="22.1.7" type="device" pages="5">
  <diagram id="lM8LzCe7BzBXa49D-TBA" name="top">
    <mxGraphModel dx="2963" dy="1597" grid="1" gridSize="10" guides="1" tooltips="1" connect="1" arrows="1" fold="1" page="1" pageScale="1" pageWidth="850" pageHeight="1100" math="0" shadow="0">
      <root>
        <mxCell id="0" />
        <mxCell id="1" parent="0" />
        <mxCell id="8dImabnq2nBWsojAvmeI-1" value="input" style="swimlane;childLayout=stackLayout;horizontal=1;startSize=50;horizontalStack=0;rounded=1;fontSize=14;fontStyle=0;strokeWidth=2;resizeParent=0;resizeLast=1;shadow=0;dashed=0;align=center;arcSize=4;whiteSpace=wrap;html=1;fontColor=#0000FF;" vertex="1" parent="1">
          <mxGeometry x="80" y="40" width="160" height="200" as="geometry" />
        </mxCell>
        <mxCell id="8dImabnq2nBWsojAvmeI-2" value="hclk&lt;br&gt;hresetn&lt;br&gt;enable&lt;br&gt;data_in_a[31:0]&lt;br&gt;data_in_b[31:0]&lt;br&gt;addr[31:0]&lt;br&gt;wr&lt;br&gt;slave_sel[1:0]" style="align=left;strokeColor=none;fillColor=none;spacingLeft=4;fontSize=12;verticalAlign=top;resizable=0;rotatable=0;part=1;html=1;fontColor=#0000FF;" vertex="1" parent="8dImabnq2nBWsojAvmeI-1">
          <mxGeometry y="50" width="160" height="150" as="geometry" />
        </mxCell>
        <mxCell id="8dImabnq2nBWsojAvmeI-3" value="output" style="swimlane;childLayout=stackLayout;horizontal=1;startSize=50;horizontalStack=0;rounded=1;fontSize=14;fontStyle=0;strokeWidth=2;resizeParent=0;resizeLast=1;shadow=0;dashed=0;align=center;arcSize=4;whiteSpace=wrap;html=1;fontColor=#FF0000;" vertex="1" parent="1">
          <mxGeometry x="280" y="40" width="160" height="200" as="geometry" />
        </mxCell>
        <mxCell id="8dImabnq2nBWsojAvmeI-4" value="data_out[31:0]" style="align=left;strokeColor=none;fillColor=none;spacingLeft=4;fontSize=12;verticalAlign=top;resizable=0;rotatable=0;part=1;html=1;fontColor=#FF0000;" vertex="1" parent="8dImabnq2nBWsojAvmeI-3">
          <mxGeometry y="50" width="160" height="150" as="geometry" />
        </mxCell>
        <mxCell id="fOiAJ-RndhvWO7kLTrhU-1" value="internal variables" style="swimlane;childLayout=stackLayout;horizontal=1;startSize=50;horizontalStack=0;rounded=1;fontSize=14;fontStyle=0;strokeWidth=2;resizeParent=0;resizeLast=1;shadow=0;dashed=0;align=center;arcSize=4;whiteSpace=wrap;html=1;fontColor=#000000;" vertex="1" parent="1">
          <mxGeometry x="80" y="360" width="160" height="240" as="geometry" />
        </mxCell>
        <mxCell id="fOiAJ-RndhvWO7kLTrhU-2" value="wire: sel[1:0]&lt;br&gt;wire: haddr[31:0]&lt;br&gt;wire: hwrite&lt;br&gt;wire: hprot[3:0]&lt;br&gt;wire: hsize[2:0]&lt;br&gt;wire: hburst[2:0]&lt;br&gt;wire: htrans[1:0]&lt;br&gt;wire: hmastlock" style="align=left;strokeColor=none;fillColor=none;spacingLeft=4;fontSize=12;verticalAlign=top;resizable=0;rotatable=0;part=1;html=1;fontColor=#000000;" vertex="1" parent="fOiAJ-RndhvWO7kLTrhU-1">
          <mxGeometry y="50" width="160" height="190" as="geometry" />
        </mxCell>
        <mxCell id="6hsgYS7dKEv5V8et7Ej_-16" style="edgeStyle=orthogonalEdgeStyle;rounded=0;orthogonalLoop=1;jettySize=auto;html=1;exitX=1;exitY=0.5;exitDx=0;exitDy=0;entryX=0;entryY=0.5;entryDx=0;entryDy=0;" edge="1" parent="1" source="fOiAJ-RndhvWO7kLTrhU-4" target="6hsgYS7dKEv5V8et7Ej_-2">
          <mxGeometry relative="1" as="geometry">
            <Array as="points">
              <mxPoint x="800" y="1180" />
              <mxPoint x="800" y="1340" />
            </Array>
          </mxGeometry>
        </mxCell>
        <mxCell id="6hsgYS7dKEv5V8et7Ej_-17" style="edgeStyle=orthogonalEdgeStyle;rounded=0;orthogonalLoop=1;jettySize=auto;html=1;exitX=1;exitY=0.5;exitDx=0;exitDy=0;entryX=0;entryY=0.5;entryDx=0;entryDy=0;" edge="1" parent="1" source="fOiAJ-RndhvWO7kLTrhU-4" target="6hsgYS7dKEv5V8et7Ej_-3">
          <mxGeometry relative="1" as="geometry">
            <Array as="points">
              <mxPoint x="800" y="1180" />
              <mxPoint x="800" y="1500" />
            </Array>
          </mxGeometry>
        </mxCell>
        <mxCell id="6hsgYS7dKEv5V8et7Ej_-18" style="edgeStyle=orthogonalEdgeStyle;rounded=0;orthogonalLoop=1;jettySize=auto;html=1;exitX=1;exitY=0.5;exitDx=0;exitDy=0;entryX=0;entryY=0.5;entryDx=0;entryDy=0;" edge="1" parent="1" source="fOiAJ-RndhvWO7kLTrhU-4" target="6hsgYS7dKEv5V8et7Ej_-6">
          <mxGeometry relative="1" as="geometry">
            <Array as="points">
              <mxPoint x="800" y="1180" />
              <mxPoint x="800" y="1660" />
            </Array>
          </mxGeometry>
        </mxCell>
        <mxCell id="6hsgYS7dKEv5V8et7Ej_-20" style="edgeStyle=orthogonalEdgeStyle;rounded=0;orthogonalLoop=1;jettySize=auto;html=1;exitX=1;exitY=0.5;exitDx=0;exitDy=0;entryX=0;entryY=0.5;entryDx=0;entryDy=0;" edge="1" parent="1" source="fOiAJ-RndhvWO7kLTrhU-4" target="6hsgYS7dKEv5V8et7Ej_-19">
          <mxGeometry relative="1" as="geometry" />
        </mxCell>
        <mxCell id="6hsgYS7dKEv5V8et7Ej_-29" style="edgeStyle=orthogonalEdgeStyle;rounded=0;orthogonalLoop=1;jettySize=auto;html=1;exitX=0;exitY=0.25;exitDx=0;exitDy=0;endArrow=none;endFill=0;startArrow=classic;startFill=1;" edge="1" parent="1" source="fOiAJ-RndhvWO7kLTrhU-4">
          <mxGeometry relative="1" as="geometry">
            <mxPoint x="80" y="1149.857142857143" as="targetPoint" />
          </mxGeometry>
        </mxCell>
        <mxCell id="fOiAJ-RndhvWO7kLTrhU-4" value="master" style="rounded=0;whiteSpace=wrap;html=1;fillColor=#d5e8d4;strokeColor=#82b366;" vertex="1" parent="1">
          <mxGeometry x="160" y="1120" width="160" height="120" as="geometry" />
        </mxCell>
        <mxCell id="fOiAJ-RndhvWO7kLTrhU-5" value="internal variables" style="swimlane;childLayout=stackLayout;horizontal=1;startSize=50;horizontalStack=0;rounded=1;fontSize=14;fontStyle=0;strokeWidth=2;resizeParent=0;resizeLast=1;shadow=0;dashed=0;align=center;arcSize=4;whiteSpace=wrap;html=1;fontColor=#000000;" vertex="1" parent="1">
          <mxGeometry x="80" y="640" width="160" height="240" as="geometry" />
        </mxCell>
        <mxCell id="fOiAJ-RndhvWO7kLTrhU-6" value="wire: hwdata_1[31:0]&lt;br&gt;wire: hreadyout_1&lt;br&gt;wire: hresp_1" style="align=left;strokeColor=none;fillColor=none;spacingLeft=4;fontSize=12;verticalAlign=top;resizable=0;rotatable=0;part=1;html=1;fontColor=#000000;" vertex="1" parent="fOiAJ-RndhvWO7kLTrhU-5">
          <mxGeometry y="50" width="160" height="190" as="geometry" />
        </mxCell>
        <mxCell id="fOiAJ-RndhvWO7kLTrhU-7" value="internal variables" style="swimlane;childLayout=stackLayout;horizontal=1;startSize=50;horizontalStack=0;rounded=1;fontSize=14;fontStyle=0;strokeWidth=2;resizeParent=0;resizeLast=1;shadow=0;dashed=0;align=center;arcSize=4;whiteSpace=wrap;html=1;fontColor=#000000;" vertex="1" parent="1">
          <mxGeometry x="320" y="640" width="160" height="240" as="geometry" />
        </mxCell>
        <mxCell id="fOiAJ-RndhvWO7kLTrhU-8" value="wire: hwdata_2[31:0]&lt;br&gt;wire: hreadyout_2&lt;br&gt;wire: hresp_2" style="align=left;strokeColor=none;fillColor=none;spacingLeft=4;fontSize=12;verticalAlign=top;resizable=0;rotatable=0;part=1;html=1;fontColor=#000000;" vertex="1" parent="fOiAJ-RndhvWO7kLTrhU-7">
          <mxGeometry y="50" width="160" height="190" as="geometry" />
        </mxCell>
        <mxCell id="fOiAJ-RndhvWO7kLTrhU-9" value="internal variables" style="swimlane;childLayout=stackLayout;horizontal=1;startSize=50;horizontalStack=0;rounded=1;fontSize=14;fontStyle=0;strokeWidth=2;resizeParent=0;resizeLast=1;shadow=0;dashed=0;align=center;arcSize=4;whiteSpace=wrap;html=1;fontColor=#000000;" vertex="1" parent="1">
          <mxGeometry x="560" y="640" width="160" height="240" as="geometry" />
        </mxCell>
        <mxCell id="fOiAJ-RndhvWO7kLTrhU-10" value="wire: hwdata_3[31:0]&lt;br&gt;wire: hreadyout_3&lt;br&gt;wire: hresp_3" style="align=left;strokeColor=none;fillColor=none;spacingLeft=4;fontSize=12;verticalAlign=top;resizable=0;rotatable=0;part=1;html=1;fontColor=#000000;" vertex="1" parent="fOiAJ-RndhvWO7kLTrhU-9">
          <mxGeometry y="50" width="160" height="190" as="geometry" />
        </mxCell>
        <mxCell id="fOiAJ-RndhvWO7kLTrhU-11" value="internal variables" style="swimlane;childLayout=stackLayout;horizontal=1;startSize=50;horizontalStack=0;rounded=1;fontSize=14;fontStyle=0;strokeWidth=2;resizeParent=0;resizeLast=1;shadow=0;dashed=0;align=center;arcSize=4;whiteSpace=wrap;html=1;fontColor=#000000;" vertex="1" parent="1">
          <mxGeometry x="800" y="640" width="160" height="240" as="geometry" />
        </mxCell>
        <mxCell id="fOiAJ-RndhvWO7kLTrhU-12" value="wire: hwdata_4[31:0]&lt;br&gt;wire: hreadyout_4&lt;br&gt;wire: hresp_4" style="align=left;strokeColor=none;fillColor=none;spacingLeft=4;fontSize=12;verticalAlign=top;resizable=0;rotatable=0;part=1;html=1;fontColor=#000000;" vertex="1" parent="fOiAJ-RndhvWO7kLTrhU-11">
          <mxGeometry y="50" width="160" height="190" as="geometry" />
        </mxCell>
        <mxCell id="fOiAJ-RndhvWO7kLTrhU-14" value="internal variables" style="swimlane;childLayout=stackLayout;horizontal=1;startSize=50;horizontalStack=0;rounded=1;fontSize=14;fontStyle=0;strokeWidth=2;resizeParent=0;resizeLast=1;shadow=0;dashed=0;align=center;arcSize=4;whiteSpace=wrap;html=1;fontColor=#000000;" vertex="1" parent="1">
          <mxGeometry x="320" y="360" width="160" height="240" as="geometry" />
        </mxCell>
        <mxCell id="fOiAJ-RndhvWO7kLTrhU-15" value="wire: hsel_1&lt;br&gt;wire: hsel_2&lt;br&gt;wire: hsel_3&lt;br&gt;wire: hsel_4" style="align=left;strokeColor=none;fillColor=none;spacingLeft=4;fontSize=12;verticalAlign=top;resizable=0;rotatable=0;part=1;html=1;fontColor=#000000;" vertex="1" parent="fOiAJ-RndhvWO7kLTrhU-14">
          <mxGeometry y="50" width="160" height="190" as="geometry" />
        </mxCell>
        <mxCell id="fOiAJ-RndhvWO7kLTrhU-16" value="internal variables" style="swimlane;childLayout=stackLayout;horizontal=1;startSize=50;horizontalStack=0;rounded=1;fontSize=14;fontStyle=0;strokeWidth=2;resizeParent=0;resizeLast=1;shadow=0;dashed=0;align=center;arcSize=4;whiteSpace=wrap;html=1;fontColor=#000000;" vertex="1" parent="1">
          <mxGeometry x="560" y="360" width="160" height="240" as="geometry" />
        </mxCell>
        <mxCell id="fOiAJ-RndhvWO7kLTrhU-17" value="wire: hrdata[31:0]&lt;br&gt;wire: hreadyout&lt;br&gt;wire: hresp" style="align=left;strokeColor=none;fillColor=none;spacingLeft=4;fontSize=12;verticalAlign=top;resizable=0;rotatable=0;part=1;html=1;fontColor=#000000;" vertex="1" parent="fOiAJ-RndhvWO7kLTrhU-16">
          <mxGeometry y="50" width="160" height="190" as="geometry" />
        </mxCell>
        <mxCell id="6hsgYS7dKEv5V8et7Ej_-1" value="slave_1" style="rounded=0;whiteSpace=wrap;html=1;fillColor=#dae8fc;strokeColor=#6c8ebf;" vertex="1" parent="1">
          <mxGeometry x="920" y="1120" width="160" height="120" as="geometry" />
        </mxCell>
        <mxCell id="6hsgYS7dKEv5V8et7Ej_-8" style="edgeStyle=orthogonalEdgeStyle;rounded=0;orthogonalLoop=1;jettySize=auto;html=1;exitX=1;exitY=0.5;exitDx=0;exitDy=0;entryX=1;entryY=0.75;entryDx=0;entryDy=0;" edge="1" parent="1" source="6hsgYS7dKEv5V8et7Ej_-2" target="6hsgYS7dKEv5V8et7Ej_-4">
          <mxGeometry relative="1" as="geometry">
            <mxPoint x="910" y="1900" as="targetPoint" />
            <Array as="points">
              <mxPoint x="1280" y="1340" />
              <mxPoint x="1280" y="1860" />
            </Array>
          </mxGeometry>
        </mxCell>
        <mxCell id="6hsgYS7dKEv5V8et7Ej_-2" value="slave_2" style="rounded=0;whiteSpace=wrap;html=1;fillColor=#dae8fc;strokeColor=#6c8ebf;" vertex="1" parent="1">
          <mxGeometry x="920" y="1280" width="160" height="120" as="geometry" />
        </mxCell>
        <mxCell id="6hsgYS7dKEv5V8et7Ej_-9" style="edgeStyle=orthogonalEdgeStyle;rounded=0;orthogonalLoop=1;jettySize=auto;html=1;exitX=1;exitY=0.5;exitDx=0;exitDy=0;entryX=1;entryY=0.5;entryDx=0;entryDy=0;" edge="1" parent="1" source="6hsgYS7dKEv5V8et7Ej_-3" target="6hsgYS7dKEv5V8et7Ej_-4">
          <mxGeometry relative="1" as="geometry">
            <Array as="points">
              <mxPoint x="1240" y="1500" />
              <mxPoint x="1240" y="1840" />
            </Array>
          </mxGeometry>
        </mxCell>
        <mxCell id="6hsgYS7dKEv5V8et7Ej_-3" value="slave_3" style="rounded=0;whiteSpace=wrap;html=1;fillColor=#dae8fc;strokeColor=#6c8ebf;" vertex="1" parent="1">
          <mxGeometry x="920" y="1440" width="160" height="120" as="geometry" />
        </mxCell>
        <mxCell id="6hsgYS7dKEv5V8et7Ej_-28" style="edgeStyle=orthogonalEdgeStyle;rounded=0;orthogonalLoop=1;jettySize=auto;html=1;exitX=0;exitY=0.5;exitDx=0;exitDy=0;entryX=0;entryY=0.75;entryDx=0;entryDy=0;" edge="1" parent="1" source="6hsgYS7dKEv5V8et7Ej_-4" target="fOiAJ-RndhvWO7kLTrhU-4">
          <mxGeometry relative="1" as="geometry">
            <Array as="points">
              <mxPoint x="80" y="1840" />
              <mxPoint x="80" y="1210" />
            </Array>
          </mxGeometry>
        </mxCell>
        <mxCell id="6hsgYS7dKEv5V8et7Ej_-4" value="mutiplexer" style="rounded=0;whiteSpace=wrap;html=1;fillColor=#e1d5e7;strokeColor=#9673a6;" vertex="1" parent="1">
          <mxGeometry x="640" y="1800" width="160" height="80" as="geometry" />
        </mxCell>
        <mxCell id="6hsgYS7dKEv5V8et7Ej_-5" value="" style="endArrow=classic;html=1;rounded=0;exitX=1;exitY=0.5;exitDx=0;exitDy=0;entryX=0;entryY=0.5;entryDx=0;entryDy=0;" edge="1" parent="1" source="fOiAJ-RndhvWO7kLTrhU-4" target="6hsgYS7dKEv5V8et7Ej_-1">
          <mxGeometry width="50" height="50" relative="1" as="geometry">
            <mxPoint x="670" y="1280" as="sourcePoint" />
            <mxPoint x="720" y="1230" as="targetPoint" />
          </mxGeometry>
        </mxCell>
        <mxCell id="6hsgYS7dKEv5V8et7Ej_-11" style="edgeStyle=orthogonalEdgeStyle;rounded=0;orthogonalLoop=1;jettySize=auto;html=1;exitX=1;exitY=0.5;exitDx=0;exitDy=0;entryX=1;entryY=0.25;entryDx=0;entryDy=0;" edge="1" parent="1" source="6hsgYS7dKEv5V8et7Ej_-6" target="6hsgYS7dKEv5V8et7Ej_-4">
          <mxGeometry relative="1" as="geometry">
            <Array as="points">
              <mxPoint x="1200" y="1660" />
              <mxPoint x="1200" y="1820" />
            </Array>
          </mxGeometry>
        </mxCell>
        <mxCell id="6hsgYS7dKEv5V8et7Ej_-6" value="slave_4" style="rounded=0;whiteSpace=wrap;html=1;fillColor=#dae8fc;strokeColor=#6c8ebf;" vertex="1" parent="1">
          <mxGeometry x="920" y="1600" width="160" height="120" as="geometry" />
        </mxCell>
        <mxCell id="6hsgYS7dKEv5V8et7Ej_-7" value="" style="endArrow=classic;html=1;rounded=0;exitX=1;exitY=0.5;exitDx=0;exitDy=0;entryX=0.973;entryY=1.003;entryDx=0;entryDy=0;entryPerimeter=0;" edge="1" parent="1" source="6hsgYS7dKEv5V8et7Ej_-1" target="6hsgYS7dKEv5V8et7Ej_-4">
          <mxGeometry width="50" height="50" relative="1" as="geometry">
            <mxPoint x="1120" y="1170" as="sourcePoint" />
            <mxPoint x="1196.6666666666667" y="1740" as="targetPoint" />
            <Array as="points">
              <mxPoint x="1320" y="1180" />
              <mxPoint x="1320" y="1880" />
            </Array>
          </mxGeometry>
        </mxCell>
        <mxCell id="6hsgYS7dKEv5V8et7Ej_-21" style="edgeStyle=orthogonalEdgeStyle;rounded=0;orthogonalLoop=1;jettySize=auto;html=1;exitX=1;exitY=0.25;exitDx=0;exitDy=0;entryX=0;entryY=0.75;entryDx=0;entryDy=0;" edge="1" parent="1" source="6hsgYS7dKEv5V8et7Ej_-19" target="6hsgYS7dKEv5V8et7Ej_-1">
          <mxGeometry relative="1" as="geometry">
            <mxPoint x="700" y="1430" as="targetPoint" />
            <Array as="points">
              <mxPoint x="560" y="1380" />
              <mxPoint x="560" y="1210" />
            </Array>
          </mxGeometry>
        </mxCell>
        <mxCell id="6hsgYS7dKEv5V8et7Ej_-22" style="edgeStyle=orthogonalEdgeStyle;rounded=0;orthogonalLoop=1;jettySize=auto;html=1;exitX=1;exitY=0.5;exitDx=0;exitDy=0;entryX=0;entryY=0.75;entryDx=0;entryDy=0;" edge="1" parent="1" source="6hsgYS7dKEv5V8et7Ej_-19" target="6hsgYS7dKEv5V8et7Ej_-2">
          <mxGeometry relative="1" as="geometry">
            <Array as="points">
              <mxPoint x="600" y="1400" />
              <mxPoint x="600" y="1370" />
            </Array>
          </mxGeometry>
        </mxCell>
        <mxCell id="6hsgYS7dKEv5V8et7Ej_-23" style="edgeStyle=orthogonalEdgeStyle;rounded=0;orthogonalLoop=1;jettySize=auto;html=1;exitX=1;exitY=0.75;exitDx=0;exitDy=0;entryX=0;entryY=0.75;entryDx=0;entryDy=0;" edge="1" parent="1" source="6hsgYS7dKEv5V8et7Ej_-19" target="6hsgYS7dKEv5V8et7Ej_-3">
          <mxGeometry relative="1" as="geometry">
            <Array as="points">
              <mxPoint x="640" y="1420" />
              <mxPoint x="640" y="1530" />
            </Array>
          </mxGeometry>
        </mxCell>
        <mxCell id="6hsgYS7dKEv5V8et7Ej_-24" style="edgeStyle=orthogonalEdgeStyle;rounded=0;orthogonalLoop=1;jettySize=auto;html=1;exitX=1;exitY=1;exitDx=0;exitDy=0;entryX=0;entryY=0.75;entryDx=0;entryDy=0;" edge="1" parent="1" source="6hsgYS7dKEv5V8et7Ej_-19" target="6hsgYS7dKEv5V8et7Ej_-6">
          <mxGeometry relative="1" as="geometry">
            <Array as="points">
              <mxPoint x="600" y="1440" />
              <mxPoint x="600" y="1690" />
            </Array>
          </mxGeometry>
        </mxCell>
        <mxCell id="6hsgYS7dKEv5V8et7Ej_-19" value="decoder" style="rounded=0;whiteSpace=wrap;html=1;fillColor=#f8cecc;strokeColor=#b85450;" vertex="1" parent="1">
          <mxGeometry x="440" y="1360" width="80" height="80" as="geometry" />
        </mxCell>
        <mxCell id="6hsgYS7dKEv5V8et7Ej_-25" value="" style="verticalLabelPosition=bottom;shadow=0;dashed=0;align=center;html=1;verticalAlign=top;shape=mxgraph.electrical.logic_gates.inverting_contact;fillColor=#000000;strokeColor=none;" vertex="1" parent="1">
          <mxGeometry x="795" y="1175" width="10" height="10" as="geometry" />
        </mxCell>
        <mxCell id="6hsgYS7dKEv5V8et7Ej_-26" value="" style="verticalLabelPosition=bottom;shadow=0;dashed=0;align=center;html=1;verticalAlign=top;shape=mxgraph.electrical.logic_gates.inverting_contact;fillColor=#000000;strokeColor=none;" vertex="1" parent="1">
          <mxGeometry x="795" y="1334" width="10" height="10" as="geometry" />
        </mxCell>
        <mxCell id="6hsgYS7dKEv5V8et7Ej_-27" value="" style="verticalLabelPosition=bottom;shadow=0;dashed=0;align=center;html=1;verticalAlign=top;shape=mxgraph.electrical.logic_gates.inverting_contact;fillColor=#000000;strokeColor=none;" vertex="1" parent="1">
          <mxGeometry x="795" y="1495" width="10" height="10" as="geometry" />
        </mxCell>
        <mxCell id="6hsgYS7dKEv5V8et7Ej_-30" value="addr, ctrl, data" style="text;html=1;strokeColor=none;fillColor=none;align=left;verticalAlign=middle;whiteSpace=wrap;rounded=0;" vertex="1" parent="1">
          <mxGeometry x="410" y="1155" width="90" height="30" as="geometry" />
        </mxCell>
        <mxCell id="6hsgYS7dKEv5V8et7Ej_-31" value="addr" style="text;html=1;strokeColor=none;fillColor=none;align=left;verticalAlign=middle;whiteSpace=wrap;rounded=0;" vertex="1" parent="1">
          <mxGeometry x="385" y="1370" width="30" height="30" as="geometry" />
        </mxCell>
        <mxCell id="6hsgYS7dKEv5V8et7Ej_-32" value="sel_1" style="text;html=1;strokeColor=none;fillColor=none;align=left;verticalAlign=middle;whiteSpace=wrap;rounded=0;" vertex="1" parent="1">
          <mxGeometry x="580" y="1190" width="30" height="20" as="geometry" />
        </mxCell>
        <mxCell id="6hsgYS7dKEv5V8et7Ej_-33" value="sel_2" style="text;html=1;strokeColor=none;fillColor=none;align=left;verticalAlign=middle;whiteSpace=wrap;rounded=0;" vertex="1" parent="1">
          <mxGeometry x="600" y="1350" width="30" height="20" as="geometry" />
        </mxCell>
        <mxCell id="6hsgYS7dKEv5V8et7Ej_-34" value="sel_3" style="text;html=1;strokeColor=none;fillColor=none;align=left;verticalAlign=middle;whiteSpace=wrap;rounded=0;" vertex="1" parent="1">
          <mxGeometry x="640" y="1510" width="30" height="20" as="geometry" />
        </mxCell>
        <mxCell id="6hsgYS7dKEv5V8et7Ej_-35" value="sel_4" style="text;html=1;strokeColor=none;fillColor=none;align=left;verticalAlign=middle;whiteSpace=wrap;rounded=0;" vertex="1" parent="1">
          <mxGeometry x="620" y="1670" width="30" height="20" as="geometry" />
        </mxCell>
        <mxCell id="6hsgYS7dKEv5V8et7Ej_-36" value="rdata, hready, resp" style="text;html=1;strokeColor=none;fillColor=none;align=left;verticalAlign=middle;whiteSpace=wrap;rounded=0;" vertex="1" parent="1">
          <mxGeometry x="30" y="1190" width="120" height="20" as="geometry" />
        </mxCell>
        <mxCell id="6hsgYS7dKEv5V8et7Ej_-37" value="data_in, addr_in, ctrl_in" style="text;html=1;strokeColor=none;fillColor=none;align=left;verticalAlign=middle;whiteSpace=wrap;rounded=0;" vertex="1" parent="1">
          <mxGeometry x="10" y="1130" width="140" height="20" as="geometry" />
        </mxCell>
        <mxCell id="6hsgYS7dKEv5V8et7Ej_-38" value="hrdata, hreadyou, hresp" style="text;html=1;strokeColor=none;fillColor=none;align=left;verticalAlign=middle;whiteSpace=wrap;rounded=0;" vertex="1" parent="1">
          <mxGeometry x="1090" y="1483" width="130" height="15" as="geometry" />
        </mxCell>
        <mxCell id="6hsgYS7dKEv5V8et7Ej_-39" value="hrdata, hreadyou, hresp" style="text;html=1;strokeColor=none;fillColor=none;align=left;verticalAlign=middle;whiteSpace=wrap;rounded=0;" vertex="1" parent="1">
          <mxGeometry x="1090" y="1643" width="130" height="15" as="geometry" />
        </mxCell>
        <mxCell id="6hsgYS7dKEv5V8et7Ej_-40" value="hrdata, hreadyou, hresp" style="text;html=1;strokeColor=none;fillColor=none;align=left;verticalAlign=middle;whiteSpace=wrap;rounded=0;" vertex="1" parent="1">
          <mxGeometry x="1090" y="1319" width="130" height="15" as="geometry" />
        </mxCell>
        <mxCell id="6hsgYS7dKEv5V8et7Ej_-41" value="hrdata, hreadyou, hresp" style="text;html=1;strokeColor=none;fillColor=none;align=left;verticalAlign=middle;whiteSpace=wrap;rounded=0;" vertex="1" parent="1">
          <mxGeometry x="1100" y="1162.5" width="130" height="15" as="geometry" />
        </mxCell>
      </root>
    </mxGraphModel>
  </diagram>
  <diagram id="bNxIs7KzdXxmbz3_ZxPw" name="master">
    <mxGraphModel dx="1803" dy="972" grid="1" gridSize="10" guides="1" tooltips="1" connect="1" arrows="1" fold="1" page="1" pageScale="1" pageWidth="850" pageHeight="1100" math="0" shadow="0">
      <root>
        <mxCell id="0" />
        <mxCell id="1" parent="0" />
        <mxCell id="E_BoOiGkWdfE5UAwM8Ud-1" value="input" style="swimlane;childLayout=stackLayout;horizontal=1;startSize=50;horizontalStack=0;rounded=1;fontSize=14;fontStyle=0;strokeWidth=2;resizeParent=0;resizeLast=1;shadow=0;dashed=0;align=center;arcSize=4;whiteSpace=wrap;html=1;fontColor=#0000FF;" vertex="1" parent="1">
          <mxGeometry x="80" y="40" width="160" height="240" as="geometry" />
        </mxCell>
        <mxCell id="E_BoOiGkWdfE5UAwM8Ud-2" value="hclk&lt;br&gt;hresetn&lt;br&gt;enable&lt;br&gt;data_in_a[31:0]&lt;br&gt;data_in_b[31:0]&lt;br&gt;addr[31:0]&lt;br&gt;wr&lt;br&gt;hreadyout&lt;br&gt;hresp&lt;br&gt;hrdata[31:0]&lt;br&gt;slave_sel[1:0]" style="align=left;strokeColor=none;fillColor=none;spacingLeft=4;fontSize=12;verticalAlign=top;resizable=0;rotatable=0;part=1;html=1;fontColor=#0000FF;" vertex="1" parent="E_BoOiGkWdfE5UAwM8Ud-1">
          <mxGeometry y="50" width="160" height="190" as="geometry" />
        </mxCell>
        <mxCell id="E_BoOiGkWdfE5UAwM8Ud-3" value="output" style="swimlane;childLayout=stackLayout;horizontal=1;startSize=50;horizontalStack=0;rounded=1;fontSize=14;fontStyle=0;strokeWidth=2;resizeParent=0;resizeLast=1;shadow=0;dashed=0;align=center;arcSize=4;whiteSpace=wrap;html=1;fontColor=#FF0000;" vertex="1" parent="1">
          <mxGeometry x="280" y="40" width="160" height="240" as="geometry" />
        </mxCell>
        <mxCell id="E_BoOiGkWdfE5UAwM8Ud-4" value="sel[1:0]&lt;br&gt;haddr[31:0]&lt;br&gt;hwrite&lt;br&gt;hsize[2:0]&lt;br&gt;hburst[2:0]&lt;br&gt;hprot[3:0]&lt;br&gt;htrans[1:0]&lt;br&gt;hready&lt;br&gt;hwdata[31:0]&lt;br&gt;dout[31:0]" style="align=left;strokeColor=none;fillColor=none;spacingLeft=4;fontSize=12;verticalAlign=top;resizable=0;rotatable=0;part=1;html=1;fontColor=#FF0000;" vertex="1" parent="E_BoOiGkWdfE5UAwM8Ud-3">
          <mxGeometry y="50" width="160" height="190" as="geometry" />
        </mxCell>
        <mxCell id="l4mZL8G9qDkopOpFrURt-1" value="internal variables" style="swimlane;childLayout=stackLayout;horizontal=1;startSize=50;horizontalStack=0;rounded=1;fontSize=14;fontStyle=0;strokeWidth=2;resizeParent=0;resizeLast=1;shadow=0;dashed=0;align=center;arcSize=4;whiteSpace=wrap;html=1;fontColor=#000000;" vertex="1" parent="1">
          <mxGeometry x="80" y="360" width="160" height="160" as="geometry" />
        </mxCell>
        <mxCell id="l4mZL8G9qDkopOpFrURt-2" value="reg: present_state[1:0]&lt;br&gt;reg: next_state[1:0]&lt;br&gt;parameter: idle = 2&#39;b00&lt;br&gt;parameter: s1 = 2&#39;b01&lt;br&gt;parameter: s2 = 2&#39;b10&lt;br&gt;parameter: s3 = 2&#39;b11" style="align=left;strokeColor=none;fillColor=none;spacingLeft=4;fontSize=12;verticalAlign=top;resizable=0;rotatable=0;part=1;html=1;fontColor=#000000;" vertex="1" parent="l4mZL8G9qDkopOpFrURt-1">
          <mxGeometry y="50" width="160" height="110" as="geometry" />
        </mxCell>
        <mxCell id="xk8OKhg5RqqZi6MX-J_f-1" style="edgeStyle=orthogonalEdgeStyle;rounded=0;orthogonalLoop=1;jettySize=auto;html=1;exitX=0;exitY=0.75;exitDx=0;exitDy=0;exitPerimeter=0;startArrow=classic;startFill=1;endArrow=none;endFill=0;strokeColor=#0000FF;" edge="1" parent="1" source="xk8OKhg5RqqZi6MX-J_f-5">
          <mxGeometry relative="1" as="geometry">
            <mxPoint x="1680" y="100.33333333333337" as="targetPoint" />
          </mxGeometry>
        </mxCell>
        <mxCell id="xk8OKhg5RqqZi6MX-J_f-2" value="&lt;font color=&quot;#0000ff&quot;&gt;hclk&lt;/font&gt;" style="edgeLabel;html=1;align=center;verticalAlign=middle;resizable=0;points=[];" vertex="1" connectable="0" parent="xk8OKhg5RqqZi6MX-J_f-1">
          <mxGeometry x="0.5624" y="1" relative="1" as="geometry">
            <mxPoint x="16" as="offset" />
          </mxGeometry>
        </mxCell>
        <mxCell id="xk8OKhg5RqqZi6MX-J_f-3" style="edgeStyle=orthogonalEdgeStyle;rounded=0;orthogonalLoop=1;jettySize=auto;html=1;exitX=1;exitY=0.25;exitDx=0;exitDy=0;exitPerimeter=0;" edge="1" parent="1" source="xk8OKhg5RqqZi6MX-J_f-5">
          <mxGeometry relative="1" as="geometry">
            <mxPoint x="1960" y="59.84615384615381" as="targetPoint" />
          </mxGeometry>
        </mxCell>
        <mxCell id="xk8OKhg5RqqZi6MX-J_f-4" value="state" style="edgeLabel;html=1;align=center;verticalAlign=middle;resizable=0;points=[];" vertex="1" connectable="0" parent="xk8OKhg5RqqZi6MX-J_f-3">
          <mxGeometry x="0.2239" relative="1" as="geometry">
            <mxPoint as="offset" />
          </mxGeometry>
        </mxCell>
        <mxCell id="xk8OKhg5RqqZi6MX-J_f-5" value="" style="verticalLabelPosition=bottom;shadow=0;dashed=0;align=center;html=1;verticalAlign=top;shape=mxgraph.electrical.logic_gates.d_type_flip-flop;points=[[0,0.25,0,0,0],[0,0.75,0,0,0],[1,0.25,0,0,0],[1,0.75,0,0,0]];" vertex="1" parent="1">
          <mxGeometry x="1760" y="40" width="100" height="80" as="geometry" />
        </mxCell>
        <mxCell id="xk8OKhg5RqqZi6MX-J_f-6" style="edgeStyle=orthogonalEdgeStyle;rounded=0;orthogonalLoop=1;jettySize=auto;html=1;exitX=0;exitY=0.6000000000000001;exitDx=0;exitDy=3;exitPerimeter=0;startArrow=classic;startFill=1;endArrow=none;endFill=0;" edge="1" parent="1" source="xk8OKhg5RqqZi6MX-J_f-10">
          <mxGeometry relative="1" as="geometry">
            <mxPoint x="1540" y="51" as="targetPoint" />
          </mxGeometry>
        </mxCell>
        <mxCell id="xk8OKhg5RqqZi6MX-J_f-7" value="next_state" style="edgeLabel;html=1;align=center;verticalAlign=middle;resizable=0;points=[];" vertex="1" connectable="0" parent="xk8OKhg5RqqZi6MX-J_f-6">
          <mxGeometry x="0.7864" relative="1" as="geometry">
            <mxPoint as="offset" />
          </mxGeometry>
        </mxCell>
        <mxCell id="xk8OKhg5RqqZi6MX-J_f-8" style="edgeStyle=orthogonalEdgeStyle;rounded=0;orthogonalLoop=1;jettySize=auto;html=1;exitX=0;exitY=0.2;exitDx=0;exitDy=3;exitPerimeter=0;endArrow=none;endFill=0;startArrow=classic;startFill=1;" edge="1" parent="1" source="xk8OKhg5RqqZi6MX-J_f-10">
          <mxGeometry relative="1" as="geometry">
            <mxPoint x="1540" y="19.076923076923038" as="targetPoint" />
          </mxGeometry>
        </mxCell>
        <mxCell id="xk8OKhg5RqqZi6MX-J_f-9" value="idle" style="edgeLabel;html=1;align=center;verticalAlign=middle;resizable=0;points=[];" vertex="1" connectable="0" parent="xk8OKhg5RqqZi6MX-J_f-8">
          <mxGeometry x="0.6856" y="-1" relative="1" as="geometry">
            <mxPoint x="-4" as="offset" />
          </mxGeometry>
        </mxCell>
        <mxCell id="xk8OKhg5RqqZi6MX-J_f-10" value="" style="shadow=0;dashed=0;align=center;html=1;strokeWidth=1;shape=mxgraph.electrical.abstract.mux2;whiteSpace=wrap;flipV=0;" vertex="1" parent="1">
          <mxGeometry x="1600" width="53.33" height="80" as="geometry" />
        </mxCell>
        <mxCell id="xk8OKhg5RqqZi6MX-J_f-11" style="edgeStyle=orthogonalEdgeStyle;rounded=0;orthogonalLoop=1;jettySize=auto;html=1;exitX=1;exitY=0.5;exitDx=0;exitDy=-5;exitPerimeter=0;entryX=0;entryY=0.25;entryDx=0;entryDy=0;entryPerimeter=0;" edge="1" parent="1" source="xk8OKhg5RqqZi6MX-J_f-10" target="xk8OKhg5RqqZi6MX-J_f-5">
          <mxGeometry relative="1" as="geometry" />
        </mxCell>
        <mxCell id="xk8OKhg5RqqZi6MX-J_f-12" style="edgeStyle=orthogonalEdgeStyle;rounded=0;orthogonalLoop=1;jettySize=auto;html=1;exitX=0;exitY=0.5;exitDx=0;exitDy=0;endArrow=none;endFill=0;startArrow=classic;startFill=1;strokeColor=#0000FF;" edge="1" parent="1" source="xk8OKhg5RqqZi6MX-J_f-14">
          <mxGeometry relative="1" as="geometry">
            <mxPoint x="1480" y="99.84615384615381" as="targetPoint" />
          </mxGeometry>
        </mxCell>
        <mxCell id="xk8OKhg5RqqZi6MX-J_f-13" value="&lt;font color=&quot;#0000ff&quot;&gt;hresetn&lt;/font&gt;" style="edgeLabel;html=1;align=center;verticalAlign=middle;resizable=0;points=[];" vertex="1" connectable="0" parent="xk8OKhg5RqqZi6MX-J_f-12">
          <mxGeometry x="0.7949" y="-1" relative="1" as="geometry">
            <mxPoint as="offset" />
          </mxGeometry>
        </mxCell>
        <mxCell id="xk8OKhg5RqqZi6MX-J_f-14" value="" style="verticalLabelPosition=bottom;shadow=0;dashed=0;align=center;html=1;verticalAlign=top;shape=mxgraph.electrical.logic_gates.buffer2;" vertex="1" parent="1">
          <mxGeometry x="1520" y="80" width="66.67" height="40" as="geometry" />
        </mxCell>
        <mxCell id="xk8OKhg5RqqZi6MX-J_f-15" style="edgeStyle=orthogonalEdgeStyle;rounded=0;orthogonalLoop=1;jettySize=auto;html=1;exitX=1;exitY=0.5;exitDx=0;exitDy=0;entryX=0.3124882805175323;entryY=1;entryDx=10;entryDy=0;entryPerimeter=0;" edge="1" parent="1" source="xk8OKhg5RqqZi6MX-J_f-14" target="xk8OKhg5RqqZi6MX-J_f-10">
          <mxGeometry relative="1" as="geometry" />
        </mxCell>
        <mxCell id="xk8OKhg5RqqZi6MX-J_f-16" value="" style="verticalLabelPosition=bottom;shadow=0;dashed=0;align=center;html=1;verticalAlign=top;shape=mxgraph.electrical.logic_gates.inverting_contact;" vertex="1" parent="1">
          <mxGeometry x="1572" y="95" width="10" height="10" as="geometry" />
        </mxCell>
        <mxCell id="JN68Otop4ZDMyzwQhCfJ-1" style="edgeStyle=orthogonalEdgeStyle;rounded=0;orthogonalLoop=1;jettySize=auto;html=1;exitX=0.5;exitY=1;exitDx=0;exitDy=0;entryX=0.5;entryY=0;entryDx=0;entryDy=0;" edge="1" parent="1" source="JN68Otop4ZDMyzwQhCfJ-2" target="JN68Otop4ZDMyzwQhCfJ-4">
          <mxGeometry relative="1" as="geometry" />
        </mxCell>
        <mxCell id="JN68Otop4ZDMyzwQhCfJ-2" value="-&amp;gt; present_state&lt;br&gt;next_state -&amp;gt;" style="ellipse;whiteSpace=wrap;html=1;fillColor=#d5e8d4;strokeColor=#82b366;" vertex="1" parent="1">
          <mxGeometry x="1620" y="240" width="120" height="80" as="geometry" />
        </mxCell>
        <mxCell id="JN68Otop4ZDMyzwQhCfJ-3" style="edgeStyle=orthogonalEdgeStyle;rounded=0;orthogonalLoop=1;jettySize=auto;html=1;exitX=0.5;exitY=1;exitDx=0;exitDy=0;entryX=0.5;entryY=0;entryDx=0;entryDy=0;" edge="1" parent="1" source="JN68Otop4ZDMyzwQhCfJ-4" target="JN68Otop4ZDMyzwQhCfJ-7">
          <mxGeometry relative="1" as="geometry" />
        </mxCell>
        <mxCell id="JN68Otop4ZDMyzwQhCfJ-4" value="idle" style="rounded=0;whiteSpace=wrap;html=1;fillColor=#dae8fc;strokeColor=#6c8ebf;" vertex="1" parent="1">
          <mxGeometry x="1560" y="360" width="240" height="80" as="geometry" />
        </mxCell>
        <mxCell id="JN68Otop4ZDMyzwQhCfJ-5" style="edgeStyle=orthogonalEdgeStyle;rounded=0;orthogonalLoop=1;jettySize=auto;html=1;exitX=0;exitY=0.5;exitDx=0;exitDy=0;entryX=0;entryY=0.5;entryDx=0;entryDy=0;" edge="1" parent="1" source="JN68Otop4ZDMyzwQhCfJ-7" target="JN68Otop4ZDMyzwQhCfJ-4">
          <mxGeometry relative="1" as="geometry">
            <Array as="points">
              <mxPoint x="1520" y="520" />
              <mxPoint x="1520" y="400" />
            </Array>
          </mxGeometry>
        </mxCell>
        <mxCell id="JN68Otop4ZDMyzwQhCfJ-6" value="N" style="edgeLabel;html=1;align=center;verticalAlign=middle;resizable=0;points=[];" vertex="1" connectable="0" parent="JN68Otop4ZDMyzwQhCfJ-5">
          <mxGeometry x="-0.7767" relative="1" as="geometry">
            <mxPoint as="offset" />
          </mxGeometry>
        </mxCell>
        <mxCell id="JN68Otop4ZDMyzwQhCfJ-9" style="edgeStyle=orthogonalEdgeStyle;rounded=0;orthogonalLoop=1;jettySize=auto;html=1;exitX=0.5;exitY=1;exitDx=0;exitDy=0;entryX=0.5;entryY=0;entryDx=0;entryDy=0;" edge="1" parent="1" source="JN68Otop4ZDMyzwQhCfJ-7" target="JN68Otop4ZDMyzwQhCfJ-8">
          <mxGeometry relative="1" as="geometry" />
        </mxCell>
        <mxCell id="JN68Otop4ZDMyzwQhCfJ-10" value="Y" style="edgeLabel;html=1;align=center;verticalAlign=middle;resizable=0;points=[];" vertex="1" connectable="0" parent="JN68Otop4ZDMyzwQhCfJ-9">
          <mxGeometry x="-0.1643" relative="1" as="geometry">
            <mxPoint as="offset" />
          </mxGeometry>
        </mxCell>
        <mxCell id="JN68Otop4ZDMyzwQhCfJ-7" value="&lt;font color=&quot;#0000ff&quot;&gt;enable&lt;/font&gt;" style="rhombus;whiteSpace=wrap;html=1;fillColor=#fff2cc;strokeColor=#d6b656;" vertex="1" parent="1">
          <mxGeometry x="1560" y="480" width="240" height="80" as="geometry" />
        </mxCell>
        <mxCell id="JN68Otop4ZDMyzwQhCfJ-16" style="edgeStyle=orthogonalEdgeStyle;rounded=0;orthogonalLoop=1;jettySize=auto;html=1;exitX=0.5;exitY=1;exitDx=0;exitDy=0;entryX=0.5;entryY=0;entryDx=0;entryDy=0;" edge="1" parent="1" source="JN68Otop4ZDMyzwQhCfJ-8" target="JN68Otop4ZDMyzwQhCfJ-11">
          <mxGeometry relative="1" as="geometry" />
        </mxCell>
        <mxCell id="JN68Otop4ZDMyzwQhCfJ-8" value="s1" style="rounded=0;whiteSpace=wrap;html=1;fillColor=#dae8fc;strokeColor=#6c8ebf;" vertex="1" parent="1">
          <mxGeometry x="1560" y="600" width="240" height="80" as="geometry" />
        </mxCell>
        <mxCell id="JN68Otop4ZDMyzwQhCfJ-13" style="edgeStyle=orthogonalEdgeStyle;rounded=0;orthogonalLoop=1;jettySize=auto;html=1;exitX=0.5;exitY=1;exitDx=0;exitDy=0;entryX=0.5;entryY=0;entryDx=0;entryDy=0;" edge="1" parent="1" source="JN68Otop4ZDMyzwQhCfJ-11" target="JN68Otop4ZDMyzwQhCfJ-12">
          <mxGeometry relative="1" as="geometry" />
        </mxCell>
        <mxCell id="JN68Otop4ZDMyzwQhCfJ-17" value="Y" style="edgeLabel;html=1;align=center;verticalAlign=middle;resizable=0;points=[];" vertex="1" connectable="0" parent="JN68Otop4ZDMyzwQhCfJ-13">
          <mxGeometry x="-0.2786" y="-2" relative="1" as="geometry">
            <mxPoint x="1" as="offset" />
          </mxGeometry>
        </mxCell>
        <mxCell id="JN68Otop4ZDMyzwQhCfJ-15" style="edgeStyle=orthogonalEdgeStyle;rounded=0;orthogonalLoop=1;jettySize=auto;html=1;exitX=1;exitY=0.5;exitDx=0;exitDy=0;entryX=0.5;entryY=0;entryDx=0;entryDy=0;" edge="1" parent="1" source="JN68Otop4ZDMyzwQhCfJ-11" target="JN68Otop4ZDMyzwQhCfJ-14">
          <mxGeometry relative="1" as="geometry" />
        </mxCell>
        <mxCell id="JN68Otop4ZDMyzwQhCfJ-18" value="N" style="edgeLabel;html=1;align=center;verticalAlign=middle;resizable=0;points=[];" vertex="1" connectable="0" parent="JN68Otop4ZDMyzwQhCfJ-15">
          <mxGeometry x="-0.8897" y="-1" relative="1" as="geometry">
            <mxPoint as="offset" />
          </mxGeometry>
        </mxCell>
        <mxCell id="JN68Otop4ZDMyzwQhCfJ-11" value="&lt;font color=&quot;#0000ff&quot;&gt;wr&lt;/font&gt;" style="rhombus;whiteSpace=wrap;html=1;fillColor=#fff2cc;strokeColor=#d6b656;" vertex="1" parent="1">
          <mxGeometry x="1560" y="720" width="240" height="80" as="geometry" />
        </mxCell>
        <mxCell id="hfv-ZXB4_o-HYusQw3lI-1" style="edgeStyle=orthogonalEdgeStyle;rounded=0;orthogonalLoop=1;jettySize=auto;html=1;exitX=0.5;exitY=1;exitDx=0;exitDy=0;entryX=0.5;entryY=0;entryDx=0;entryDy=0;" edge="1" parent="1" source="JN68Otop4ZDMyzwQhCfJ-12" target="JN68Otop4ZDMyzwQhCfJ-20">
          <mxGeometry relative="1" as="geometry" />
        </mxCell>
        <mxCell id="JN68Otop4ZDMyzwQhCfJ-12" value="s2" style="rounded=0;whiteSpace=wrap;html=1;fillColor=#dae8fc;strokeColor=#6c8ebf;" vertex="1" parent="1">
          <mxGeometry x="1560" y="840" width="240" height="80" as="geometry" />
        </mxCell>
        <mxCell id="WGDbfAk2LrkACu5-HOws-6" style="edgeStyle=orthogonalEdgeStyle;rounded=0;orthogonalLoop=1;jettySize=auto;html=1;exitX=0.5;exitY=1;exitDx=0;exitDy=0;entryX=0.5;entryY=0;entryDx=0;entryDy=0;" edge="1" parent="1" source="JN68Otop4ZDMyzwQhCfJ-14" target="WGDbfAk2LrkACu5-HOws-4">
          <mxGeometry relative="1" as="geometry" />
        </mxCell>
        <mxCell id="JN68Otop4ZDMyzwQhCfJ-14" value="s3" style="rounded=0;whiteSpace=wrap;html=1;fillColor=#dae8fc;strokeColor=#6c8ebf;" vertex="1" parent="1">
          <mxGeometry x="1840" y="840" width="240" height="80" as="geometry" />
        </mxCell>
        <mxCell id="hfv-ZXB4_o-HYusQw3lI-2" style="edgeStyle=orthogonalEdgeStyle;rounded=0;orthogonalLoop=1;jettySize=auto;html=1;exitX=0;exitY=0.5;exitDx=0;exitDy=0;entryX=0;entryY=0.5;entryDx=0;entryDy=0;" edge="1" parent="1" source="JN68Otop4ZDMyzwQhCfJ-20" target="JN68Otop4ZDMyzwQhCfJ-8">
          <mxGeometry relative="1" as="geometry">
            <Array as="points">
              <mxPoint x="1520" y="1000" />
              <mxPoint x="1520" y="640" />
            </Array>
          </mxGeometry>
        </mxCell>
        <mxCell id="hfv-ZXB4_o-HYusQw3lI-3" value="Y" style="edgeLabel;html=1;align=center;verticalAlign=middle;resizable=0;points=[];" vertex="1" connectable="0" parent="hfv-ZXB4_o-HYusQw3lI-2">
          <mxGeometry x="-0.9084" y="1" relative="1" as="geometry">
            <mxPoint as="offset" />
          </mxGeometry>
        </mxCell>
        <mxCell id="WGDbfAk2LrkACu5-HOws-3" style="edgeStyle=orthogonalEdgeStyle;rounded=0;orthogonalLoop=1;jettySize=auto;html=1;exitX=0.5;exitY=1;exitDx=0;exitDy=0;dashed=1;" edge="1" source="WGDbfAk2LrkACu5-HOws-4" parent="hfv-ZXB4_o-HYusQw3lI-2">
          <mxGeometry relative="1" as="geometry">
            <mxPoint x="1959.7931034482758" y="1080" as="targetPoint" />
          </mxGeometry>
        </mxCell>
        <mxCell id="WGDbfAk2LrkACu5-HOws-8" value="N" style="edgeLabel;html=1;align=center;verticalAlign=middle;resizable=0;points=[];" vertex="1" connectable="0" parent="WGDbfAk2LrkACu5-HOws-3">
          <mxGeometry x="-0.388" y="-1" relative="1" as="geometry">
            <mxPoint as="offset" />
          </mxGeometry>
        </mxCell>
        <mxCell id="WGDbfAk2LrkACu5-HOws-2" style="edgeStyle=orthogonalEdgeStyle;rounded=0;orthogonalLoop=1;jettySize=auto;html=1;exitX=0.5;exitY=1;exitDx=0;exitDy=0;dashed=1;" edge="1" parent="1" source="JN68Otop4ZDMyzwQhCfJ-20">
          <mxGeometry relative="1" as="geometry">
            <mxPoint x="1679.7931034482758" y="1080" as="targetPoint" />
          </mxGeometry>
        </mxCell>
        <mxCell id="WGDbfAk2LrkACu5-HOws-7" value="N" style="edgeLabel;html=1;align=center;verticalAlign=middle;resizable=0;points=[];" vertex="1" connectable="0" parent="WGDbfAk2LrkACu5-HOws-2">
          <mxGeometry x="-0.3715" relative="1" as="geometry">
            <mxPoint as="offset" />
          </mxGeometry>
        </mxCell>
        <mxCell id="JN68Otop4ZDMyzwQhCfJ-20" value="&lt;font color=&quot;#0000ff&quot;&gt;enable&lt;/font&gt;" style="rhombus;whiteSpace=wrap;html=1;fillColor=#fff2cc;strokeColor=#d6b656;" vertex="1" parent="1">
          <mxGeometry x="1560" y="960" width="240" height="80" as="geometry" />
        </mxCell>
        <mxCell id="WGDbfAk2LrkACu5-HOws-1" value="idle" style="text;html=1;strokeColor=none;fillColor=none;align=center;verticalAlign=middle;whiteSpace=wrap;rounded=0;" vertex="1" parent="1">
          <mxGeometry x="1650" y="1080" width="60" height="30" as="geometry" />
        </mxCell>
        <mxCell id="WGDbfAk2LrkACu5-HOws-9" style="edgeStyle=orthogonalEdgeStyle;rounded=0;orthogonalLoop=1;jettySize=auto;html=1;exitX=1;exitY=0.5;exitDx=0;exitDy=0;entryX=1;entryY=0.5;entryDx=0;entryDy=0;" edge="1" parent="1" source="WGDbfAk2LrkACu5-HOws-4" target="JN68Otop4ZDMyzwQhCfJ-8">
          <mxGeometry relative="1" as="geometry">
            <Array as="points">
              <mxPoint x="2120" y="1000" />
              <mxPoint x="2120" y="640" />
            </Array>
          </mxGeometry>
        </mxCell>
        <mxCell id="WGDbfAk2LrkACu5-HOws-10" value="Y" style="edgeLabel;html=1;align=center;verticalAlign=middle;resizable=0;points=[];" vertex="1" connectable="0" parent="WGDbfAk2LrkACu5-HOws-9">
          <mxGeometry x="-0.9677" y="-1" relative="1" as="geometry">
            <mxPoint as="offset" />
          </mxGeometry>
        </mxCell>
        <mxCell id="WGDbfAk2LrkACu5-HOws-4" value="&lt;font color=&quot;#0000ff&quot;&gt;enable&lt;/font&gt;" style="rhombus;whiteSpace=wrap;html=1;fillColor=#fff2cc;strokeColor=#d6b656;" vertex="1" parent="1">
          <mxGeometry x="1840" y="960" width="240" height="80" as="geometry" />
        </mxCell>
        <mxCell id="WGDbfAk2LrkACu5-HOws-5" value="idle" style="text;html=1;strokeColor=none;fillColor=none;align=center;verticalAlign=middle;whiteSpace=wrap;rounded=0;" vertex="1" parent="1">
          <mxGeometry x="1930" y="1080" width="60" height="30" as="geometry" />
        </mxCell>
        <mxCell id="msMGjW8bViW3-htlZMdp-1" value="idle" style="swimlane;childLayout=stackLayout;horizontal=1;startSize=50;horizontalStack=0;rounded=1;fontSize=14;fontStyle=0;strokeWidth=2;resizeParent=0;resizeLast=1;shadow=0;dashed=0;align=center;arcSize=4;whiteSpace=wrap;html=1;fontColor=#000000;" vertex="1" parent="1">
          <mxGeometry x="2600" y="520" width="240" height="240" as="geometry" />
        </mxCell>
        <mxCell id="msMGjW8bViW3-htlZMdp-2" value="&lt;font color=&quot;#ff0000&quot;&gt;sel[1:0] = 2&#39;b00&lt;br style=&quot;border-color: var(--border-color);&quot;&gt;haddr[31:0] = 32&#39;h0&lt;br style=&quot;border-color: var(--border-color);&quot;&gt;hwrite = 1&#39;b0&lt;br style=&quot;border-color: var(--border-color);&quot;&gt;hsize[2:0] = 3&#39;b000&lt;br style=&quot;border-color: var(--border-color);&quot;&gt;hburst[2:0] = 3&#39;b000&lt;br style=&quot;border-color: var(--border-color);&quot;&gt;hprot[3:0] = 4b0000&lt;br style=&quot;border-color: var(--border-color);&quot;&gt;htrans[1:0] = 2&#39;b00&lt;br style=&quot;border-color: var(--border-color);&quot;&gt;hready = 1&#39;b0&lt;br style=&quot;border-color: var(--border-color);&quot;&gt;hwdata[31:0] = 32&#39;h0&lt;br style=&quot;border-color: var(--border-color);&quot;&gt;dout[31:0] = 32&#39;h0&lt;/font&gt;" style="align=left;strokeColor=none;fillColor=none;spacingLeft=4;fontSize=12;verticalAlign=top;resizable=0;rotatable=0;part=1;html=1;fontColor=#000000;" vertex="1" parent="msMGjW8bViW3-htlZMdp-1">
          <mxGeometry y="50" width="240" height="190" as="geometry" />
        </mxCell>
        <mxCell id="msMGjW8bViW3-htlZMdp-3" value="" style="endArrow=classic;html=1;rounded=0;dashed=1;dashPattern=1 4;" edge="1" parent="1">
          <mxGeometry width="50" height="50" relative="1" as="geometry">
            <mxPoint x="2440" y="560" as="sourcePoint" />
            <mxPoint x="2600" y="560" as="targetPoint" />
          </mxGeometry>
        </mxCell>
        <mxCell id="msMGjW8bViW3-htlZMdp-4" value="s1" style="swimlane;childLayout=stackLayout;horizontal=1;startSize=50;horizontalStack=0;rounded=1;fontSize=14;fontStyle=0;strokeWidth=2;resizeParent=0;resizeLast=1;shadow=0;dashed=0;align=center;arcSize=4;whiteSpace=wrap;html=1;fontColor=#000000;" vertex="1" parent="1">
          <mxGeometry x="2600" y="800" width="240" height="240" as="geometry" />
        </mxCell>
        <mxCell id="msMGjW8bViW3-htlZMdp-5" value="&lt;font color=&quot;#ff0000&quot;&gt;sel[1:0] = &lt;/font&gt;&lt;font color=&quot;#0000ff&quot;&gt;slave_sel[1:0]&lt;/font&gt;&lt;br style=&quot;border-color: var(--border-color);&quot;&gt;&lt;font color=&quot;#ff0000&quot;&gt;haddr[31:0] = &lt;/font&gt;&lt;font color=&quot;#0000ff&quot;&gt;addr[31:0]&lt;/font&gt;&lt;br style=&quot;border-color: var(--border-color);&quot;&gt;&lt;font color=&quot;#ff0000&quot;&gt;hwrite = &lt;/font&gt;&lt;font color=&quot;#0000ff&quot;&gt;wr&lt;/font&gt;&lt;br style=&quot;border-color: var(--border-color);&quot;&gt;&lt;font color=&quot;#ff0000&quot;&gt;hsize[2:0] = 3&#39;b000&lt;/font&gt;&lt;br style=&quot;border-color: var(--border-color);&quot;&gt;&lt;font color=&quot;#ff0000&quot;&gt;hburst[2:0] = 3&#39;b000&lt;/font&gt;&lt;br style=&quot;border-color: var(--border-color);&quot;&gt;&lt;font color=&quot;#ff0000&quot;&gt;hprot[3:0] = 4b0000&lt;/font&gt;&lt;br style=&quot;border-color: var(--border-color);&quot;&gt;&lt;font color=&quot;#ff0000&quot;&gt;htrans[1:0] = 2&#39;b00&lt;/font&gt;&lt;br style=&quot;border-color: var(--border-color);&quot;&gt;&lt;font color=&quot;#ff0000&quot;&gt;hready = &lt;/font&gt;1&#39;b1&lt;br style=&quot;border-color: var(--border-color);&quot;&gt;&lt;font color=&quot;#ff0000&quot;&gt;hwdata[31:0] = &lt;/font&gt;&lt;font color=&quot;#0000ff&quot;&gt;data_in_a + data_in_b&lt;/font&gt;&lt;br style=&quot;border-color: var(--border-color);&quot;&gt;&lt;font color=&quot;#ff0000&quot;&gt;dout[31:0] = dout&lt;/font&gt;" style="align=left;strokeColor=none;fillColor=none;spacingLeft=4;fontSize=12;verticalAlign=top;resizable=0;rotatable=0;part=1;html=1;fontColor=#000000;" vertex="1" parent="msMGjW8bViW3-htlZMdp-4">
          <mxGeometry y="50" width="240" height="190" as="geometry" />
        </mxCell>
        <mxCell id="msMGjW8bViW3-htlZMdp-6" value="" style="endArrow=classic;html=1;rounded=0;dashed=1;dashPattern=1 4;" edge="1" parent="1">
          <mxGeometry width="50" height="50" relative="1" as="geometry">
            <mxPoint x="2440" y="840" as="sourcePoint" />
            <mxPoint x="2600" y="840" as="targetPoint" />
          </mxGeometry>
        </mxCell>
        <mxCell id="msMGjW8bViW3-htlZMdp-9" value="s2" style="swimlane;childLayout=stackLayout;horizontal=1;startSize=50;horizontalStack=0;rounded=1;fontSize=14;fontStyle=0;strokeWidth=2;resizeParent=0;resizeLast=1;shadow=0;dashed=0;align=center;arcSize=4;whiteSpace=wrap;html=1;fontColor=#000000;" vertex="1" parent="1">
          <mxGeometry x="2600" y="1080" width="240" height="240" as="geometry" />
        </mxCell>
        <mxCell id="msMGjW8bViW3-htlZMdp-10" value="&lt;font color=&quot;#ff0000&quot;&gt;sel[1:0] = &lt;/font&gt;&lt;font color=&quot;#0000ff&quot;&gt;slave_sel[1:0]&lt;/font&gt;&lt;br style=&quot;border-color: var(--border-color);&quot;&gt;&lt;font color=&quot;#ff0000&quot;&gt;haddr[31:0] = &lt;/font&gt;&lt;font color=&quot;#0000ff&quot;&gt;addr[31:0]&lt;/font&gt;&lt;br style=&quot;border-color: var(--border-color);&quot;&gt;&lt;font color=&quot;#ff0000&quot;&gt;hwrite = &lt;/font&gt;&lt;font color=&quot;#0000ff&quot;&gt;wr&lt;/font&gt;&lt;br style=&quot;border-color: var(--border-color);&quot;&gt;&lt;font color=&quot;#ff0000&quot;&gt;hsize[2:0] = 3&#39;b000&lt;/font&gt;&lt;br style=&quot;border-color: var(--border-color);&quot;&gt;&lt;font color=&quot;#ff0000&quot;&gt;hburst[2:0] = 3&#39;b000&lt;/font&gt;&lt;br style=&quot;border-color: var(--border-color);&quot;&gt;&lt;font color=&quot;#ff0000&quot;&gt;hprot[3:0] = 4b0000&lt;/font&gt;&lt;br style=&quot;border-color: var(--border-color);&quot;&gt;&lt;font color=&quot;#ff0000&quot;&gt;htrans[1:0] = 2&#39;b00&lt;/font&gt;&lt;br style=&quot;border-color: var(--border-color);&quot;&gt;&lt;font color=&quot;#ff0000&quot;&gt;hready = &lt;/font&gt;1&#39;b1&lt;br style=&quot;border-color: var(--border-color);&quot;&gt;&lt;font color=&quot;#ff0000&quot;&gt;hwdata[31:0] = &lt;/font&gt;&lt;font color=&quot;#0000ff&quot;&gt;data_in_a + data_in_b&lt;/font&gt;&lt;br style=&quot;border-color: var(--border-color);&quot;&gt;&lt;font color=&quot;#ff0000&quot;&gt;dout[31:0] = dout&lt;/font&gt;" style="align=left;strokeColor=none;fillColor=none;spacingLeft=4;fontSize=12;verticalAlign=top;resizable=0;rotatable=0;part=1;html=1;fontColor=#000000;" vertex="1" parent="msMGjW8bViW3-htlZMdp-9">
          <mxGeometry y="50" width="240" height="190" as="geometry" />
        </mxCell>
        <mxCell id="msMGjW8bViW3-htlZMdp-11" value="" style="endArrow=classic;html=1;rounded=0;dashed=1;dashPattern=1 4;" edge="1" parent="1">
          <mxGeometry width="50" height="50" relative="1" as="geometry">
            <mxPoint x="2440" y="1120" as="sourcePoint" />
            <mxPoint x="2600" y="1120" as="targetPoint" />
          </mxGeometry>
        </mxCell>
        <mxCell id="msMGjW8bViW3-htlZMdp-12" value="s3" style="swimlane;childLayout=stackLayout;horizontal=1;startSize=50;horizontalStack=0;rounded=1;fontSize=14;fontStyle=0;strokeWidth=2;resizeParent=0;resizeLast=1;shadow=0;dashed=0;align=center;arcSize=4;whiteSpace=wrap;html=1;fontColor=#000000;" vertex="1" parent="1">
          <mxGeometry x="2600" y="1360" width="240" height="240" as="geometry" />
        </mxCell>
        <mxCell id="msMGjW8bViW3-htlZMdp-13" value="&lt;font color=&quot;#ff0000&quot;&gt;sel[1:0] = &lt;/font&gt;&lt;font color=&quot;#0000ff&quot;&gt;slave_sel[1:0]&lt;/font&gt;&lt;br style=&quot;border-color: var(--border-color);&quot;&gt;&lt;font color=&quot;#ff0000&quot;&gt;haddr[31:0] = &lt;/font&gt;&lt;font color=&quot;#0000ff&quot;&gt;addr[31:0]&lt;/font&gt;&lt;br style=&quot;border-color: var(--border-color);&quot;&gt;&lt;font color=&quot;#ff0000&quot;&gt;hwrite = &lt;/font&gt;&lt;font color=&quot;#0000ff&quot;&gt;wr&lt;/font&gt;&lt;br style=&quot;border-color: var(--border-color);&quot;&gt;&lt;font color=&quot;#ff0000&quot;&gt;hsize[2:0] = 3&#39;b000&lt;/font&gt;&lt;br style=&quot;border-color: var(--border-color);&quot;&gt;&lt;font color=&quot;#ff0000&quot;&gt;hburst[2:0] = 3&#39;b000&lt;/font&gt;&lt;br style=&quot;border-color: var(--border-color);&quot;&gt;&lt;font color=&quot;#ff0000&quot;&gt;hprot[3:0] = 4b0000&lt;/font&gt;&lt;br style=&quot;border-color: var(--border-color);&quot;&gt;&lt;font color=&quot;#ff0000&quot;&gt;htrans[1:0] = 2&#39;b00&lt;/font&gt;&lt;br style=&quot;border-color: var(--border-color);&quot;&gt;&lt;font color=&quot;#ff0000&quot;&gt;hready = &lt;/font&gt;1&#39;b1&lt;br style=&quot;border-color: var(--border-color);&quot;&gt;&lt;font color=&quot;#ff0000&quot;&gt;hwdata[31:0] = hwdata[31:0]&lt;/font&gt;&lt;br style=&quot;border-color: var(--border-color);&quot;&gt;&lt;font color=&quot;#ff0000&quot;&gt;dout[31:0] = dout&lt;/font&gt;" style="align=left;strokeColor=none;fillColor=none;spacingLeft=4;fontSize=12;verticalAlign=top;resizable=0;rotatable=0;part=1;html=1;fontColor=#000000;" vertex="1" parent="msMGjW8bViW3-htlZMdp-12">
          <mxGeometry y="50" width="240" height="190" as="geometry" />
        </mxCell>
        <mxCell id="msMGjW8bViW3-htlZMdp-14" value="" style="endArrow=classic;html=1;rounded=0;dashed=1;dashPattern=1 4;" edge="1" parent="1">
          <mxGeometry width="50" height="50" relative="1" as="geometry">
            <mxPoint x="2440" y="1400" as="sourcePoint" />
            <mxPoint x="2600" y="1400" as="targetPoint" />
          </mxGeometry>
        </mxCell>
      </root>
    </mxGraphModel>
  </diagram>
  <diagram name="slave" id="7e0a89b8-554c-2b80-1dc8-d5c74ca68de4">
    <mxGraphModel dx="1659" dy="894" grid="1" gridSize="10" guides="1" tooltips="1" connect="1" arrows="1" fold="1" page="1" pageScale="1" pageWidth="1100" pageHeight="850" background="none" math="0" shadow="0">
      <root>
        <mxCell id="0" />
        <mxCell id="1" parent="0" />
        <mxCell id="Bub89V-sbVYf07L1PBp1-42" value="input" style="swimlane;childLayout=stackLayout;horizontal=1;startSize=50;horizontalStack=0;rounded=1;fontSize=14;fontStyle=0;strokeWidth=2;resizeParent=0;resizeLast=1;shadow=0;dashed=0;align=center;arcSize=4;whiteSpace=wrap;html=1;fontColor=#0000FF;" vertex="1" parent="1">
          <mxGeometry x="80" y="40" width="160" height="240" as="geometry" />
        </mxCell>
        <mxCell id="Bub89V-sbVYf07L1PBp1-43" value="hclk&lt;br&gt;hresetn&lt;br&gt;hsel&lt;br&gt;haddr[31:0]&lt;br&gt;hwrite&lt;br&gt;hsize[2:0]&lt;br&gt;hburst[2:0]&lt;br&gt;hprot[3:0]&lt;br&gt;htrans[1:0]&lt;br&gt;hmastlock&lt;br&gt;hwdata[31:0]&lt;br&gt;hready" style="align=left;strokeColor=none;fillColor=none;spacingLeft=4;fontSize=12;verticalAlign=top;resizable=0;rotatable=0;part=1;html=1;fontColor=#0000FF;" vertex="1" parent="Bub89V-sbVYf07L1PBp1-42">
          <mxGeometry y="50" width="160" height="190" as="geometry" />
        </mxCell>
        <mxCell id="Bub89V-sbVYf07L1PBp1-51" value="output" style="swimlane;childLayout=stackLayout;horizontal=1;startSize=50;horizontalStack=0;rounded=1;fontSize=14;fontStyle=0;strokeWidth=2;resizeParent=0;resizeLast=1;shadow=0;dashed=0;align=center;arcSize=4;whiteSpace=wrap;html=1;fontColor=#FF0000;" vertex="1" parent="1">
          <mxGeometry x="280" y="40" width="160" height="160" as="geometry" />
        </mxCell>
        <mxCell id="Bub89V-sbVYf07L1PBp1-52" value="hreadyout&lt;br&gt;hresp&lt;br&gt;hrdata[31:0]" style="align=left;strokeColor=none;fillColor=none;spacingLeft=4;fontSize=12;verticalAlign=top;resizable=0;rotatable=0;part=1;html=1;fontColor=#FF0000;" vertex="1" parent="Bub89V-sbVYf07L1PBp1-51">
          <mxGeometry y="50" width="160" height="110" as="geometry" />
        </mxCell>
        <mxCell id="Bub89V-sbVYf07L1PBp1-55" value="internal variables" style="swimlane;childLayout=stackLayout;horizontal=1;startSize=50;horizontalStack=0;rounded=1;fontSize=14;fontStyle=0;strokeWidth=2;resizeParent=0;resizeLast=1;shadow=0;dashed=0;align=center;arcSize=4;whiteSpace=wrap;html=1;fontColor=#000000;" vertex="1" parent="1">
          <mxGeometry x="80" y="360" width="160" height="160" as="geometry" />
        </mxCell>
        <mxCell id="Bub89V-sbVYf07L1PBp1-56" value="reg: mem_arr[31:0][31:0]&lt;br&gt;reg: waddr[4:0]&lt;br&gt;reg: raddr[4:0]" style="align=left;strokeColor=none;fillColor=none;spacingLeft=4;fontSize=12;verticalAlign=top;resizable=0;rotatable=0;part=1;html=1;fontColor=#000000;" vertex="1" parent="Bub89V-sbVYf07L1PBp1-55">
          <mxGeometry y="50" width="160" height="110" as="geometry" />
        </mxCell>
        <mxCell id="Bub89V-sbVYf07L1PBp1-57" value="internal variables" style="swimlane;childLayout=stackLayout;horizontal=1;startSize=50;horizontalStack=0;rounded=1;fontSize=14;fontStyle=0;strokeWidth=2;resizeParent=0;resizeLast=1;shadow=0;dashed=0;align=center;arcSize=4;whiteSpace=wrap;html=1;fontColor=#000000;" vertex="1" parent="1">
          <mxGeometry x="280" y="360" width="160" height="160" as="geometry" />
        </mxCell>
        <mxCell id="Bub89V-sbVYf07L1PBp1-58" value="reg: present_state[1:0]&lt;br&gt;reg: next_state[1:0]&lt;br&gt;parameter: idle = 2&#39;b00&lt;br&gt;parameter: s1 = 2&#39;b01&lt;br&gt;parameter: s2 = 2&#39;b10&lt;br&gt;parameter: s3 = 2&#39;b11" style="align=left;strokeColor=none;fillColor=none;spacingLeft=4;fontSize=12;verticalAlign=top;resizable=0;rotatable=0;part=1;html=1;fontColor=#000000;" vertex="1" parent="Bub89V-sbVYf07L1PBp1-57">
          <mxGeometry y="50" width="160" height="110" as="geometry" />
        </mxCell>
        <mxCell id="Bub89V-sbVYf07L1PBp1-59" value="internal variables" style="swimlane;childLayout=stackLayout;horizontal=1;startSize=50;horizontalStack=0;rounded=1;fontSize=14;fontStyle=0;strokeWidth=2;resizeParent=0;resizeLast=1;shadow=0;dashed=0;align=center;arcSize=4;whiteSpace=wrap;html=1;fontColor=#000000;" vertex="1" parent="1">
          <mxGeometry x="480" y="360" width="160" height="200" as="geometry" />
        </mxCell>
        <mxCell id="Bub89V-sbVYf07L1PBp1-60" value="reg: single_flag&lt;br&gt;reg: incr_flag&lt;br&gt;reg: incr4_flag&lt;br&gt;reg: incr8_flag&lt;br&gt;reg: wrap4_flag&lt;br&gt;reg: wrap8_flag&lt;br&gt;reg: incr16_flag&lt;br&gt;reg: wrap16_flag" style="align=left;strokeColor=none;fillColor=none;spacingLeft=4;fontSize=12;verticalAlign=top;resizable=0;rotatable=0;part=1;html=1;fontColor=#000000;" vertex="1" parent="Bub89V-sbVYf07L1PBp1-59">
          <mxGeometry y="50" width="160" height="150" as="geometry" />
        </mxCell>
        <mxCell id="Bub89V-sbVYf07L1PBp1-62" style="edgeStyle=orthogonalEdgeStyle;rounded=0;orthogonalLoop=1;jettySize=auto;html=1;exitX=0;exitY=0.75;exitDx=0;exitDy=0;exitPerimeter=0;startArrow=classic;startFill=1;endArrow=none;endFill=0;strokeColor=#0000FF;" edge="1" parent="1" source="Bub89V-sbVYf07L1PBp1-61">
          <mxGeometry relative="1" as="geometry">
            <mxPoint x="1680" y="100.33333333333337" as="targetPoint" />
          </mxGeometry>
        </mxCell>
        <mxCell id="Bub89V-sbVYf07L1PBp1-63" value="&lt;font color=&quot;#0000ff&quot;&gt;hclk&lt;/font&gt;" style="edgeLabel;html=1;align=center;verticalAlign=middle;resizable=0;points=[];" vertex="1" connectable="0" parent="Bub89V-sbVYf07L1PBp1-62">
          <mxGeometry x="0.5624" y="1" relative="1" as="geometry">
            <mxPoint x="16" as="offset" />
          </mxGeometry>
        </mxCell>
        <mxCell id="Bub89V-sbVYf07L1PBp1-89" style="edgeStyle=orthogonalEdgeStyle;rounded=0;orthogonalLoop=1;jettySize=auto;html=1;exitX=1;exitY=0.25;exitDx=0;exitDy=0;exitPerimeter=0;" edge="1" parent="1" source="Bub89V-sbVYf07L1PBp1-61">
          <mxGeometry relative="1" as="geometry">
            <mxPoint x="1960" y="59.84615384615381" as="targetPoint" />
          </mxGeometry>
        </mxCell>
        <mxCell id="Bub89V-sbVYf07L1PBp1-90" value="state" style="edgeLabel;html=1;align=center;verticalAlign=middle;resizable=0;points=[];" vertex="1" connectable="0" parent="Bub89V-sbVYf07L1PBp1-89">
          <mxGeometry x="0.2239" relative="1" as="geometry">
            <mxPoint as="offset" />
          </mxGeometry>
        </mxCell>
        <mxCell id="Bub89V-sbVYf07L1PBp1-61" value="" style="verticalLabelPosition=bottom;shadow=0;dashed=0;align=center;html=1;verticalAlign=top;shape=mxgraph.electrical.logic_gates.d_type_flip-flop;points=[[0,0.25,0,0,0],[0,0.75,0,0,0],[1,0.25,0,0,0],[1,0.75,0,0,0]];" vertex="1" parent="1">
          <mxGeometry x="1760" y="40" width="100" height="80" as="geometry" />
        </mxCell>
        <mxCell id="Bub89V-sbVYf07L1PBp1-85" style="edgeStyle=orthogonalEdgeStyle;rounded=0;orthogonalLoop=1;jettySize=auto;html=1;exitX=0;exitY=0.6000000000000001;exitDx=0;exitDy=3;exitPerimeter=0;startArrow=classic;startFill=1;endArrow=none;endFill=0;" edge="1" parent="1" source="Bub89V-sbVYf07L1PBp1-75">
          <mxGeometry relative="1" as="geometry">
            <mxPoint x="1540" y="51" as="targetPoint" />
          </mxGeometry>
        </mxCell>
        <mxCell id="Bub89V-sbVYf07L1PBp1-88" value="next_state" style="edgeLabel;html=1;align=center;verticalAlign=middle;resizable=0;points=[];" vertex="1" connectable="0" parent="Bub89V-sbVYf07L1PBp1-85">
          <mxGeometry x="0.7864" relative="1" as="geometry">
            <mxPoint as="offset" />
          </mxGeometry>
        </mxCell>
        <mxCell id="Bub89V-sbVYf07L1PBp1-86" style="edgeStyle=orthogonalEdgeStyle;rounded=0;orthogonalLoop=1;jettySize=auto;html=1;exitX=0;exitY=0.2;exitDx=0;exitDy=3;exitPerimeter=0;endArrow=none;endFill=0;startArrow=classic;startFill=1;" edge="1" parent="1" source="Bub89V-sbVYf07L1PBp1-75">
          <mxGeometry relative="1" as="geometry">
            <mxPoint x="1540" y="19.076923076923038" as="targetPoint" />
          </mxGeometry>
        </mxCell>
        <mxCell id="Bub89V-sbVYf07L1PBp1-87" value="idle" style="edgeLabel;html=1;align=center;verticalAlign=middle;resizable=0;points=[];" vertex="1" connectable="0" parent="Bub89V-sbVYf07L1PBp1-86">
          <mxGeometry x="0.6856" y="-1" relative="1" as="geometry">
            <mxPoint x="-4" as="offset" />
          </mxGeometry>
        </mxCell>
        <mxCell id="Bub89V-sbVYf07L1PBp1-75" value="" style="shadow=0;dashed=0;align=center;html=1;strokeWidth=1;shape=mxgraph.electrical.abstract.mux2;whiteSpace=wrap;flipV=0;" vertex="1" parent="1">
          <mxGeometry x="1600" width="53.33" height="80" as="geometry" />
        </mxCell>
        <mxCell id="Bub89V-sbVYf07L1PBp1-76" style="edgeStyle=orthogonalEdgeStyle;rounded=0;orthogonalLoop=1;jettySize=auto;html=1;exitX=1;exitY=0.5;exitDx=0;exitDy=-5;exitPerimeter=0;entryX=0;entryY=0.25;entryDx=0;entryDy=0;entryPerimeter=0;" edge="1" parent="1" source="Bub89V-sbVYf07L1PBp1-75" target="Bub89V-sbVYf07L1PBp1-61">
          <mxGeometry relative="1" as="geometry" />
        </mxCell>
        <mxCell id="Bub89V-sbVYf07L1PBp1-82" style="edgeStyle=orthogonalEdgeStyle;rounded=0;orthogonalLoop=1;jettySize=auto;html=1;exitX=0;exitY=0.5;exitDx=0;exitDy=0;endArrow=none;endFill=0;startArrow=classic;startFill=1;strokeColor=#0000FF;" edge="1" parent="1" source="Bub89V-sbVYf07L1PBp1-80">
          <mxGeometry relative="1" as="geometry">
            <mxPoint x="1480" y="99.84615384615381" as="targetPoint" />
          </mxGeometry>
        </mxCell>
        <mxCell id="Bub89V-sbVYf07L1PBp1-83" value="&lt;font color=&quot;#0000ff&quot;&gt;hresetn&lt;/font&gt;" style="edgeLabel;html=1;align=center;verticalAlign=middle;resizable=0;points=[];" vertex="1" connectable="0" parent="Bub89V-sbVYf07L1PBp1-82">
          <mxGeometry x="0.7949" y="-1" relative="1" as="geometry">
            <mxPoint as="offset" />
          </mxGeometry>
        </mxCell>
        <mxCell id="Bub89V-sbVYf07L1PBp1-80" value="" style="verticalLabelPosition=bottom;shadow=0;dashed=0;align=center;html=1;verticalAlign=top;shape=mxgraph.electrical.logic_gates.buffer2;" vertex="1" parent="1">
          <mxGeometry x="1520" y="80" width="66.67" height="40" as="geometry" />
        </mxCell>
        <mxCell id="Bub89V-sbVYf07L1PBp1-81" style="edgeStyle=orthogonalEdgeStyle;rounded=0;orthogonalLoop=1;jettySize=auto;html=1;exitX=1;exitY=0.5;exitDx=0;exitDy=0;entryX=0.3124882805175323;entryY=1;entryDx=10;entryDy=0;entryPerimeter=0;" edge="1" parent="1" source="Bub89V-sbVYf07L1PBp1-80" target="Bub89V-sbVYf07L1PBp1-75">
          <mxGeometry relative="1" as="geometry" />
        </mxCell>
        <mxCell id="Bub89V-sbVYf07L1PBp1-84" value="" style="verticalLabelPosition=bottom;shadow=0;dashed=0;align=center;html=1;verticalAlign=top;shape=mxgraph.electrical.logic_gates.inverting_contact;" vertex="1" parent="1">
          <mxGeometry x="1572" y="95" width="10" height="10" as="geometry" />
        </mxCell>
        <mxCell id="Bub89V-sbVYf07L1PBp1-95" style="edgeStyle=orthogonalEdgeStyle;rounded=0;orthogonalLoop=1;jettySize=auto;html=1;exitX=0.5;exitY=1;exitDx=0;exitDy=0;entryX=0.5;entryY=0;entryDx=0;entryDy=0;" edge="1" parent="1" source="Bub89V-sbVYf07L1PBp1-91" target="Bub89V-sbVYf07L1PBp1-92">
          <mxGeometry relative="1" as="geometry" />
        </mxCell>
        <mxCell id="Bub89V-sbVYf07L1PBp1-91" value="-&amp;gt; present_state&lt;br&gt;temp_next_state -&amp;gt;" style="ellipse;whiteSpace=wrap;html=1;fillColor=#d5e8d4;strokeColor=#82b366;" vertex="1" parent="1">
          <mxGeometry x="1620" y="240" width="120" height="80" as="geometry" />
        </mxCell>
        <mxCell id="Bub89V-sbVYf07L1PBp1-94" style="edgeStyle=orthogonalEdgeStyle;rounded=0;orthogonalLoop=1;jettySize=auto;html=1;exitX=0.5;exitY=1;exitDx=0;exitDy=0;entryX=0.5;entryY=0;entryDx=0;entryDy=0;" edge="1" parent="1" source="Bub89V-sbVYf07L1PBp1-92" target="Bub89V-sbVYf07L1PBp1-93">
          <mxGeometry relative="1" as="geometry" />
        </mxCell>
        <mxCell id="Bub89V-sbVYf07L1PBp1-92" value="idle" style="rounded=0;whiteSpace=wrap;html=1;fillColor=#dae8fc;strokeColor=#6c8ebf;" vertex="1" parent="1">
          <mxGeometry x="1560" y="360" width="240" height="80" as="geometry" />
        </mxCell>
        <mxCell id="Bub89V-sbVYf07L1PBp1-97" style="edgeStyle=orthogonalEdgeStyle;rounded=0;orthogonalLoop=1;jettySize=auto;html=1;exitX=0.5;exitY=1;exitDx=0;exitDy=0;entryX=0.5;entryY=0;entryDx=0;entryDy=0;" edge="1" parent="1" source="Bub89V-sbVYf07L1PBp1-93" target="Bub89V-sbVYf07L1PBp1-96">
          <mxGeometry relative="1" as="geometry" />
        </mxCell>
        <mxCell id="Bub89V-sbVYf07L1PBp1-99" value="Y" style="edgeLabel;html=1;align=center;verticalAlign=middle;resizable=0;points=[];" vertex="1" connectable="0" parent="Bub89V-sbVYf07L1PBp1-97">
          <mxGeometry x="-0.1722" y="-1" relative="1" as="geometry">
            <mxPoint as="offset" />
          </mxGeometry>
        </mxCell>
        <mxCell id="Bub89V-sbVYf07L1PBp1-98" style="edgeStyle=orthogonalEdgeStyle;rounded=0;orthogonalLoop=1;jettySize=auto;html=1;exitX=0;exitY=0.5;exitDx=0;exitDy=0;entryX=0;entryY=0.5;entryDx=0;entryDy=0;" edge="1" parent="1" source="Bub89V-sbVYf07L1PBp1-93" target="Bub89V-sbVYf07L1PBp1-92">
          <mxGeometry relative="1" as="geometry">
            <Array as="points">
              <mxPoint x="1520" y="520" />
              <mxPoint x="1520" y="400" />
            </Array>
          </mxGeometry>
        </mxCell>
        <mxCell id="Bub89V-sbVYf07L1PBp1-100" value="N" style="edgeLabel;html=1;align=center;verticalAlign=middle;resizable=0;points=[];" vertex="1" connectable="0" parent="Bub89V-sbVYf07L1PBp1-98">
          <mxGeometry x="-0.7767" relative="1" as="geometry">
            <mxPoint as="offset" />
          </mxGeometry>
        </mxCell>
        <mxCell id="Bub89V-sbVYf07L1PBp1-93" value="&lt;font color=&quot;#0000ff&quot;&gt;hsel&lt;/font&gt;" style="rhombus;whiteSpace=wrap;html=1;fillColor=#fff2cc;strokeColor=#d6b656;" vertex="1" parent="1">
          <mxGeometry x="1560" y="480" width="240" height="80" as="geometry" />
        </mxCell>
        <mxCell id="Bub89V-sbVYf07L1PBp1-102" style="edgeStyle=orthogonalEdgeStyle;rounded=0;orthogonalLoop=1;jettySize=auto;html=1;exitX=0.5;exitY=1;exitDx=0;exitDy=0;entryX=0.5;entryY=0;entryDx=0;entryDy=0;" edge="1" parent="1" source="Bub89V-sbVYf07L1PBp1-96" target="Bub89V-sbVYf07L1PBp1-101">
          <mxGeometry relative="1" as="geometry" />
        </mxCell>
        <mxCell id="Bub89V-sbVYf07L1PBp1-96" value="s1" style="rounded=0;whiteSpace=wrap;html=1;fillColor=#dae8fc;strokeColor=#6c8ebf;" vertex="1" parent="1">
          <mxGeometry x="1560" y="600" width="240" height="80" as="geometry" />
        </mxCell>
        <mxCell id="Bub89V-sbVYf07L1PBp1-104" style="edgeStyle=orthogonalEdgeStyle;rounded=0;orthogonalLoop=1;jettySize=auto;html=1;exitX=0.5;exitY=1;exitDx=0;exitDy=0;entryX=0.5;entryY=0;entryDx=0;entryDy=0;" edge="1" parent="1" source="Bub89V-sbVYf07L1PBp1-101" target="Bub89V-sbVYf07L1PBp1-103">
          <mxGeometry relative="1" as="geometry" />
        </mxCell>
        <mxCell id="Bub89V-sbVYf07L1PBp1-105" value="Y" style="edgeLabel;html=1;align=center;verticalAlign=middle;resizable=0;points=[];" vertex="1" connectable="0" parent="Bub89V-sbVYf07L1PBp1-104">
          <mxGeometry x="-0.2" relative="1" as="geometry">
            <mxPoint as="offset" />
          </mxGeometry>
        </mxCell>
        <mxCell id="Bub89V-sbVYf07L1PBp1-108" style="edgeStyle=orthogonalEdgeStyle;rounded=0;orthogonalLoop=1;jettySize=auto;html=1;exitX=1;exitY=0.5;exitDx=0;exitDy=0;entryX=0;entryY=0.5;entryDx=0;entryDy=0;" edge="1" parent="1" source="Bub89V-sbVYf07L1PBp1-101" target="Bub89V-sbVYf07L1PBp1-107">
          <mxGeometry relative="1" as="geometry" />
        </mxCell>
        <mxCell id="Bub89V-sbVYf07L1PBp1-109" value="N" style="edgeLabel;html=1;align=center;verticalAlign=middle;resizable=0;points=[];" vertex="1" connectable="0" parent="Bub89V-sbVYf07L1PBp1-108">
          <mxGeometry x="-0.05" y="2" relative="1" as="geometry">
            <mxPoint x="-56" y="2" as="offset" />
          </mxGeometry>
        </mxCell>
        <mxCell id="Bub89V-sbVYf07L1PBp1-101" value="&lt;font color=&quot;#0000ff&quot;&gt;hwrite&lt;/font&gt; &amp;amp; &lt;font color=&quot;#0000ff&quot;&gt;hready&lt;/font&gt;" style="rhombus;whiteSpace=wrap;html=1;fillColor=#fff2cc;strokeColor=#d6b656;" vertex="1" parent="1">
          <mxGeometry x="1560" y="720" width="240" height="80" as="geometry" />
        </mxCell>
        <mxCell id="Bub89V-sbVYf07L1PBp1-115" style="edgeStyle=orthogonalEdgeStyle;rounded=0;orthogonalLoop=1;jettySize=auto;html=1;exitX=0.5;exitY=1;exitDx=0;exitDy=0;entryX=0.5;entryY=0;entryDx=0;entryDy=0;" edge="1" parent="1" source="Bub89V-sbVYf07L1PBp1-103" target="Bub89V-sbVYf07L1PBp1-114">
          <mxGeometry relative="1" as="geometry" />
        </mxCell>
        <mxCell id="Bub89V-sbVYf07L1PBp1-103" value="s2" style="rounded=0;whiteSpace=wrap;html=1;fillColor=#dae8fc;strokeColor=#6c8ebf;" vertex="1" parent="1">
          <mxGeometry x="1560" y="840" width="240" height="80" as="geometry" />
        </mxCell>
        <mxCell id="Bub89V-sbVYf07L1PBp1-111" style="edgeStyle=orthogonalEdgeStyle;rounded=0;orthogonalLoop=1;jettySize=auto;html=1;exitX=0.5;exitY=1;exitDx=0;exitDy=0;entryX=0.5;entryY=0;entryDx=0;entryDy=0;" edge="1" parent="1" source="Bub89V-sbVYf07L1PBp1-107" target="Bub89V-sbVYf07L1PBp1-110">
          <mxGeometry relative="1" as="geometry" />
        </mxCell>
        <mxCell id="Bub89V-sbVYf07L1PBp1-112" style="edgeStyle=orthogonalEdgeStyle;rounded=0;orthogonalLoop=1;jettySize=auto;html=1;exitX=0.5;exitY=0;exitDx=0;exitDy=0;entryX=1;entryY=0.5;entryDx=0;entryDy=0;" edge="1" parent="1" source="Bub89V-sbVYf07L1PBp1-107" target="Bub89V-sbVYf07L1PBp1-96">
          <mxGeometry relative="1" as="geometry" />
        </mxCell>
        <mxCell id="Bub89V-sbVYf07L1PBp1-113" value="N" style="edgeLabel;html=1;align=center;verticalAlign=middle;resizable=0;points=[];" vertex="1" connectable="0" parent="Bub89V-sbVYf07L1PBp1-112">
          <mxGeometry x="-0.7917" y="1" relative="1" as="geometry">
            <mxPoint as="offset" />
          </mxGeometry>
        </mxCell>
        <mxCell id="Bub89V-sbVYf07L1PBp1-107" value="~&lt;font color=&quot;#0000ff&quot;&gt;hwrite&lt;/font&gt; &amp;amp; &lt;font color=&quot;#0000ff&quot;&gt;hready&lt;/font&gt;" style="rhombus;whiteSpace=wrap;html=1;fillColor=#fff2cc;strokeColor=#d6b656;" vertex="1" parent="1">
          <mxGeometry x="1960" y="720" width="240" height="80" as="geometry" />
        </mxCell>
        <mxCell id="Bub89V-sbVYf07L1PBp1-133" style="edgeStyle=orthogonalEdgeStyle;rounded=0;orthogonalLoop=1;jettySize=auto;html=1;exitX=0.5;exitY=1;exitDx=0;exitDy=0;entryX=0.5;entryY=0;entryDx=0;entryDy=0;" edge="1" parent="1" source="Bub89V-sbVYf07L1PBp1-110" target="Bub89V-sbVYf07L1PBp1-132">
          <mxGeometry relative="1" as="geometry" />
        </mxCell>
        <mxCell id="Bub89V-sbVYf07L1PBp1-110" value="s3" style="rounded=0;whiteSpace=wrap;html=1;fillColor=#dae8fc;strokeColor=#6c8ebf;" vertex="1" parent="1">
          <mxGeometry x="1960" y="840" width="240" height="80" as="geometry" />
        </mxCell>
        <mxCell id="Bub89V-sbVYf07L1PBp1-120" style="edgeStyle=orthogonalEdgeStyle;rounded=0;orthogonalLoop=1;jettySize=auto;html=1;exitX=0;exitY=0.5;exitDx=0;exitDy=0;entryX=1;entryY=0.5;entryDx=0;entryDy=0;" edge="1" parent="1" source="Bub89V-sbVYf07L1PBp1-114" target="Bub89V-sbVYf07L1PBp1-116">
          <mxGeometry relative="1" as="geometry" />
        </mxCell>
        <mxCell id="Bub89V-sbVYf07L1PBp1-121" value="Y" style="edgeLabel;html=1;align=center;verticalAlign=middle;resizable=0;points=[];" vertex="1" connectable="0" parent="Bub89V-sbVYf07L1PBp1-120">
          <mxGeometry x="-0.0419" relative="1" as="geometry">
            <mxPoint as="offset" />
          </mxGeometry>
        </mxCell>
        <mxCell id="Bub89V-sbVYf07L1PBp1-130" style="edgeStyle=orthogonalEdgeStyle;rounded=0;orthogonalLoop=1;jettySize=auto;html=1;exitX=1;exitY=0.5;exitDx=0;exitDy=0;entryX=1;entryY=0.5;entryDx=0;entryDy=0;" edge="1" parent="1" source="Bub89V-sbVYf07L1PBp1-114" target="Bub89V-sbVYf07L1PBp1-103">
          <mxGeometry relative="1" as="geometry">
            <Array as="points">
              <mxPoint x="1840" y="1000" />
              <mxPoint x="1840" y="880" />
            </Array>
          </mxGeometry>
        </mxCell>
        <mxCell id="Bub89V-sbVYf07L1PBp1-131" value="N" style="edgeLabel;html=1;align=center;verticalAlign=middle;resizable=0;points=[];" vertex="1" connectable="0" parent="Bub89V-sbVYf07L1PBp1-130">
          <mxGeometry x="-0.7883" y="2" relative="1" as="geometry">
            <mxPoint y="2" as="offset" />
          </mxGeometry>
        </mxCell>
        <mxCell id="Bub89V-sbVYf07L1PBp1-114" value="&lt;font color=&quot;#0000ff&quot;&gt;hburst&lt;/font&gt; = 3&#39;b000" style="rhombus;whiteSpace=wrap;html=1;fillColor=#fff2cc;strokeColor=#d6b656;" vertex="1" parent="1">
          <mxGeometry x="1560" y="960" width="240" height="80" as="geometry" />
        </mxCell>
        <mxCell id="Bub89V-sbVYf07L1PBp1-122" style="edgeStyle=orthogonalEdgeStyle;rounded=0;orthogonalLoop=1;jettySize=auto;html=1;exitX=0.5;exitY=0;exitDx=0;exitDy=0;entryX=0;entryY=0.5;entryDx=0;entryDy=0;" edge="1" parent="1" source="Bub89V-sbVYf07L1PBp1-116" target="Bub89V-sbVYf07L1PBp1-96">
          <mxGeometry relative="1" as="geometry" />
        </mxCell>
        <mxCell id="Bub89V-sbVYf07L1PBp1-123" value="Y" style="edgeLabel;html=1;align=center;verticalAlign=middle;resizable=0;points=[];" vertex="1" connectable="0" parent="Bub89V-sbVYf07L1PBp1-122">
          <mxGeometry x="-0.9275" y="1" relative="1" as="geometry">
            <mxPoint as="offset" />
          </mxGeometry>
        </mxCell>
        <mxCell id="Bub89V-sbVYf07L1PBp1-124" style="edgeStyle=orthogonalEdgeStyle;rounded=0;orthogonalLoop=1;jettySize=auto;html=1;exitX=0;exitY=0.5;exitDx=0;exitDy=0;dashed=1;" edge="1" parent="1" source="Bub89V-sbVYf07L1PBp1-116">
          <mxGeometry relative="1" as="geometry">
            <mxPoint x="1240" y="999.8139534883721" as="targetPoint" />
          </mxGeometry>
        </mxCell>
        <mxCell id="Bub89V-sbVYf07L1PBp1-126" value="N" style="edgeLabel;html=1;align=center;verticalAlign=middle;resizable=0;points=[];" vertex="1" connectable="0" parent="Bub89V-sbVYf07L1PBp1-124">
          <mxGeometry x="-0.2334" y="-1" relative="1" as="geometry">
            <mxPoint as="offset" />
          </mxGeometry>
        </mxCell>
        <mxCell id="Bub89V-sbVYf07L1PBp1-116" value="&lt;font color=&quot;#0000ff&quot;&gt;hsel&lt;/font&gt;" style="rhombus;whiteSpace=wrap;html=1;fillColor=#fff2cc;strokeColor=#d6b656;" vertex="1" parent="1">
          <mxGeometry x="1280" y="960" width="240" height="80" as="geometry" />
        </mxCell>
        <mxCell id="Bub89V-sbVYf07L1PBp1-125" value="idle" style="text;html=1;strokeColor=none;fillColor=none;align=right;verticalAlign=middle;whiteSpace=wrap;rounded=0;" vertex="1" parent="1">
          <mxGeometry x="1180" y="985" width="60" height="30" as="geometry" />
        </mxCell>
        <mxCell id="Bub89V-sbVYf07L1PBp1-135" style="edgeStyle=orthogonalEdgeStyle;rounded=0;orthogonalLoop=1;jettySize=auto;html=1;exitX=1;exitY=0.5;exitDx=0;exitDy=0;entryX=0;entryY=0.5;entryDx=0;entryDy=0;" edge="1" parent="1" source="Bub89V-sbVYf07L1PBp1-132" target="Bub89V-sbVYf07L1PBp1-134">
          <mxGeometry relative="1" as="geometry" />
        </mxCell>
        <mxCell id="Bub89V-sbVYf07L1PBp1-136" value="Y" style="edgeLabel;html=1;align=center;verticalAlign=middle;resizable=0;points=[];" vertex="1" connectable="0" parent="Bub89V-sbVYf07L1PBp1-135">
          <mxGeometry x="-0.3284" y="-1" relative="1" as="geometry">
            <mxPoint as="offset" />
          </mxGeometry>
        </mxCell>
        <mxCell id="Bub89V-sbVYf07L1PBp1-142" style="edgeStyle=orthogonalEdgeStyle;rounded=0;orthogonalLoop=1;jettySize=auto;html=1;exitX=0;exitY=0.5;exitDx=0;exitDy=0;entryX=0;entryY=0.5;entryDx=0;entryDy=0;" edge="1" parent="1" source="Bub89V-sbVYf07L1PBp1-132" target="Bub89V-sbVYf07L1PBp1-110">
          <mxGeometry relative="1" as="geometry">
            <Array as="points">
              <mxPoint x="1920" y="1000" />
              <mxPoint x="1920" y="880" />
            </Array>
          </mxGeometry>
        </mxCell>
        <mxCell id="Bub89V-sbVYf07L1PBp1-143" value="N" style="edgeLabel;html=1;align=center;verticalAlign=middle;resizable=0;points=[];" vertex="1" connectable="0" parent="Bub89V-sbVYf07L1PBp1-142">
          <mxGeometry x="-0.7915" relative="1" as="geometry">
            <mxPoint as="offset" />
          </mxGeometry>
        </mxCell>
        <mxCell id="Bub89V-sbVYf07L1PBp1-132" value="&lt;font color=&quot;#0000ff&quot;&gt;hburst&lt;/font&gt; = 3&#39;b000" style="rhombus;whiteSpace=wrap;html=1;fillColor=#fff2cc;strokeColor=#d6b656;" vertex="1" parent="1">
          <mxGeometry x="1960" y="960" width="240" height="80" as="geometry" />
        </mxCell>
        <mxCell id="Bub89V-sbVYf07L1PBp1-137" style="edgeStyle=orthogonalEdgeStyle;rounded=0;orthogonalLoop=1;jettySize=auto;html=1;exitX=0.5;exitY=0;exitDx=0;exitDy=0;entryX=1;entryY=0.5;entryDx=0;entryDy=0;" edge="1" parent="1" source="Bub89V-sbVYf07L1PBp1-134" target="Bub89V-sbVYf07L1PBp1-96">
          <mxGeometry relative="1" as="geometry" />
        </mxCell>
        <mxCell id="Bub89V-sbVYf07L1PBp1-138" value="Y" style="edgeLabel;html=1;align=center;verticalAlign=middle;resizable=0;points=[];" vertex="1" connectable="0" parent="Bub89V-sbVYf07L1PBp1-137">
          <mxGeometry x="-0.879" y="1" relative="1" as="geometry">
            <mxPoint x="1" y="33" as="offset" />
          </mxGeometry>
        </mxCell>
        <mxCell id="Bub89V-sbVYf07L1PBp1-139" style="edgeStyle=orthogonalEdgeStyle;rounded=0;orthogonalLoop=1;jettySize=auto;html=1;exitX=1;exitY=0.5;exitDx=0;exitDy=0;dashed=1;" edge="1" parent="1" source="Bub89V-sbVYf07L1PBp1-134">
          <mxGeometry relative="1" as="geometry">
            <mxPoint x="2520" y="999.8461538461538" as="targetPoint" />
          </mxGeometry>
        </mxCell>
        <mxCell id="Bub89V-sbVYf07L1PBp1-141" value="N" style="edgeLabel;html=1;align=center;verticalAlign=middle;resizable=0;points=[];" vertex="1" connectable="0" parent="Bub89V-sbVYf07L1PBp1-139">
          <mxGeometry x="-0.344" relative="1" as="geometry">
            <mxPoint as="offset" />
          </mxGeometry>
        </mxCell>
        <mxCell id="Bub89V-sbVYf07L1PBp1-134" value="&lt;font color=&quot;#0000ff&quot;&gt;hsel&lt;/font&gt;" style="rhombus;whiteSpace=wrap;html=1;fillColor=#fff2cc;strokeColor=#d6b656;" vertex="1" parent="1">
          <mxGeometry x="2240" y="960" width="240" height="80" as="geometry" />
        </mxCell>
        <mxCell id="Bub89V-sbVYf07L1PBp1-140" value="idle" style="text;html=1;strokeColor=none;fillColor=none;align=left;verticalAlign=middle;whiteSpace=wrap;rounded=0;" vertex="1" parent="1">
          <mxGeometry x="2520" y="985" width="60" height="30" as="geometry" />
        </mxCell>
        <mxCell id="Bub89V-sbVYf07L1PBp1-145" style="edgeStyle=orthogonalEdgeStyle;rounded=0;orthogonalLoop=1;jettySize=auto;html=1;exitX=1;exitY=0.25;exitDx=0;exitDy=0;exitPerimeter=0;" edge="1" parent="1" source="Bub89V-sbVYf07L1PBp1-144">
          <mxGeometry relative="1" as="geometry">
            <mxPoint x="2800" y="340" as="targetPoint" />
          </mxGeometry>
        </mxCell>
        <mxCell id="Bub89V-sbVYf07L1PBp1-148" value="next_state" style="edgeLabel;html=1;align=center;verticalAlign=middle;resizable=0;points=[];" vertex="1" connectable="0" parent="Bub89V-sbVYf07L1PBp1-145">
          <mxGeometry x="-0.3368" y="-2" relative="1" as="geometry">
            <mxPoint y="-2" as="offset" />
          </mxGeometry>
        </mxCell>
        <mxCell id="Bub89V-sbVYf07L1PBp1-146" style="edgeStyle=orthogonalEdgeStyle;rounded=0;orthogonalLoop=1;jettySize=auto;html=1;exitX=0;exitY=0.25;exitDx=0;exitDy=0;exitPerimeter=0;endArrow=none;endFill=0;startArrow=classic;startFill=1;dashed=1;dashPattern=1 4;" edge="1" parent="1" source="Bub89V-sbVYf07L1PBp1-144">
          <mxGeometry relative="1" as="geometry">
            <mxPoint x="2440" y="339.8888888888889" as="targetPoint" />
          </mxGeometry>
        </mxCell>
        <mxCell id="Bub89V-sbVYf07L1PBp1-147" value="temp_next_state" style="edgeLabel;html=1;align=center;verticalAlign=middle;resizable=0;points=[];" vertex="1" connectable="0" parent="Bub89V-sbVYf07L1PBp1-146">
          <mxGeometry x="0.7366" relative="1" as="geometry">
            <mxPoint as="offset" />
          </mxGeometry>
        </mxCell>
        <mxCell id="Bub89V-sbVYf07L1PBp1-149" style="edgeStyle=orthogonalEdgeStyle;rounded=0;orthogonalLoop=1;jettySize=auto;html=1;exitX=0;exitY=0.75;exitDx=0;exitDy=0;exitPerimeter=0;startArrow=classic;startFill=1;endArrow=none;endFill=0;strokeColor=#0000FF;" edge="1" parent="1" source="Bub89V-sbVYf07L1PBp1-144">
          <mxGeometry relative="1" as="geometry">
            <mxPoint x="2480" y="380.0666666666667" as="targetPoint" />
          </mxGeometry>
        </mxCell>
        <mxCell id="Bub89V-sbVYf07L1PBp1-150" value="&lt;font color=&quot;#0000ff&quot;&gt;hclk&lt;/font&gt;" style="edgeLabel;html=1;align=center;verticalAlign=middle;resizable=0;points=[];" vertex="1" connectable="0" parent="Bub89V-sbVYf07L1PBp1-149">
          <mxGeometry x="0.322" relative="1" as="geometry">
            <mxPoint as="offset" />
          </mxGeometry>
        </mxCell>
        <mxCell id="Bub89V-sbVYf07L1PBp1-144" value="" style="verticalLabelPosition=bottom;shadow=0;dashed=0;align=center;html=1;verticalAlign=top;shape=mxgraph.electrical.logic_gates.d_type_flip-flop;points=[[0,0.25,0,0,0],[0,0.75,0,0,0],[1,0.25,0,0,0],[1,0.75,0,0,0]];" vertex="1" parent="1">
          <mxGeometry x="2540" y="320" width="100" height="80" as="geometry" />
        </mxCell>
        <mxCell id="Bub89V-sbVYf07L1PBp1-151" value="idle" style="swimlane;childLayout=stackLayout;horizontal=1;startSize=50;horizontalStack=0;rounded=1;fontSize=14;fontStyle=0;strokeWidth=2;resizeParent=0;resizeLast=1;shadow=0;dashed=0;align=center;arcSize=4;whiteSpace=wrap;html=1;fontColor=#000000;" vertex="1" parent="1">
          <mxGeometry x="2720" y="520" width="160" height="200" as="geometry" />
        </mxCell>
        <mxCell id="Bub89V-sbVYf07L1PBp1-152" value="single_flag = 1&#39;b0&lt;br style=&quot;border-color: var(--border-color);&quot;&gt;incr_flag = 1&#39;b0&lt;br style=&quot;border-color: var(--border-color);&quot;&gt;wrap4_flag = 1&#39;b0&lt;br style=&quot;border-color: var(--border-color);&quot;&gt;wrap8_flag = 1&#39;b0&lt;br style=&quot;border-color: var(--border-color);&quot;&gt;wrap16_flag = 1&#39;b0&lt;br style=&quot;border-color: var(--border-color);&quot;&gt;incr4_flag = 1&#39;b0&lt;br style=&quot;border-color: var(--border-color);&quot;&gt;incr8_flag = 1&#39;b0&lt;br style=&quot;border-color: var(--border-color);&quot;&gt;incr16_flag = 1&#39;b0" style="align=left;strokeColor=none;fillColor=none;spacingLeft=4;fontSize=12;verticalAlign=top;resizable=0;rotatable=0;part=1;html=1;fontColor=#000000;" vertex="1" parent="Bub89V-sbVYf07L1PBp1-151">
          <mxGeometry y="50" width="160" height="150" as="geometry" />
        </mxCell>
        <mxCell id="Bub89V-sbVYf07L1PBp1-153" value="" style="endArrow=classic;html=1;rounded=0;dashed=1;dashPattern=1 4;entryX=-0.015;entryY=0.195;entryDx=0;entryDy=0;entryPerimeter=0;" edge="1" parent="1" target="Bub89V-sbVYf07L1PBp1-151">
          <mxGeometry width="50" height="50" relative="1" as="geometry">
            <mxPoint x="2560" y="560" as="sourcePoint" />
            <mxPoint x="2680" y="560" as="targetPoint" />
          </mxGeometry>
        </mxCell>
        <mxCell id="Bub89V-sbVYf07L1PBp1-154" value="s1" style="swimlane;childLayout=stackLayout;horizontal=1;startSize=50;horizontalStack=0;rounded=1;fontSize=14;fontStyle=0;strokeWidth=2;resizeParent=0;resizeLast=1;shadow=0;dashed=0;align=center;arcSize=4;whiteSpace=wrap;html=1;fontColor=#000000;" vertex="1" parent="1">
          <mxGeometry x="2720" y="760" width="160" height="200" as="geometry" />
        </mxCell>
        <mxCell id="Bub89V-sbVYf07L1PBp1-155" value="&lt;font color=&quot;#0000ff&quot;&gt;hburst == 3&#39;b000&lt;/font&gt;&lt;br&gt;single_flag = 1&#39;b1&lt;br&gt;incr_flag = 1&#39;b0&lt;br&gt;wrap4_flag = 1&#39;b0&lt;br style=&quot;border-color: var(--border-color);&quot;&gt;wrap8_flag = 1&#39;b0&lt;br&gt;wrap16_flag = 1&#39;b0&lt;br&gt;incr4_flag = 1&#39;b0&lt;br&gt;incr8_flag = 1&#39;b0&lt;br&gt;incr16_flag = 1&#39;b0" style="align=left;strokeColor=none;fillColor=none;spacingLeft=4;fontSize=12;verticalAlign=top;resizable=0;rotatable=0;part=1;html=1;fontColor=#000000;" vertex="1" parent="Bub89V-sbVYf07L1PBp1-154">
          <mxGeometry y="50" width="160" height="150" as="geometry" />
        </mxCell>
        <mxCell id="Bub89V-sbVYf07L1PBp1-156" value="" style="endArrow=classic;html=1;rounded=0;dashed=1;dashPattern=1 4;entryX=-0.015;entryY=0.195;entryDx=0;entryDy=0;entryPerimeter=0;" edge="1" target="Bub89V-sbVYf07L1PBp1-154" parent="1">
          <mxGeometry width="50" height="50" relative="1" as="geometry">
            <mxPoint x="2560" y="800" as="sourcePoint" />
            <mxPoint x="2680" y="800" as="targetPoint" />
          </mxGeometry>
        </mxCell>
        <mxCell id="Bub89V-sbVYf07L1PBp1-157" value="s1" style="swimlane;childLayout=stackLayout;horizontal=1;startSize=50;horizontalStack=0;rounded=1;fontSize=14;fontStyle=0;strokeWidth=2;resizeParent=0;resizeLast=1;shadow=0;dashed=0;align=center;arcSize=4;whiteSpace=wrap;html=1;fontColor=#000000;" vertex="1" parent="1">
          <mxGeometry x="2920" y="760" width="160" height="200" as="geometry" />
        </mxCell>
        <mxCell id="Bub89V-sbVYf07L1PBp1-158" value="&lt;font style=&quot;border-color: var(--border-color);&quot; color=&quot;#0000ff&quot;&gt;hburst == 3&#39;b001&lt;/font&gt;&lt;br style=&quot;border-color: var(--border-color);&quot;&gt;single_flag = 1&#39;b0&lt;br style=&quot;border-color: var(--border-color);&quot;&gt;incr_flag = 1&#39;b1&lt;br style=&quot;border-color: var(--border-color);&quot;&gt;wrap4_flag = 1&#39;b0&lt;br style=&quot;border-color: var(--border-color);&quot;&gt;wrap8_flag = 1&#39;b0&lt;br style=&quot;border-color: var(--border-color);&quot;&gt;wrap16_flag = 1&#39;b0&lt;br style=&quot;border-color: var(--border-color);&quot;&gt;incr4_flag = 1&#39;b0&lt;br style=&quot;border-color: var(--border-color);&quot;&gt;incr8_flag = 1&#39;b0&lt;br style=&quot;border-color: var(--border-color);&quot;&gt;incr16_flag = 1&#39;b0" style="align=left;strokeColor=none;fillColor=none;spacingLeft=4;fontSize=12;verticalAlign=top;resizable=0;rotatable=0;part=1;html=1;fontColor=#000000;" vertex="1" parent="Bub89V-sbVYf07L1PBp1-157">
          <mxGeometry y="50" width="160" height="150" as="geometry" />
        </mxCell>
        <mxCell id="Bub89V-sbVYf07L1PBp1-159" value="s1" style="swimlane;childLayout=stackLayout;horizontal=1;startSize=50;horizontalStack=0;rounded=1;fontSize=14;fontStyle=0;strokeWidth=2;resizeParent=0;resizeLast=1;shadow=0;dashed=0;align=center;arcSize=4;whiteSpace=wrap;html=1;fontColor=#000000;" vertex="1" parent="1">
          <mxGeometry x="3120" y="760" width="160" height="200" as="geometry" />
        </mxCell>
        <mxCell id="Bub89V-sbVYf07L1PBp1-160" value="&lt;font style=&quot;border-color: var(--border-color);&quot; color=&quot;#0000ff&quot;&gt;hburst == 3&#39;b010&lt;/font&gt;&lt;br style=&quot;border-color: var(--border-color);&quot;&gt;single_flag = 1&#39;b0&lt;br style=&quot;border-color: var(--border-color);&quot;&gt;incr_flag = 1&#39;b0&lt;br style=&quot;border-color: var(--border-color);&quot;&gt;wrap4_flag = 1&#39;b1&lt;br style=&quot;border-color: var(--border-color);&quot;&gt;wrap8_flag = 1&#39;b0&lt;br style=&quot;border-color: var(--border-color);&quot;&gt;wrap16_flag = 1&#39;b0&lt;br style=&quot;border-color: var(--border-color);&quot;&gt;incr4_flag = 1&#39;b0&lt;br style=&quot;border-color: var(--border-color);&quot;&gt;incr8_flag = 1&#39;b0&lt;br style=&quot;border-color: var(--border-color);&quot;&gt;incr16_flag = 1&#39;b0" style="align=left;strokeColor=none;fillColor=none;spacingLeft=4;fontSize=12;verticalAlign=top;resizable=0;rotatable=0;part=1;html=1;fontColor=#000000;" vertex="1" parent="Bub89V-sbVYf07L1PBp1-159">
          <mxGeometry y="50" width="160" height="150" as="geometry" />
        </mxCell>
        <mxCell id="Bub89V-sbVYf07L1PBp1-161" value="s1" style="swimlane;childLayout=stackLayout;horizontal=1;startSize=50;horizontalStack=0;rounded=1;fontSize=14;fontStyle=0;strokeWidth=2;resizeParent=0;resizeLast=1;shadow=0;dashed=0;align=center;arcSize=4;whiteSpace=wrap;html=1;fontColor=#000000;" vertex="1" parent="1">
          <mxGeometry x="3320" y="760" width="160" height="200" as="geometry" />
        </mxCell>
        <mxCell id="Bub89V-sbVYf07L1PBp1-162" value="&lt;font style=&quot;border-color: var(--border-color);&quot; color=&quot;#0000ff&quot;&gt;hburst == 3&#39;b011&lt;/font&gt;&lt;br style=&quot;border-color: var(--border-color);&quot;&gt;single_flag = 1&#39;b0&lt;br style=&quot;border-color: var(--border-color);&quot;&gt;incr_flag = 1&#39;b0&lt;br style=&quot;border-color: var(--border-color);&quot;&gt;wrap4_flag = 1&#39;b0&lt;br style=&quot;border-color: var(--border-color);&quot;&gt;wrap8_flag = 1&#39;b0&lt;br style=&quot;border-color: var(--border-color);&quot;&gt;wrap16_flag = 1&#39;b0&lt;br style=&quot;border-color: var(--border-color);&quot;&gt;incr4_flag = 1&#39;b1&lt;br style=&quot;border-color: var(--border-color);&quot;&gt;incr8_flag = 1&#39;b0&lt;br style=&quot;border-color: var(--border-color);&quot;&gt;incr16_flag = 1&#39;b0" style="align=left;strokeColor=none;fillColor=none;spacingLeft=4;fontSize=12;verticalAlign=top;resizable=0;rotatable=0;part=1;html=1;fontColor=#000000;" vertex="1" parent="Bub89V-sbVYf07L1PBp1-161">
          <mxGeometry y="50" width="160" height="150" as="geometry" />
        </mxCell>
        <mxCell id="Bub89V-sbVYf07L1PBp1-165" value="s1" style="swimlane;childLayout=stackLayout;horizontal=1;startSize=50;horizontalStack=0;rounded=1;fontSize=14;fontStyle=0;strokeWidth=2;resizeParent=0;resizeLast=1;shadow=0;dashed=0;align=center;arcSize=4;whiteSpace=wrap;html=1;fontColor=#000000;" vertex="1" parent="1">
          <mxGeometry x="3520" y="760" width="160" height="200" as="geometry" />
        </mxCell>
        <mxCell id="Bub89V-sbVYf07L1PBp1-166" value="&lt;font style=&quot;border-color: var(--border-color);&quot; color=&quot;#0000ff&quot;&gt;hburst == 3&#39;b100&lt;/font&gt;&lt;br style=&quot;border-color: var(--border-color);&quot;&gt;single_flag = 1&#39;b0&lt;br style=&quot;border-color: var(--border-color);&quot;&gt;incr_flag = 1&#39;b0&lt;br style=&quot;border-color: var(--border-color);&quot;&gt;wrap4_flag = 1&#39;b0&lt;br style=&quot;border-color: var(--border-color);&quot;&gt;wrap8_flag = 1&#39;b1&lt;br style=&quot;border-color: var(--border-color);&quot;&gt;wrap16_flag = 1&#39;b0&lt;br style=&quot;border-color: var(--border-color);&quot;&gt;incr4_flag = 1&#39;b0&lt;br style=&quot;border-color: var(--border-color);&quot;&gt;incr8_flag = 1&#39;b0&lt;br style=&quot;border-color: var(--border-color);&quot;&gt;incr16_flag = 1&#39;b0" style="align=left;strokeColor=none;fillColor=none;spacingLeft=4;fontSize=12;verticalAlign=top;resizable=0;rotatable=0;part=1;html=1;fontColor=#000000;" vertex="1" parent="Bub89V-sbVYf07L1PBp1-165">
          <mxGeometry y="50" width="160" height="150" as="geometry" />
        </mxCell>
        <mxCell id="Bub89V-sbVYf07L1PBp1-167" value="s1" style="swimlane;childLayout=stackLayout;horizontal=1;startSize=50;horizontalStack=0;rounded=1;fontSize=14;fontStyle=0;strokeWidth=2;resizeParent=0;resizeLast=1;shadow=0;dashed=0;align=center;arcSize=4;whiteSpace=wrap;html=1;fontColor=#000000;" vertex="1" parent="1">
          <mxGeometry x="3720" y="760" width="160" height="200" as="geometry" />
        </mxCell>
        <mxCell id="Bub89V-sbVYf07L1PBp1-168" value="&lt;font style=&quot;border-color: var(--border-color);&quot; color=&quot;#0000ff&quot;&gt;hburst == 3&#39;b101&lt;/font&gt;&lt;br style=&quot;border-color: var(--border-color);&quot;&gt;single_flag = 1&#39;b0&lt;br style=&quot;border-color: var(--border-color);&quot;&gt;incr_flag = 1&#39;b0&lt;br style=&quot;border-color: var(--border-color);&quot;&gt;wrap4_flag = 1&#39;b0&lt;br style=&quot;border-color: var(--border-color);&quot;&gt;wrap8_flag = 1&#39;b0&lt;br style=&quot;border-color: var(--border-color);&quot;&gt;wrap16_flag = 1&#39;b0&lt;br style=&quot;border-color: var(--border-color);&quot;&gt;incr4_flag = 1&#39;b0&lt;br style=&quot;border-color: var(--border-color);&quot;&gt;incr8_flag = 1&#39;b1&lt;br style=&quot;border-color: var(--border-color);&quot;&gt;incr16_flag = 1&#39;b0" style="align=left;strokeColor=none;fillColor=none;spacingLeft=4;fontSize=12;verticalAlign=top;resizable=0;rotatable=0;part=1;html=1;fontColor=#000000;" vertex="1" parent="Bub89V-sbVYf07L1PBp1-167">
          <mxGeometry y="50" width="160" height="150" as="geometry" />
        </mxCell>
        <mxCell id="Bub89V-sbVYf07L1PBp1-169" value="s1" style="swimlane;childLayout=stackLayout;horizontal=1;startSize=50;horizontalStack=0;rounded=1;fontSize=14;fontStyle=0;strokeWidth=2;resizeParent=0;resizeLast=1;shadow=0;dashed=0;align=center;arcSize=4;whiteSpace=wrap;html=1;fontColor=#000000;" vertex="1" parent="1">
          <mxGeometry x="3920" y="760" width="160" height="200" as="geometry" />
        </mxCell>
        <mxCell id="Bub89V-sbVYf07L1PBp1-170" value="&lt;font style=&quot;border-color: var(--border-color);&quot; color=&quot;#0000ff&quot;&gt;hburst == 3&#39;b110&lt;/font&gt;&lt;br style=&quot;border-color: var(--border-color);&quot;&gt;single_flag = 1&#39;b0&lt;br style=&quot;border-color: var(--border-color);&quot;&gt;incr_flag = 1&#39;b0&lt;br style=&quot;border-color: var(--border-color);&quot;&gt;wrap4_flag = 1&#39;b0&lt;br style=&quot;border-color: var(--border-color);&quot;&gt;wrap8_flag = 1&#39;b0&lt;br style=&quot;border-color: var(--border-color);&quot;&gt;wrap16_flag = 1&#39;b1&lt;br style=&quot;border-color: var(--border-color);&quot;&gt;incr4_flag = 1&#39;b0&lt;br style=&quot;border-color: var(--border-color);&quot;&gt;incr8_flag = 1&#39;b0&lt;br style=&quot;border-color: var(--border-color);&quot;&gt;incr16_flag = 1&#39;b0" style="align=left;strokeColor=none;fillColor=none;spacingLeft=4;fontSize=12;verticalAlign=top;resizable=0;rotatable=0;part=1;html=1;fontColor=#000000;" vertex="1" parent="Bub89V-sbVYf07L1PBp1-169">
          <mxGeometry y="50" width="160" height="150" as="geometry" />
        </mxCell>
        <mxCell id="Bub89V-sbVYf07L1PBp1-171" value="s1" style="swimlane;childLayout=stackLayout;horizontal=1;startSize=50;horizontalStack=0;rounded=1;fontSize=14;fontStyle=0;strokeWidth=2;resizeParent=0;resizeLast=1;shadow=0;dashed=0;align=center;arcSize=4;whiteSpace=wrap;html=1;fontColor=#000000;" vertex="1" parent="1">
          <mxGeometry x="4120" y="760" width="160" height="200" as="geometry" />
        </mxCell>
        <mxCell id="Bub89V-sbVYf07L1PBp1-172" value="&lt;font style=&quot;border-color: var(--border-color);&quot; color=&quot;#0000ff&quot;&gt;hburst == 3&#39;b110&lt;/font&gt;&lt;br style=&quot;border-color: var(--border-color);&quot;&gt;single_flag = 1&#39;b0&lt;br style=&quot;border-color: var(--border-color);&quot;&gt;incr_flag = 1&#39;b0&lt;br style=&quot;border-color: var(--border-color);&quot;&gt;wrap4_flag = 1&#39;b0&lt;br style=&quot;border-color: var(--border-color);&quot;&gt;wrap8_flag = 1&#39;b0&lt;br style=&quot;border-color: var(--border-color);&quot;&gt;wrap16_flag = 1&#39;b1&lt;br style=&quot;border-color: var(--border-color);&quot;&gt;incr4_flag = 1&#39;b0&lt;br style=&quot;border-color: var(--border-color);&quot;&gt;incr8_flag = 1&#39;b0&lt;br style=&quot;border-color: var(--border-color);&quot;&gt;incr16_flag = 1&#39;b0" style="align=left;strokeColor=none;fillColor=none;spacingLeft=4;fontSize=12;verticalAlign=top;resizable=0;rotatable=0;part=1;html=1;fontColor=#000000;" vertex="1" parent="Bub89V-sbVYf07L1PBp1-171">
          <mxGeometry y="50" width="160" height="150" as="geometry" />
        </mxCell>
        <mxCell id="Bub89V-sbVYf07L1PBp1-174" style="edgeStyle=orthogonalEdgeStyle;rounded=0;orthogonalLoop=1;jettySize=auto;html=1;exitX=0;exitY=0.75;exitDx=0;exitDy=0;exitPerimeter=0;startArrow=classic;startFill=1;endArrow=none;endFill=0;strokeColor=#0000FF;" edge="1" source="Bub89V-sbVYf07L1PBp1-178" parent="1">
          <mxGeometry relative="1" as="geometry">
            <mxPoint x="5180" y="180.33333333333337" as="targetPoint" />
          </mxGeometry>
        </mxCell>
        <mxCell id="Bub89V-sbVYf07L1PBp1-175" value="&lt;font color=&quot;#0000ff&quot;&gt;hclk&lt;/font&gt;" style="edgeLabel;html=1;align=center;verticalAlign=middle;resizable=0;points=[];" vertex="1" connectable="0" parent="Bub89V-sbVYf07L1PBp1-174">
          <mxGeometry x="0.5624" y="1" relative="1" as="geometry">
            <mxPoint x="16" as="offset" />
          </mxGeometry>
        </mxCell>
        <mxCell id="Bub89V-sbVYf07L1PBp1-176" style="edgeStyle=orthogonalEdgeStyle;rounded=0;orthogonalLoop=1;jettySize=auto;html=1;exitX=1;exitY=0.25;exitDx=0;exitDy=0;exitPerimeter=0;strokeColor=#FF0000;" edge="1" source="Bub89V-sbVYf07L1PBp1-178" parent="1">
          <mxGeometry relative="1" as="geometry">
            <mxPoint x="5480" y="140" as="targetPoint" />
          </mxGeometry>
        </mxCell>
        <mxCell id="Bub89V-sbVYf07L1PBp1-177" value="&lt;font color=&quot;#ff0000&quot;&gt;hreadyout&lt;/font&gt;" style="edgeLabel;html=1;align=center;verticalAlign=middle;resizable=0;points=[];" vertex="1" connectable="0" parent="Bub89V-sbVYf07L1PBp1-176">
          <mxGeometry x="0.2239" relative="1" as="geometry">
            <mxPoint x="-14" as="offset" />
          </mxGeometry>
        </mxCell>
        <mxCell id="Bub89V-sbVYf07L1PBp1-178" value="" style="verticalLabelPosition=bottom;shadow=0;dashed=0;align=center;html=1;verticalAlign=top;shape=mxgraph.electrical.logic_gates.d_type_flip-flop;points=[[0,0.25,0,0,0],[0,0.75,0,0,0],[1,0.25,0,0,0],[1,0.75,0,0,0]];" vertex="1" parent="1">
          <mxGeometry x="5260" y="120" width="100" height="80" as="geometry" />
        </mxCell>
        <mxCell id="Bub89V-sbVYf07L1PBp1-181" style="edgeStyle=orthogonalEdgeStyle;rounded=0;orthogonalLoop=1;jettySize=auto;html=1;exitX=0;exitY=0.2;exitDx=0;exitDy=3;exitPerimeter=0;endArrow=none;endFill=0;startArrow=classic;startFill=1;" edge="1" source="Bub89V-sbVYf07L1PBp1-183" parent="1">
          <mxGeometry relative="1" as="geometry">
            <mxPoint x="5040" y="99.07692307692304" as="targetPoint" />
          </mxGeometry>
        </mxCell>
        <mxCell id="Bub89V-sbVYf07L1PBp1-182" value="1&#39;b0" style="edgeLabel;html=1;align=center;verticalAlign=middle;resizable=0;points=[];" vertex="1" connectable="0" parent="Bub89V-sbVYf07L1PBp1-181">
          <mxGeometry x="0.6856" y="-1" relative="1" as="geometry">
            <mxPoint x="-4" as="offset" />
          </mxGeometry>
        </mxCell>
        <mxCell id="Bub89V-sbVYf07L1PBp1-332" style="edgeStyle=orthogonalEdgeStyle;rounded=0;orthogonalLoop=1;jettySize=auto;html=1;exitX=0;exitY=0.6000000000000001;exitDx=0;exitDy=3;exitPerimeter=0;endArrow=none;endFill=0;startArrow=classic;startFill=1;dashed=1;dashPattern=1 4;" edge="1" parent="1" source="Bub89V-sbVYf07L1PBp1-183">
          <mxGeometry relative="1" as="geometry">
            <mxPoint x="4840" y="130.96774193548384" as="targetPoint" />
          </mxGeometry>
        </mxCell>
        <mxCell id="Bub89V-sbVYf07L1PBp1-183" value="" style="shadow=0;dashed=0;align=center;html=1;strokeWidth=1;shape=mxgraph.electrical.abstract.mux2;whiteSpace=wrap;flipV=0;" vertex="1" parent="1">
          <mxGeometry x="5100" y="80" width="53.33" height="80" as="geometry" />
        </mxCell>
        <mxCell id="Bub89V-sbVYf07L1PBp1-184" style="edgeStyle=orthogonalEdgeStyle;rounded=0;orthogonalLoop=1;jettySize=auto;html=1;exitX=1;exitY=0.5;exitDx=0;exitDy=-5;exitPerimeter=0;entryX=0;entryY=0.25;entryDx=0;entryDy=0;entryPerimeter=0;" edge="1" source="Bub89V-sbVYf07L1PBp1-183" target="Bub89V-sbVYf07L1PBp1-178" parent="1">
          <mxGeometry relative="1" as="geometry" />
        </mxCell>
        <mxCell id="Bub89V-sbVYf07L1PBp1-185" style="edgeStyle=orthogonalEdgeStyle;rounded=0;orthogonalLoop=1;jettySize=auto;html=1;exitX=0;exitY=0.5;exitDx=0;exitDy=0;endArrow=none;endFill=0;startArrow=classic;startFill=1;strokeColor=#0000FF;" edge="1" source="Bub89V-sbVYf07L1PBp1-187" parent="1">
          <mxGeometry relative="1" as="geometry">
            <mxPoint x="4980" y="179.8461538461538" as="targetPoint" />
          </mxGeometry>
        </mxCell>
        <mxCell id="Bub89V-sbVYf07L1PBp1-186" value="&lt;font color=&quot;#0000ff&quot;&gt;hresetn&lt;/font&gt;" style="edgeLabel;html=1;align=center;verticalAlign=middle;resizable=0;points=[];" vertex="1" connectable="0" parent="Bub89V-sbVYf07L1PBp1-185">
          <mxGeometry x="0.7949" y="-1" relative="1" as="geometry">
            <mxPoint as="offset" />
          </mxGeometry>
        </mxCell>
        <mxCell id="Bub89V-sbVYf07L1PBp1-187" value="" style="verticalLabelPosition=bottom;shadow=0;dashed=0;align=center;html=1;verticalAlign=top;shape=mxgraph.electrical.logic_gates.buffer2;" vertex="1" parent="1">
          <mxGeometry x="5020" y="160" width="66.67" height="40" as="geometry" />
        </mxCell>
        <mxCell id="Bub89V-sbVYf07L1PBp1-188" style="edgeStyle=orthogonalEdgeStyle;rounded=0;orthogonalLoop=1;jettySize=auto;html=1;exitX=1;exitY=0.5;exitDx=0;exitDy=0;entryX=0.3124882805175323;entryY=1;entryDx=10;entryDy=0;entryPerimeter=0;" edge="1" source="Bub89V-sbVYf07L1PBp1-187" target="Bub89V-sbVYf07L1PBp1-183" parent="1">
          <mxGeometry relative="1" as="geometry" />
        </mxCell>
        <mxCell id="Bub89V-sbVYf07L1PBp1-189" value="" style="verticalLabelPosition=bottom;shadow=0;dashed=0;align=center;html=1;verticalAlign=top;shape=mxgraph.electrical.logic_gates.inverting_contact;" vertex="1" parent="1">
          <mxGeometry x="5072" y="175" width="10" height="10" as="geometry" />
        </mxCell>
        <mxCell id="Bub89V-sbVYf07L1PBp1-239" style="edgeStyle=orthogonalEdgeStyle;rounded=0;orthogonalLoop=1;jettySize=auto;html=1;exitX=0;exitY=0.75;exitDx=0;exitDy=0;exitPerimeter=0;startArrow=classic;startFill=1;endArrow=none;endFill=0;strokeColor=#0000FF;" edge="1" source="Bub89V-sbVYf07L1PBp1-243" parent="1">
          <mxGeometry relative="1" as="geometry">
            <mxPoint x="5180" y="460.33333333333337" as="targetPoint" />
          </mxGeometry>
        </mxCell>
        <mxCell id="Bub89V-sbVYf07L1PBp1-240" value="&lt;font color=&quot;#0000ff&quot;&gt;hclk&lt;/font&gt;" style="edgeLabel;html=1;align=center;verticalAlign=middle;resizable=0;points=[];" vertex="1" connectable="0" parent="Bub89V-sbVYf07L1PBp1-239">
          <mxGeometry x="0.5624" y="1" relative="1" as="geometry">
            <mxPoint x="16" as="offset" />
          </mxGeometry>
        </mxCell>
        <mxCell id="Bub89V-sbVYf07L1PBp1-241" style="edgeStyle=orthogonalEdgeStyle;rounded=0;orthogonalLoop=1;jettySize=auto;html=1;exitX=1;exitY=0.25;exitDx=0;exitDy=0;exitPerimeter=0;strokeColor=#FF0000;" edge="1" source="Bub89V-sbVYf07L1PBp1-243" parent="1">
          <mxGeometry relative="1" as="geometry">
            <mxPoint x="5480" y="420" as="targetPoint" />
          </mxGeometry>
        </mxCell>
        <mxCell id="Bub89V-sbVYf07L1PBp1-242" value="&lt;font color=&quot;#ff0000&quot;&gt;hresp&lt;/font&gt;" style="edgeLabel;html=1;align=center;verticalAlign=middle;resizable=0;points=[];" vertex="1" connectable="0" parent="Bub89V-sbVYf07L1PBp1-241">
          <mxGeometry x="0.2239" relative="1" as="geometry">
            <mxPoint x="-14" as="offset" />
          </mxGeometry>
        </mxCell>
        <mxCell id="Bub89V-sbVYf07L1PBp1-243" value="" style="verticalLabelPosition=bottom;shadow=0;dashed=0;align=center;html=1;verticalAlign=top;shape=mxgraph.electrical.logic_gates.d_type_flip-flop;points=[[0,0.25,0,0,0],[0,0.75,0,0,0],[1,0.25,0,0,0],[1,0.75,0,0,0]];" vertex="1" parent="1">
          <mxGeometry x="5260" y="400" width="100" height="80" as="geometry" />
        </mxCell>
        <mxCell id="Bub89V-sbVYf07L1PBp1-245" style="edgeStyle=orthogonalEdgeStyle;rounded=0;orthogonalLoop=1;jettySize=auto;html=1;exitX=0;exitY=0.2;exitDx=0;exitDy=3;exitPerimeter=0;endArrow=none;endFill=0;startArrow=classic;startFill=1;" edge="1" source="Bub89V-sbVYf07L1PBp1-247" parent="1">
          <mxGeometry relative="1" as="geometry">
            <mxPoint x="5040" y="379.07692307692304" as="targetPoint" />
          </mxGeometry>
        </mxCell>
        <mxCell id="Bub89V-sbVYf07L1PBp1-246" value="1&#39;b0" style="edgeLabel;html=1;align=center;verticalAlign=middle;resizable=0;points=[];" vertex="1" connectable="0" parent="Bub89V-sbVYf07L1PBp1-245">
          <mxGeometry x="0.6856" y="-1" relative="1" as="geometry">
            <mxPoint x="-4" as="offset" />
          </mxGeometry>
        </mxCell>
        <mxCell id="Bub89V-sbVYf07L1PBp1-334" style="edgeStyle=orthogonalEdgeStyle;rounded=0;orthogonalLoop=1;jettySize=auto;html=1;exitX=0;exitY=0.6000000000000001;exitDx=0;exitDy=3;exitPerimeter=0;startArrow=classic;startFill=1;endArrow=none;endFill=0;dashed=1;dashPattern=1 4;" edge="1" parent="1" source="Bub89V-sbVYf07L1PBp1-247">
          <mxGeometry relative="1" as="geometry">
            <mxPoint x="4840" y="411" as="targetPoint" />
          </mxGeometry>
        </mxCell>
        <mxCell id="Bub89V-sbVYf07L1PBp1-247" value="" style="shadow=0;dashed=0;align=center;html=1;strokeWidth=1;shape=mxgraph.electrical.abstract.mux2;whiteSpace=wrap;flipV=0;" vertex="1" parent="1">
          <mxGeometry x="5100" y="360" width="53.33" height="80" as="geometry" />
        </mxCell>
        <mxCell id="Bub89V-sbVYf07L1PBp1-248" style="edgeStyle=orthogonalEdgeStyle;rounded=0;orthogonalLoop=1;jettySize=auto;html=1;exitX=1;exitY=0.5;exitDx=0;exitDy=-5;exitPerimeter=0;entryX=0;entryY=0.25;entryDx=0;entryDy=0;entryPerimeter=0;" edge="1" source="Bub89V-sbVYf07L1PBp1-247" target="Bub89V-sbVYf07L1PBp1-243" parent="1">
          <mxGeometry relative="1" as="geometry" />
        </mxCell>
        <mxCell id="Bub89V-sbVYf07L1PBp1-249" style="edgeStyle=orthogonalEdgeStyle;rounded=0;orthogonalLoop=1;jettySize=auto;html=1;exitX=0;exitY=0.5;exitDx=0;exitDy=0;endArrow=none;endFill=0;startArrow=classic;startFill=1;strokeColor=#0000FF;" edge="1" source="Bub89V-sbVYf07L1PBp1-251" parent="1">
          <mxGeometry relative="1" as="geometry">
            <mxPoint x="4980" y="459.8461538461538" as="targetPoint" />
          </mxGeometry>
        </mxCell>
        <mxCell id="Bub89V-sbVYf07L1PBp1-250" value="&lt;font color=&quot;#0000ff&quot;&gt;hresetn&lt;/font&gt;" style="edgeLabel;html=1;align=center;verticalAlign=middle;resizable=0;points=[];" vertex="1" connectable="0" parent="Bub89V-sbVYf07L1PBp1-249">
          <mxGeometry x="0.7949" y="-1" relative="1" as="geometry">
            <mxPoint as="offset" />
          </mxGeometry>
        </mxCell>
        <mxCell id="Bub89V-sbVYf07L1PBp1-251" value="" style="verticalLabelPosition=bottom;shadow=0;dashed=0;align=center;html=1;verticalAlign=top;shape=mxgraph.electrical.logic_gates.buffer2;" vertex="1" parent="1">
          <mxGeometry x="5020" y="440" width="66.67" height="40" as="geometry" />
        </mxCell>
        <mxCell id="Bub89V-sbVYf07L1PBp1-252" style="edgeStyle=orthogonalEdgeStyle;rounded=0;orthogonalLoop=1;jettySize=auto;html=1;exitX=1;exitY=0.5;exitDx=0;exitDy=0;entryX=0.3124882805175323;entryY=1;entryDx=10;entryDy=0;entryPerimeter=0;" edge="1" source="Bub89V-sbVYf07L1PBp1-251" target="Bub89V-sbVYf07L1PBp1-247" parent="1">
          <mxGeometry relative="1" as="geometry" />
        </mxCell>
        <mxCell id="Bub89V-sbVYf07L1PBp1-253" value="" style="verticalLabelPosition=bottom;shadow=0;dashed=0;align=center;html=1;verticalAlign=top;shape=mxgraph.electrical.logic_gates.inverting_contact;" vertex="1" parent="1">
          <mxGeometry x="5072" y="455" width="10" height="10" as="geometry" />
        </mxCell>
        <mxCell id="Bub89V-sbVYf07L1PBp1-327" value="temp_hreadyout" style="swimlane;childLayout=stackLayout;horizontal=1;startSize=50;horizontalStack=0;rounded=1;fontSize=14;fontStyle=0;strokeWidth=2;resizeParent=0;resizeLast=1;shadow=0;dashed=0;align=center;arcSize=4;whiteSpace=wrap;html=1;fontColor=#000000;" vertex="1" parent="1">
          <mxGeometry x="4680" y="40" width="160" height="200" as="geometry" />
        </mxCell>
        <mxCell id="Bub89V-sbVYf07L1PBp1-328" value="if next_state = idle | s1:&lt;br&gt;&amp;nbsp; &amp;nbsp; --&amp;gt; 1&#39;b0&lt;br&gt;else:&lt;br&gt;&amp;nbsp; &amp;nbsp; --&amp;gt; 1&#39;b1" style="align=left;strokeColor=none;fillColor=none;spacingLeft=4;fontSize=12;verticalAlign=top;resizable=0;rotatable=0;part=1;html=1;fontColor=#000000;" vertex="1" parent="Bub89V-sbVYf07L1PBp1-327">
          <mxGeometry y="50" width="160" height="150" as="geometry" />
        </mxCell>
        <mxCell id="Bub89V-sbVYf07L1PBp1-329" value="temp_hresp" style="swimlane;childLayout=stackLayout;horizontal=1;startSize=50;horizontalStack=0;rounded=1;fontSize=14;fontStyle=0;strokeWidth=2;resizeParent=0;resizeLast=1;shadow=0;dashed=0;align=center;arcSize=4;whiteSpace=wrap;html=1;fontColor=#000000;" vertex="1" parent="1">
          <mxGeometry x="4680" y="320" width="160" height="200" as="geometry" />
        </mxCell>
        <mxCell id="Bub89V-sbVYf07L1PBp1-330" value="if next_state = idle | s1:&lt;br&gt;&amp;nbsp; &amp;nbsp; --&amp;gt; 1&#39;b0&lt;br&gt;else:&lt;br&gt;&amp;nbsp; &amp;nbsp; --&amp;gt; 1&#39;b0" style="align=left;strokeColor=none;fillColor=none;spacingLeft=4;fontSize=12;verticalAlign=top;resizable=0;rotatable=0;part=1;html=1;fontColor=#000000;" vertex="1" parent="Bub89V-sbVYf07L1PBp1-329">
          <mxGeometry y="50" width="160" height="150" as="geometry" />
        </mxCell>
        <mxCell id="Bub89V-sbVYf07L1PBp1-335" style="edgeStyle=orthogonalEdgeStyle;rounded=0;orthogonalLoop=1;jettySize=auto;html=1;exitX=0;exitY=0.75;exitDx=0;exitDy=0;exitPerimeter=0;startArrow=classic;startFill=1;endArrow=none;endFill=0;strokeColor=#0000FF;" edge="1" source="Bub89V-sbVYf07L1PBp1-339" parent="1">
          <mxGeometry relative="1" as="geometry">
            <mxPoint x="5180" y="740.3333333333334" as="targetPoint" />
          </mxGeometry>
        </mxCell>
        <mxCell id="Bub89V-sbVYf07L1PBp1-336" value="&lt;font color=&quot;#0000ff&quot;&gt;hclk&lt;/font&gt;" style="edgeLabel;html=1;align=center;verticalAlign=middle;resizable=0;points=[];" vertex="1" connectable="0" parent="Bub89V-sbVYf07L1PBp1-335">
          <mxGeometry x="0.5624" y="1" relative="1" as="geometry">
            <mxPoint x="16" as="offset" />
          </mxGeometry>
        </mxCell>
        <mxCell id="Bub89V-sbVYf07L1PBp1-337" style="edgeStyle=orthogonalEdgeStyle;rounded=0;orthogonalLoop=1;jettySize=auto;html=1;exitX=1;exitY=0.25;exitDx=0;exitDy=0;exitPerimeter=0;strokeColor=#000000;" edge="1" source="Bub89V-sbVYf07L1PBp1-339" parent="1">
          <mxGeometry relative="1" as="geometry">
            <mxPoint x="5480" y="700" as="targetPoint" />
          </mxGeometry>
        </mxCell>
        <mxCell id="Bub89V-sbVYf07L1PBp1-338" value="waddr[4:0]" style="edgeLabel;html=1;align=center;verticalAlign=middle;resizable=0;points=[];" vertex="1" connectable="0" parent="Bub89V-sbVYf07L1PBp1-337">
          <mxGeometry x="0.2239" relative="1" as="geometry">
            <mxPoint x="-14" as="offset" />
          </mxGeometry>
        </mxCell>
        <mxCell id="Bub89V-sbVYf07L1PBp1-339" value="" style="verticalLabelPosition=bottom;shadow=0;dashed=0;align=center;html=1;verticalAlign=top;shape=mxgraph.electrical.logic_gates.d_type_flip-flop;points=[[0,0.25,0,0,0],[0,0.75,0,0,0],[1,0.25,0,0,0],[1,0.75,0,0,0]];" vertex="1" parent="1">
          <mxGeometry x="5260" y="680" width="100" height="80" as="geometry" />
        </mxCell>
        <mxCell id="Bub89V-sbVYf07L1PBp1-340" style="edgeStyle=orthogonalEdgeStyle;rounded=0;orthogonalLoop=1;jettySize=auto;html=1;exitX=0;exitY=0.2;exitDx=0;exitDy=3;exitPerimeter=0;endArrow=none;endFill=0;startArrow=classic;startFill=1;" edge="1" source="Bub89V-sbVYf07L1PBp1-343" parent="1">
          <mxGeometry relative="1" as="geometry">
            <mxPoint x="5040" y="659.0769230769231" as="targetPoint" />
          </mxGeometry>
        </mxCell>
        <mxCell id="Bub89V-sbVYf07L1PBp1-341" value="1&#39;b0" style="edgeLabel;html=1;align=center;verticalAlign=middle;resizable=0;points=[];" vertex="1" connectable="0" parent="Bub89V-sbVYf07L1PBp1-340">
          <mxGeometry x="0.6856" y="-1" relative="1" as="geometry">
            <mxPoint x="-4" as="offset" />
          </mxGeometry>
        </mxCell>
        <mxCell id="Bub89V-sbVYf07L1PBp1-342" style="edgeStyle=orthogonalEdgeStyle;rounded=0;orthogonalLoop=1;jettySize=auto;html=1;exitX=0;exitY=0.6000000000000001;exitDx=0;exitDy=3;exitPerimeter=0;startArrow=classic;startFill=1;endArrow=none;endFill=0;dashed=1;dashPattern=1 4;" edge="1" source="Bub89V-sbVYf07L1PBp1-343" parent="1">
          <mxGeometry relative="1" as="geometry">
            <mxPoint x="4840" y="691" as="targetPoint" />
          </mxGeometry>
        </mxCell>
        <mxCell id="Bub89V-sbVYf07L1PBp1-343" value="" style="shadow=0;dashed=0;align=center;html=1;strokeWidth=1;shape=mxgraph.electrical.abstract.mux2;whiteSpace=wrap;flipV=0;" vertex="1" parent="1">
          <mxGeometry x="5100" y="640" width="53.33" height="80" as="geometry" />
        </mxCell>
        <mxCell id="Bub89V-sbVYf07L1PBp1-344" style="edgeStyle=orthogonalEdgeStyle;rounded=0;orthogonalLoop=1;jettySize=auto;html=1;exitX=1;exitY=0.5;exitDx=0;exitDy=-5;exitPerimeter=0;entryX=0;entryY=0.25;entryDx=0;entryDy=0;entryPerimeter=0;" edge="1" source="Bub89V-sbVYf07L1PBp1-343" target="Bub89V-sbVYf07L1PBp1-339" parent="1">
          <mxGeometry relative="1" as="geometry" />
        </mxCell>
        <mxCell id="Bub89V-sbVYf07L1PBp1-345" style="edgeStyle=orthogonalEdgeStyle;rounded=0;orthogonalLoop=1;jettySize=auto;html=1;exitX=0;exitY=0.5;exitDx=0;exitDy=0;endArrow=none;endFill=0;startArrow=classic;startFill=1;strokeColor=#0000FF;" edge="1" source="Bub89V-sbVYf07L1PBp1-347" parent="1">
          <mxGeometry relative="1" as="geometry">
            <mxPoint x="4980" y="739.8461538461538" as="targetPoint" />
          </mxGeometry>
        </mxCell>
        <mxCell id="Bub89V-sbVYf07L1PBp1-346" value="&lt;font color=&quot;#0000ff&quot;&gt;hresetn&lt;/font&gt;" style="edgeLabel;html=1;align=center;verticalAlign=middle;resizable=0;points=[];" vertex="1" connectable="0" parent="Bub89V-sbVYf07L1PBp1-345">
          <mxGeometry x="0.7949" y="-1" relative="1" as="geometry">
            <mxPoint as="offset" />
          </mxGeometry>
        </mxCell>
        <mxCell id="Bub89V-sbVYf07L1PBp1-347" value="" style="verticalLabelPosition=bottom;shadow=0;dashed=0;align=center;html=1;verticalAlign=top;shape=mxgraph.electrical.logic_gates.buffer2;" vertex="1" parent="1">
          <mxGeometry x="5020" y="720" width="66.67" height="40" as="geometry" />
        </mxCell>
        <mxCell id="Bub89V-sbVYf07L1PBp1-348" style="edgeStyle=orthogonalEdgeStyle;rounded=0;orthogonalLoop=1;jettySize=auto;html=1;exitX=1;exitY=0.5;exitDx=0;exitDy=0;entryX=0.3124882805175323;entryY=1;entryDx=10;entryDy=0;entryPerimeter=0;" edge="1" source="Bub89V-sbVYf07L1PBp1-347" target="Bub89V-sbVYf07L1PBp1-343" parent="1">
          <mxGeometry relative="1" as="geometry" />
        </mxCell>
        <mxCell id="Bub89V-sbVYf07L1PBp1-349" value="" style="verticalLabelPosition=bottom;shadow=0;dashed=0;align=center;html=1;verticalAlign=top;shape=mxgraph.electrical.logic_gates.inverting_contact;" vertex="1" parent="1">
          <mxGeometry x="5072" y="735" width="10" height="10" as="geometry" />
        </mxCell>
        <mxCell id="Bub89V-sbVYf07L1PBp1-350" value="temp_waddr" style="swimlane;childLayout=stackLayout;horizontal=1;startSize=50;horizontalStack=0;rounded=1;fontSize=14;fontStyle=0;strokeWidth=2;resizeParent=0;resizeLast=1;shadow=0;dashed=0;align=center;arcSize=4;whiteSpace=wrap;html=1;fontColor=#000000;" vertex="1" parent="1">
          <mxGeometry x="4520" y="600" width="320" height="440" as="geometry" />
        </mxCell>
        <mxCell id="Bub89V-sbVYf07L1PBp1-351" value="if next_state = idle:&lt;br&gt;&lt;span style=&quot;white-space: pre;&quot;&gt;&#x9;&lt;/span&gt;--&amp;gt; waddr&lt;br&gt;else if next_state = s1:&lt;br&gt;&lt;span style=&quot;white-space: pre;&quot;&gt;&#x9;&lt;/span&gt;--&amp;gt; &lt;font color=&quot;#0000ff&quot;&gt;haddr&lt;br&gt;&lt;/font&gt;else if next_state = s2:&lt;br&gt;&lt;span style=&quot;white-space: pre;&quot;&gt;&#x9;&lt;/span&gt;if single_flag:&lt;br&gt;&lt;span style=&quot;white-space: pre;&quot;&gt;&#x9;&lt;/span&gt;&lt;span style=&quot;white-space: pre;&quot;&gt;&#x9;&lt;/span&gt;--&amp;gt; waddr&lt;br&gt;&lt;span style=&quot;white-space: pre;&quot;&gt;&#x9;&lt;/span&gt;else if incr_flag | incr4_flag | incr8_flag | incr16_flag:&lt;br&gt;&lt;span style=&quot;white-space: pre;&quot;&gt;&#x9;&lt;/span&gt;&lt;span style=&quot;white-space: pre;&quot;&gt;&#x9;&lt;/span&gt;--&amp;gt; waddr + 0x1&lt;br&gt;&lt;span style=&quot;white-space: pre;&quot;&gt;&#x9;&lt;/span&gt;else if wrap4_flag:&lt;br&gt;&lt;span style=&quot;white-space: pre;&quot;&gt;&#x9;&lt;/span&gt;&lt;span style=&quot;white-space: pre;&quot;&gt;&#x9;&lt;/span&gt;if waddr &amp;lt; &lt;font color=&quot;#0000ff&quot;&gt;haddr&lt;/font&gt; + 0x3:&lt;br&gt;&lt;span style=&quot;white-space: pre;&quot;&gt;&#x9;&lt;/span&gt;&lt;span style=&quot;white-space: pre;&quot;&gt;&#x9;&lt;span style=&quot;white-space: pre;&quot;&gt;&#x9;&lt;/span&gt;--&amp;gt; waddr + 0x&lt;/span&gt;1&lt;br&gt;&lt;span style=&quot;white-space: pre;&quot;&gt;&#x9;&lt;/span&gt;&lt;span style=&quot;white-space: pre;&quot;&gt;&#x9;&lt;/span&gt;else:&lt;br&gt;&lt;span style=&quot;white-space: pre;&quot;&gt;&#x9;&lt;/span&gt;&lt;span style=&quot;white-space: pre;&quot;&gt;&#x9;&lt;/span&gt;&lt;span style=&quot;white-space: pre;&quot;&gt;&#x9;&lt;/span&gt;--&amp;gt; &lt;font color=&quot;#0000ff&quot;&gt;haddr&lt;/font&gt;&lt;br&gt;&lt;span style=&quot;white-space: pre;&quot;&gt;&#x9;&lt;/span&gt;else if wrap8_flag:&lt;br&gt;&lt;span style=&quot;white-space: pre;&quot;&gt;&#x9;&lt;/span&gt;&lt;span style=&quot;white-space: pre;&quot;&gt;&#x9;&lt;/span&gt;if waddr &amp;lt; &lt;font color=&quot;#0000ff&quot;&gt;haddr&lt;/font&gt; + 0x7&lt;br&gt;&lt;span style=&quot;white-space: pre;&quot;&gt;&#x9;&lt;/span&gt;&lt;span style=&quot;white-space: pre;&quot;&gt;&#x9;&lt;/span&gt;&lt;span style=&quot;white-space: pre;&quot;&gt;&#x9;&lt;/span&gt;--&amp;gt; waddr + 0x1&lt;br&gt;&lt;span style=&quot;white-space: pre;&quot;&gt;&#x9;&lt;/span&gt;&lt;span style=&quot;white-space: pre;&quot;&gt;&#x9;&lt;/span&gt;else:&lt;br&gt;&lt;span style=&quot;white-space: pre;&quot;&gt;&#x9;&lt;/span&gt;&lt;span style=&quot;white-space: pre;&quot;&gt;&#x9;&lt;/span&gt;&lt;span style=&quot;white-space: pre;&quot;&gt;&#x9;&lt;/span&gt;--&amp;gt; &lt;font color=&quot;#0000ff&quot;&gt;haddr&lt;/font&gt;&lt;br&gt;&lt;span style=&quot;white-space: pre;&quot;&gt;&#x9;&lt;/span&gt;else if wrap16_flag:&lt;br&gt;&lt;span style=&quot;white-space: pre;&quot;&gt;&#x9;&lt;/span&gt;&lt;span style=&quot;white-space: pre;&quot;&gt;&#x9;&lt;/span&gt;if waddr &amp;lt; &lt;font color=&quot;#0000ff&quot;&gt;haddr&lt;/font&gt; + 0xf&lt;br&gt;&lt;span style=&quot;white-space: pre;&quot;&gt;&#x9;&lt;/span&gt;&lt;span style=&quot;white-space: pre;&quot;&gt;&#x9;&lt;/span&gt;&lt;span style=&quot;white-space: pre;&quot;&gt;&#x9;&lt;/span&gt;--&amp;gt; waddr + 0x1&lt;br&gt;&lt;span style=&quot;white-space: pre;&quot;&gt;&#x9;&lt;/span&gt;&lt;span style=&quot;white-space: pre;&quot;&gt;&#x9;&lt;/span&gt;else:&lt;br&gt;&lt;span style=&quot;white-space: pre;&quot;&gt;&#x9;&lt;/span&gt;&lt;span style=&quot;white-space: pre;&quot;&gt;&#x9;&lt;/span&gt;&lt;span style=&quot;white-space: pre;&quot;&gt;&#x9;&lt;/span&gt;--&amp;gt; &lt;font color=&quot;#0000ff&quot;&gt;haddr&lt;/font&gt;&lt;br&gt;else if next_state = s3:&lt;br&gt;&lt;span style=&quot;white-space: pre;&quot;&gt;&#x9;&lt;/span&gt;--&amp;gt; waddr" style="align=left;strokeColor=none;fillColor=none;spacingLeft=4;fontSize=12;verticalAlign=top;resizable=0;rotatable=0;part=1;html=1;fontColor=#000000;" vertex="1" parent="Bub89V-sbVYf07L1PBp1-350">
          <mxGeometry y="50" width="320" height="390" as="geometry" />
        </mxCell>
        <mxCell id="Bub89V-sbVYf07L1PBp1-352" style="edgeStyle=orthogonalEdgeStyle;rounded=0;orthogonalLoop=1;jettySize=auto;html=1;exitX=0;exitY=0.75;exitDx=0;exitDy=0;exitPerimeter=0;startArrow=classic;startFill=1;endArrow=none;endFill=0;strokeColor=#0000FF;" edge="1" source="Bub89V-sbVYf07L1PBp1-356" parent="1">
          <mxGeometry relative="1" as="geometry">
            <mxPoint x="5180" y="1260.3333333333335" as="targetPoint" />
          </mxGeometry>
        </mxCell>
        <mxCell id="Bub89V-sbVYf07L1PBp1-353" value="&lt;font color=&quot;#0000ff&quot;&gt;hclk&lt;/font&gt;" style="edgeLabel;html=1;align=center;verticalAlign=middle;resizable=0;points=[];" vertex="1" connectable="0" parent="Bub89V-sbVYf07L1PBp1-352">
          <mxGeometry x="0.5624" y="1" relative="1" as="geometry">
            <mxPoint x="16" as="offset" />
          </mxGeometry>
        </mxCell>
        <mxCell id="Bub89V-sbVYf07L1PBp1-354" style="edgeStyle=orthogonalEdgeStyle;rounded=0;orthogonalLoop=1;jettySize=auto;html=1;exitX=1;exitY=0.25;exitDx=0;exitDy=0;exitPerimeter=0;strokeColor=#000000;" edge="1" source="Bub89V-sbVYf07L1PBp1-356" parent="1">
          <mxGeometry relative="1" as="geometry">
            <mxPoint x="5480" y="1220" as="targetPoint" />
          </mxGeometry>
        </mxCell>
        <mxCell id="Bub89V-sbVYf07L1PBp1-355" value="raddr[4:0]" style="edgeLabel;html=1;align=center;verticalAlign=middle;resizable=0;points=[];" vertex="1" connectable="0" parent="Bub89V-sbVYf07L1PBp1-354">
          <mxGeometry x="0.2239" relative="1" as="geometry">
            <mxPoint x="-14" as="offset" />
          </mxGeometry>
        </mxCell>
        <mxCell id="Bub89V-sbVYf07L1PBp1-356" value="" style="verticalLabelPosition=bottom;shadow=0;dashed=0;align=center;html=1;verticalAlign=top;shape=mxgraph.electrical.logic_gates.d_type_flip-flop;points=[[0,0.25,0,0,0],[0,0.75,0,0,0],[1,0.25,0,0,0],[1,0.75,0,0,0]];" vertex="1" parent="1">
          <mxGeometry x="5260" y="1200" width="100" height="80" as="geometry" />
        </mxCell>
        <mxCell id="Bub89V-sbVYf07L1PBp1-357" style="edgeStyle=orthogonalEdgeStyle;rounded=0;orthogonalLoop=1;jettySize=auto;html=1;exitX=0;exitY=0.2;exitDx=0;exitDy=3;exitPerimeter=0;endArrow=none;endFill=0;startArrow=classic;startFill=1;" edge="1" source="Bub89V-sbVYf07L1PBp1-360" parent="1">
          <mxGeometry relative="1" as="geometry">
            <mxPoint x="5040" y="1179.076923076923" as="targetPoint" />
          </mxGeometry>
        </mxCell>
        <mxCell id="Bub89V-sbVYf07L1PBp1-358" value="1&#39;b0" style="edgeLabel;html=1;align=center;verticalAlign=middle;resizable=0;points=[];" vertex="1" connectable="0" parent="Bub89V-sbVYf07L1PBp1-357">
          <mxGeometry x="0.6856" y="-1" relative="1" as="geometry">
            <mxPoint x="-4" as="offset" />
          </mxGeometry>
        </mxCell>
        <mxCell id="Bub89V-sbVYf07L1PBp1-359" style="edgeStyle=orthogonalEdgeStyle;rounded=0;orthogonalLoop=1;jettySize=auto;html=1;exitX=0;exitY=0.6000000000000001;exitDx=0;exitDy=3;exitPerimeter=0;startArrow=classic;startFill=1;endArrow=none;endFill=0;dashed=1;dashPattern=1 4;" edge="1" source="Bub89V-sbVYf07L1PBp1-360" parent="1">
          <mxGeometry relative="1" as="geometry">
            <mxPoint x="4840" y="1211" as="targetPoint" />
          </mxGeometry>
        </mxCell>
        <mxCell id="Bub89V-sbVYf07L1PBp1-360" value="" style="shadow=0;dashed=0;align=center;html=1;strokeWidth=1;shape=mxgraph.electrical.abstract.mux2;whiteSpace=wrap;flipV=0;" vertex="1" parent="1">
          <mxGeometry x="5100" y="1160" width="53.33" height="80" as="geometry" />
        </mxCell>
        <mxCell id="Bub89V-sbVYf07L1PBp1-361" style="edgeStyle=orthogonalEdgeStyle;rounded=0;orthogonalLoop=1;jettySize=auto;html=1;exitX=1;exitY=0.5;exitDx=0;exitDy=-5;exitPerimeter=0;entryX=0;entryY=0.25;entryDx=0;entryDy=0;entryPerimeter=0;" edge="1" source="Bub89V-sbVYf07L1PBp1-360" target="Bub89V-sbVYf07L1PBp1-356" parent="1">
          <mxGeometry relative="1" as="geometry" />
        </mxCell>
        <mxCell id="Bub89V-sbVYf07L1PBp1-362" style="edgeStyle=orthogonalEdgeStyle;rounded=0;orthogonalLoop=1;jettySize=auto;html=1;exitX=0;exitY=0.5;exitDx=0;exitDy=0;endArrow=none;endFill=0;startArrow=classic;startFill=1;strokeColor=#0000FF;" edge="1" source="Bub89V-sbVYf07L1PBp1-364" parent="1">
          <mxGeometry relative="1" as="geometry">
            <mxPoint x="4980" y="1259.8461538461538" as="targetPoint" />
          </mxGeometry>
        </mxCell>
        <mxCell id="Bub89V-sbVYf07L1PBp1-363" value="&lt;font color=&quot;#0000ff&quot;&gt;hresetn&lt;/font&gt;" style="edgeLabel;html=1;align=center;verticalAlign=middle;resizable=0;points=[];" vertex="1" connectable="0" parent="Bub89V-sbVYf07L1PBp1-362">
          <mxGeometry x="0.7949" y="-1" relative="1" as="geometry">
            <mxPoint as="offset" />
          </mxGeometry>
        </mxCell>
        <mxCell id="Bub89V-sbVYf07L1PBp1-364" value="" style="verticalLabelPosition=bottom;shadow=0;dashed=0;align=center;html=1;verticalAlign=top;shape=mxgraph.electrical.logic_gates.buffer2;" vertex="1" parent="1">
          <mxGeometry x="5020" y="1240" width="66.67" height="40" as="geometry" />
        </mxCell>
        <mxCell id="Bub89V-sbVYf07L1PBp1-365" style="edgeStyle=orthogonalEdgeStyle;rounded=0;orthogonalLoop=1;jettySize=auto;html=1;exitX=1;exitY=0.5;exitDx=0;exitDy=0;entryX=0.3124882805175323;entryY=1;entryDx=10;entryDy=0;entryPerimeter=0;" edge="1" source="Bub89V-sbVYf07L1PBp1-364" target="Bub89V-sbVYf07L1PBp1-360" parent="1">
          <mxGeometry relative="1" as="geometry" />
        </mxCell>
        <mxCell id="Bub89V-sbVYf07L1PBp1-366" value="" style="verticalLabelPosition=bottom;shadow=0;dashed=0;align=center;html=1;verticalAlign=top;shape=mxgraph.electrical.logic_gates.inverting_contact;" vertex="1" parent="1">
          <mxGeometry x="5072" y="1255" width="10" height="10" as="geometry" />
        </mxCell>
        <mxCell id="Bub89V-sbVYf07L1PBp1-367" value="temp_raddr" style="swimlane;childLayout=stackLayout;horizontal=1;startSize=50;horizontalStack=0;rounded=1;fontSize=14;fontStyle=0;strokeWidth=2;resizeParent=0;resizeLast=1;shadow=0;dashed=0;align=center;arcSize=4;whiteSpace=wrap;html=1;fontColor=#000000;" vertex="1" parent="1">
          <mxGeometry x="4520" y="1120" width="320" height="440" as="geometry" />
        </mxCell>
        <mxCell id="Bub89V-sbVYf07L1PBp1-368" value="if next_state = idle:&lt;br&gt;&lt;span style=&quot;white-space: pre;&quot;&gt;&#x9;&lt;/span&gt;--&amp;gt; raddr&lt;br&gt;else if next_state = s1:&lt;br&gt;&lt;span style=&quot;white-space: pre;&quot;&gt;&#x9;&lt;/span&gt;--&amp;gt; &lt;font color=&quot;#0000ff&quot;&gt;haddr&lt;br&gt;&lt;/font&gt;else if next_state = s2:&lt;br&gt;&lt;span style=&quot;white-space: pre;&quot;&gt;&#x9;&lt;/span&gt;--&amp;gt; raddr&lt;br&gt;else if next_state = s3:&lt;br&gt;&lt;span style=&quot;white-space: pre;&quot;&gt;&#x9;&lt;/span&gt;if single_flag:&lt;br&gt;&lt;span style=&quot;white-space: pre;&quot;&gt;&#x9;&lt;/span&gt;&lt;span style=&quot;white-space: pre;&quot;&gt;&#x9;&lt;/span&gt;--&amp;gt; raddr&lt;br&gt;&lt;span style=&quot;white-space: pre;&quot;&gt;&#x9;&lt;/span&gt;else if incr_flag | incr4_flag | incr8_flag | incr16_flag:&lt;br&gt;&lt;span style=&quot;white-space: pre;&quot;&gt;&#x9;&lt;/span&gt;&lt;span style=&quot;white-space: pre;&quot;&gt;&#x9;&lt;/span&gt;--&amp;gt; raddr + 0x1&lt;br&gt;&lt;span style=&quot;white-space: pre;&quot;&gt;&#x9;&lt;/span&gt;else if wrap4_flag:&lt;br&gt;&lt;span style=&quot;white-space: pre;&quot;&gt;&#x9;&lt;/span&gt;&lt;span style=&quot;white-space: pre;&quot;&gt;&#x9;&lt;/span&gt;if raddr &amp;lt; &lt;font color=&quot;#0000ff&quot;&gt;haddr&lt;/font&gt; + 0x3:&lt;br&gt;&lt;span style=&quot;white-space: pre;&quot;&gt;&#x9;&lt;/span&gt;&lt;span style=&quot;white-space: pre;&quot;&gt;&#x9;&lt;/span&gt;&lt;span style=&quot;white-space: pre;&quot;&gt;&#x9;&lt;/span&gt;--&amp;gt; raddr + 0x1&lt;br&gt;&lt;span style=&quot;white-space: pre;&quot;&gt;&#x9;&lt;/span&gt;&lt;span style=&quot;white-space: pre;&quot;&gt;&#x9;&lt;/span&gt;else:&lt;br&gt;&lt;span style=&quot;white-space: pre;&quot;&gt;&#x9;&lt;/span&gt;&lt;span style=&quot;white-space: pre;&quot;&gt;&#x9;&lt;/span&gt;&lt;span style=&quot;white-space: pre;&quot;&gt;&#x9;&lt;/span&gt;--&amp;gt; &lt;font color=&quot;#0000ff&quot;&gt;haddr&lt;/font&gt;&lt;br&gt;&lt;span style=&quot;white-space: pre;&quot;&gt;&#x9;&lt;/span&gt;else if wrap8_flag:&lt;br&gt;&lt;span style=&quot;white-space: pre;&quot;&gt;&#x9;&lt;/span&gt;&lt;span style=&quot;white-space: pre;&quot;&gt;&#x9;&lt;/span&gt;if raddr &amp;lt; &lt;font color=&quot;#0000ff&quot;&gt;haddr&lt;/font&gt; + 0x7:&lt;br&gt;&lt;span style=&quot;white-space: pre;&quot;&gt;&#x9;&lt;/span&gt;&lt;span style=&quot;white-space: pre;&quot;&gt;&#x9;&lt;/span&gt;&lt;span style=&quot;white-space: pre;&quot;&gt;&#x9;&lt;/span&gt;--&amp;gt; radd + 0x1&lt;br&gt;&lt;span style=&quot;white-space: pre;&quot;&gt;&#x9;&lt;/span&gt;&lt;span style=&quot;white-space: pre;&quot;&gt;&#x9;&lt;/span&gt;else:&lt;br&gt;&lt;span style=&quot;white-space: pre;&quot;&gt;&#x9;&lt;/span&gt;&lt;span style=&quot;white-space: pre;&quot;&gt;&#x9;&lt;/span&gt;&lt;span style=&quot;white-space: pre;&quot;&gt;&#x9;&lt;/span&gt;--&amp;gt; &lt;font color=&quot;#0000ff&quot;&gt;haddr&lt;/font&gt;&lt;br&gt;&lt;span style=&quot;white-space: pre;&quot;&gt;&#x9;&lt;/span&gt;else if wrap16_flag:&lt;br&gt;&lt;span style=&quot;white-space: pre;&quot;&gt;&#x9;&lt;/span&gt;&lt;span style=&quot;white-space: pre;&quot;&gt;&#x9;&lt;/span&gt;if raddr &amp;lt; &lt;font color=&quot;#0000ff&quot;&gt;haddr&lt;/font&gt; + 0xf:&lt;br&gt;&lt;span style=&quot;white-space: pre;&quot;&gt;&#x9;&lt;/span&gt;&lt;span style=&quot;white-space: pre;&quot;&gt;&#x9;&lt;/span&gt;&lt;span style=&quot;white-space: pre;&quot;&gt;&#x9;&lt;/span&gt;--&amp;gt; raddr + 0x1&lt;br&gt;&lt;span style=&quot;white-space: pre;&quot;&gt;&#x9;&lt;/span&gt;&lt;span style=&quot;white-space: pre;&quot;&gt;&#x9;&lt;/span&gt;else:&lt;br&gt;&lt;span style=&quot;white-space: pre;&quot;&gt;&#x9;&lt;/span&gt;&lt;span style=&quot;white-space: pre;&quot;&gt;&#x9;&lt;/span&gt;&lt;span style=&quot;white-space: pre;&quot;&gt;&#x9;&lt;/span&gt;--&amp;gt; &lt;font color=&quot;#0000ff&quot;&gt;haddr&lt;/font&gt;" style="align=left;strokeColor=none;fillColor=none;spacingLeft=4;fontSize=12;verticalAlign=top;resizable=0;rotatable=0;part=1;html=1;fontColor=#000000;" vertex="1" parent="Bub89V-sbVYf07L1PBp1-367">
          <mxGeometry y="50" width="320" height="390" as="geometry" />
        </mxCell>
        <mxCell id="Bub89V-sbVYf07L1PBp1-406" value="" style="group" vertex="1" connectable="0" parent="1">
          <mxGeometry x="4760" y="1680" width="160" height="200" as="geometry" />
        </mxCell>
        <mxCell id="Bub89V-sbVYf07L1PBp1-385" value="" style="rounded=0;whiteSpace=wrap;html=1;" vertex="1" parent="Bub89V-sbVYf07L1PBp1-406">
          <mxGeometry y="20" width="160" height="20" as="geometry" />
        </mxCell>
        <mxCell id="Bub89V-sbVYf07L1PBp1-386" value="" style="rounded=0;whiteSpace=wrap;html=1;" vertex="1" parent="Bub89V-sbVYf07L1PBp1-406">
          <mxGeometry y="40" width="160" height="20" as="geometry" />
        </mxCell>
        <mxCell id="Bub89V-sbVYf07L1PBp1-387" value="" style="rounded=0;whiteSpace=wrap;html=1;" vertex="1" parent="Bub89V-sbVYf07L1PBp1-406">
          <mxGeometry y="60" width="160" height="20" as="geometry" />
        </mxCell>
        <mxCell id="Bub89V-sbVYf07L1PBp1-388" value="" style="rounded=0;whiteSpace=wrap;html=1;" vertex="1" parent="Bub89V-sbVYf07L1PBp1-406">
          <mxGeometry y="80" width="160" height="20" as="geometry" />
        </mxCell>
        <mxCell id="Bub89V-sbVYf07L1PBp1-389" value="" style="rounded=0;whiteSpace=wrap;html=1;" vertex="1" parent="Bub89V-sbVYf07L1PBp1-406">
          <mxGeometry y="100" width="160" height="20" as="geometry" />
        </mxCell>
        <mxCell id="Bub89V-sbVYf07L1PBp1-390" value="" style="rounded=0;whiteSpace=wrap;html=1;" vertex="1" parent="Bub89V-sbVYf07L1PBp1-406">
          <mxGeometry y="120" width="160" height="20" as="geometry" />
        </mxCell>
        <mxCell id="Bub89V-sbVYf07L1PBp1-391" value="" style="rounded=0;whiteSpace=wrap;html=1;" vertex="1" parent="Bub89V-sbVYf07L1PBp1-406">
          <mxGeometry y="140" width="160" height="20" as="geometry" />
        </mxCell>
        <mxCell id="Bub89V-sbVYf07L1PBp1-392" value="" style="rounded=0;whiteSpace=wrap;html=1;" vertex="1" parent="Bub89V-sbVYf07L1PBp1-406">
          <mxGeometry y="160" width="160" height="20" as="geometry" />
        </mxCell>
        <mxCell id="Bub89V-sbVYf07L1PBp1-393" value="mem_arr[31:0][31:0]" style="text;html=1;strokeColor=none;fillColor=none;align=center;verticalAlign=middle;whiteSpace=wrap;rounded=0;" vertex="1" parent="Bub89V-sbVYf07L1PBp1-406">
          <mxGeometry width="160" height="20" as="geometry" />
        </mxCell>
        <mxCell id="Bub89V-sbVYf07L1PBp1-405" value="" style="rounded=0;whiteSpace=wrap;html=1;" vertex="1" parent="Bub89V-sbVYf07L1PBp1-406">
          <mxGeometry y="180" width="160" height="20" as="geometry" />
        </mxCell>
        <mxCell id="Bub89V-sbVYf07L1PBp1-407" style="edgeStyle=orthogonalEdgeStyle;rounded=0;orthogonalLoop=1;jettySize=auto;html=1;exitX=0;exitY=0.75;exitDx=0;exitDy=0;exitPerimeter=0;startArrow=classic;startFill=1;endArrow=none;endFill=0;strokeColor=#0000FF;" edge="1" source="Bub89V-sbVYf07L1PBp1-411" parent="1">
          <mxGeometry relative="1" as="geometry">
            <mxPoint x="5380" y="1820.3333333333335" as="targetPoint" />
          </mxGeometry>
        </mxCell>
        <mxCell id="Bub89V-sbVYf07L1PBp1-408" value="&lt;font color=&quot;#0000ff&quot;&gt;hclk&lt;/font&gt;" style="edgeLabel;html=1;align=center;verticalAlign=middle;resizable=0;points=[];" vertex="1" connectable="0" parent="Bub89V-sbVYf07L1PBp1-407">
          <mxGeometry x="0.5624" y="1" relative="1" as="geometry">
            <mxPoint x="16" as="offset" />
          </mxGeometry>
        </mxCell>
        <mxCell id="Bub89V-sbVYf07L1PBp1-409" style="edgeStyle=orthogonalEdgeStyle;rounded=0;orthogonalLoop=1;jettySize=auto;html=1;exitX=1;exitY=0.25;exitDx=0;exitDy=0;exitPerimeter=0;strokeColor=#FF0000;" edge="1" source="Bub89V-sbVYf07L1PBp1-411" parent="1">
          <mxGeometry relative="1" as="geometry">
            <mxPoint x="5680" y="1780" as="targetPoint" />
          </mxGeometry>
        </mxCell>
        <mxCell id="Bub89V-sbVYf07L1PBp1-410" value="&lt;font color=&quot;#ff0000&quot;&gt;hrdata[31:0]&lt;/font&gt;" style="edgeLabel;html=1;align=center;verticalAlign=middle;resizable=0;points=[];" vertex="1" connectable="0" parent="Bub89V-sbVYf07L1PBp1-409">
          <mxGeometry x="0.2239" relative="1" as="geometry">
            <mxPoint x="-1" as="offset" />
          </mxGeometry>
        </mxCell>
        <mxCell id="Bub89V-sbVYf07L1PBp1-411" value="" style="verticalLabelPosition=bottom;shadow=0;dashed=0;align=center;html=1;verticalAlign=top;shape=mxgraph.electrical.logic_gates.d_type_flip-flop;points=[[0,0.25,0,0,0],[0,0.75,0,0,0],[1,0.25,0,0,0],[1,0.75,0,0,0]];" vertex="1" parent="1">
          <mxGeometry x="5460" y="1760" width="100" height="80" as="geometry" />
        </mxCell>
        <mxCell id="Bub89V-sbVYf07L1PBp1-412" style="edgeStyle=orthogonalEdgeStyle;rounded=0;orthogonalLoop=1;jettySize=auto;html=1;exitX=0;exitY=0.2;exitDx=0;exitDy=3;exitPerimeter=0;endArrow=none;endFill=0;startArrow=classic;startFill=1;" edge="1" source="Bub89V-sbVYf07L1PBp1-414" parent="1">
          <mxGeometry relative="1" as="geometry">
            <mxPoint x="5240" y="1739.076923076923" as="targetPoint" />
          </mxGeometry>
        </mxCell>
        <mxCell id="Bub89V-sbVYf07L1PBp1-413" value="32&#39;h0" style="edgeLabel;html=1;align=center;verticalAlign=middle;resizable=0;points=[];" vertex="1" connectable="0" parent="Bub89V-sbVYf07L1PBp1-412">
          <mxGeometry x="0.6856" y="-1" relative="1" as="geometry">
            <mxPoint x="-4" as="offset" />
          </mxGeometry>
        </mxCell>
        <mxCell id="Bub89V-sbVYf07L1PBp1-414" value="" style="shadow=0;dashed=0;align=center;html=1;strokeWidth=1;shape=mxgraph.electrical.abstract.mux2;whiteSpace=wrap;flipV=0;" vertex="1" parent="1">
          <mxGeometry x="5300" y="1720" width="53.33" height="80" as="geometry" />
        </mxCell>
        <mxCell id="Bub89V-sbVYf07L1PBp1-415" style="edgeStyle=orthogonalEdgeStyle;rounded=0;orthogonalLoop=1;jettySize=auto;html=1;exitX=1;exitY=0.5;exitDx=0;exitDy=-5;exitPerimeter=0;entryX=0;entryY=0.25;entryDx=0;entryDy=0;entryPerimeter=0;" edge="1" source="Bub89V-sbVYf07L1PBp1-414" target="Bub89V-sbVYf07L1PBp1-411" parent="1">
          <mxGeometry relative="1" as="geometry" />
        </mxCell>
        <mxCell id="Bub89V-sbVYf07L1PBp1-416" style="edgeStyle=orthogonalEdgeStyle;rounded=0;orthogonalLoop=1;jettySize=auto;html=1;exitX=0;exitY=0.5;exitDx=0;exitDy=0;endArrow=none;endFill=0;startArrow=classic;startFill=1;strokeColor=#0000FF;" edge="1" source="Bub89V-sbVYf07L1PBp1-418" parent="1">
          <mxGeometry relative="1" as="geometry">
            <mxPoint x="5180" y="1819.8461538461538" as="targetPoint" />
          </mxGeometry>
        </mxCell>
        <mxCell id="Bub89V-sbVYf07L1PBp1-417" value="&lt;font color=&quot;#0000ff&quot;&gt;hresetn&lt;/font&gt;" style="edgeLabel;html=1;align=center;verticalAlign=middle;resizable=0;points=[];" vertex="1" connectable="0" parent="Bub89V-sbVYf07L1PBp1-416">
          <mxGeometry x="0.7949" y="-1" relative="1" as="geometry">
            <mxPoint as="offset" />
          </mxGeometry>
        </mxCell>
        <mxCell id="Bub89V-sbVYf07L1PBp1-418" value="" style="verticalLabelPosition=bottom;shadow=0;dashed=0;align=center;html=1;verticalAlign=top;shape=mxgraph.electrical.logic_gates.buffer2;" vertex="1" parent="1">
          <mxGeometry x="5220" y="1800" width="66.67" height="40" as="geometry" />
        </mxCell>
        <mxCell id="Bub89V-sbVYf07L1PBp1-419" style="edgeStyle=orthogonalEdgeStyle;rounded=0;orthogonalLoop=1;jettySize=auto;html=1;exitX=1;exitY=0.5;exitDx=0;exitDy=0;entryX=0.3124882805175323;entryY=1;entryDx=10;entryDy=0;entryPerimeter=0;" edge="1" source="Bub89V-sbVYf07L1PBp1-418" target="Bub89V-sbVYf07L1PBp1-414" parent="1">
          <mxGeometry relative="1" as="geometry" />
        </mxCell>
        <mxCell id="Bub89V-sbVYf07L1PBp1-420" value="" style="verticalLabelPosition=bottom;shadow=0;dashed=0;align=center;html=1;verticalAlign=top;shape=mxgraph.electrical.logic_gates.inverting_contact;" vertex="1" parent="1">
          <mxGeometry x="5272" y="1815" width="10" height="10" as="geometry" />
        </mxCell>
        <mxCell id="Bub89V-sbVYf07L1PBp1-429" style="edgeStyle=orthogonalEdgeStyle;rounded=0;orthogonalLoop=1;jettySize=auto;html=1;exitX=0;exitY=0.6000000000000001;exitDx=0;exitDy=3;exitPerimeter=0;endArrow=none;endFill=0;startArrow=classic;startFill=1;" edge="1" parent="1" source="Bub89V-sbVYf07L1PBp1-421">
          <mxGeometry relative="1" as="geometry">
            <mxPoint x="4920" y="1749.1428571428569" as="targetPoint" />
          </mxGeometry>
        </mxCell>
        <mxCell id="Bub89V-sbVYf07L1PBp1-431" value="mem_arr[raddr]" style="edgeLabel;html=1;align=center;verticalAlign=middle;resizable=0;points=[];" vertex="1" connectable="0" parent="Bub89V-sbVYf07L1PBp1-429">
          <mxGeometry x="0.1186" y="1" relative="1" as="geometry">
            <mxPoint y="-11" as="offset" />
          </mxGeometry>
        </mxCell>
        <mxCell id="Bub89V-sbVYf07L1PBp1-421" value="" style="shadow=0;dashed=0;align=center;html=1;strokeWidth=1;shape=mxgraph.electrical.abstract.mux2;whiteSpace=wrap;flipV=1;" vertex="1" parent="1">
          <mxGeometry x="5120" y="1720" width="53.33" height="80" as="geometry" />
        </mxCell>
        <mxCell id="Bub89V-sbVYf07L1PBp1-422" style="edgeStyle=orthogonalEdgeStyle;rounded=0;orthogonalLoop=1;jettySize=auto;html=1;exitX=1;exitY=0.5;exitDx=0;exitDy=-5;exitPerimeter=0;entryX=0;entryY=0.6000000000000001;entryDx=0;entryDy=3;entryPerimeter=0;" edge="1" parent="1" source="Bub89V-sbVYf07L1PBp1-421" target="Bub89V-sbVYf07L1PBp1-414">
          <mxGeometry relative="1" as="geometry" />
        </mxCell>
        <mxCell id="Bub89V-sbVYf07L1PBp1-425" style="edgeStyle=orthogonalEdgeStyle;rounded=0;orthogonalLoop=1;jettySize=auto;html=1;exitX=0;exitY=0.75;exitDx=0;exitDy=0;exitPerimeter=0;startArrow=classic;startFill=1;endArrow=none;endFill=0;" edge="1" parent="1" source="Bub89V-sbVYf07L1PBp1-423">
          <mxGeometry relative="1" as="geometry">
            <mxPoint x="5000" y="1709.888888888889" as="targetPoint" />
          </mxGeometry>
        </mxCell>
        <mxCell id="Bub89V-sbVYf07L1PBp1-428" value="s3" style="edgeLabel;html=1;align=center;verticalAlign=middle;resizable=0;points=[];" vertex="1" connectable="0" parent="Bub89V-sbVYf07L1PBp1-425">
          <mxGeometry x="0.7558" relative="1" as="geometry">
            <mxPoint x="-4" as="offset" />
          </mxGeometry>
        </mxCell>
        <mxCell id="Bub89V-sbVYf07L1PBp1-426" style="edgeStyle=orthogonalEdgeStyle;rounded=0;orthogonalLoop=1;jettySize=auto;html=1;exitX=0;exitY=0.25;exitDx=0;exitDy=0;exitPerimeter=0;endArrow=none;endFill=0;startArrow=classic;startFill=1;" edge="1" parent="1" source="Bub89V-sbVYf07L1PBp1-423">
          <mxGeometry relative="1" as="geometry">
            <mxPoint x="5000" y="1689.888888888889" as="targetPoint" />
          </mxGeometry>
        </mxCell>
        <mxCell id="Bub89V-sbVYf07L1PBp1-427" value="next_state" style="edgeLabel;html=1;align=center;verticalAlign=middle;resizable=0;points=[];" vertex="1" connectable="0" parent="Bub89V-sbVYf07L1PBp1-426">
          <mxGeometry x="0.7661" relative="1" as="geometry">
            <mxPoint as="offset" />
          </mxGeometry>
        </mxCell>
        <mxCell id="Bub89V-sbVYf07L1PBp1-423" value="" style="verticalLabelPosition=bottom;shadow=0;dashed=0;align=center;html=1;verticalAlign=top;shape=mxgraph.electrical.logic_gates.logic_gate;operation=xor;negating=1;negSize=0.15;" vertex="1" parent="1">
          <mxGeometry x="5053.33" y="1680" width="66.67" height="40" as="geometry" />
        </mxCell>
        <mxCell id="Bub89V-sbVYf07L1PBp1-424" style="edgeStyle=orthogonalEdgeStyle;rounded=0;orthogonalLoop=1;jettySize=auto;html=1;exitX=1;exitY=0.5;exitDx=0;exitDy=0;exitPerimeter=0;entryX=0.31248828051753236;entryY=1;entryDx=10;entryDy=0;entryPerimeter=0;" edge="1" parent="1" source="Bub89V-sbVYf07L1PBp1-423" target="Bub89V-sbVYf07L1PBp1-421">
          <mxGeometry relative="1" as="geometry" />
        </mxCell>
        <mxCell id="Bub89V-sbVYf07L1PBp1-432" style="edgeStyle=orthogonalEdgeStyle;rounded=0;orthogonalLoop=1;jettySize=auto;html=1;exitX=1;exitY=0.25;exitDx=0;exitDy=0;exitPerimeter=0;entryX=0;entryY=0.2;entryDx=0;entryDy=3;entryPerimeter=0;strokeColor=#FF0000;" edge="1" parent="1" source="Bub89V-sbVYf07L1PBp1-411" target="Bub89V-sbVYf07L1PBp1-421">
          <mxGeometry relative="1" as="geometry">
            <Array as="points">
              <mxPoint x="5580" y="1780" />
              <mxPoint x="5580" y="1880" />
              <mxPoint x="5100" y="1880" />
              <mxPoint x="5100" y="1781" />
            </Array>
          </mxGeometry>
        </mxCell>
        <mxCell id="Bub89V-sbVYf07L1PBp1-433" value="" style="verticalLabelPosition=bottom;shadow=0;dashed=0;align=center;html=1;verticalAlign=top;shape=mxgraph.electrical.logic_gates.inverting_contact;fillColor=#000000;strokeColor=none;" vertex="1" parent="1">
          <mxGeometry x="5575" y="1775" width="10" height="10" as="geometry" />
        </mxCell>
        <mxCell id="Bub89V-sbVYf07L1PBp1-443" style="edgeStyle=orthogonalEdgeStyle;rounded=0;orthogonalLoop=1;jettySize=auto;html=1;exitX=1;exitY=0.5;exitDx=0;exitDy=-5;exitPerimeter=0;entryX=0;entryY=0.25;entryDx=0;entryDy=0;" edge="1" parent="1" source="Bub89V-sbVYf07L1PBp1-436" target="Bub89V-sbVYf07L1PBp1-388">
          <mxGeometry relative="1" as="geometry" />
        </mxCell>
        <mxCell id="Bub89V-sbVYf07L1PBp1-444" style="edgeStyle=orthogonalEdgeStyle;rounded=0;orthogonalLoop=1;jettySize=auto;html=1;exitX=0;exitY=0.6000000000000001;exitDx=0;exitDy=3;exitPerimeter=0;endArrow=none;endFill=0;startArrow=classic;startFill=1;" edge="1" parent="1" source="Bub89V-sbVYf07L1PBp1-436">
          <mxGeometry relative="1" as="geometry">
            <mxPoint x="4520" y="1749.1999999999998" as="targetPoint" />
          </mxGeometry>
        </mxCell>
        <mxCell id="Bub89V-sbVYf07L1PBp1-445" value="&lt;font color=&quot;#0000ff&quot;&gt;hwdata[31:0]&lt;/font&gt;" style="edgeLabel;html=1;align=center;verticalAlign=middle;resizable=0;points=[];" vertex="1" connectable="0" parent="Bub89V-sbVYf07L1PBp1-444">
          <mxGeometry x="0.3593" relative="1" as="geometry">
            <mxPoint x="-7" as="offset" />
          </mxGeometry>
        </mxCell>
        <mxCell id="Bub89V-sbVYf07L1PBp1-446" style="edgeStyle=orthogonalEdgeStyle;rounded=0;orthogonalLoop=1;jettySize=auto;html=1;exitX=0;exitY=0.2;exitDx=0;exitDy=3;exitPerimeter=0;endArrow=none;endFill=0;startArrow=classic;startFill=1;" edge="1" parent="1" source="Bub89V-sbVYf07L1PBp1-436">
          <mxGeometry relative="1" as="geometry">
            <mxPoint x="4580" y="1781.1999999999998" as="targetPoint" />
          </mxGeometry>
        </mxCell>
        <mxCell id="Bub89V-sbVYf07L1PBp1-447" value="&lt;font color=&quot;#6600cc&quot;&gt;not_change&lt;/font&gt;" style="edgeLabel;html=1;align=center;verticalAlign=middle;resizable=0;points=[];" vertex="1" connectable="0" parent="Bub89V-sbVYf07L1PBp1-446">
          <mxGeometry x="0.781" y="-1" relative="1" as="geometry">
            <mxPoint x="-5" as="offset" />
          </mxGeometry>
        </mxCell>
        <mxCell id="Bub89V-sbVYf07L1PBp1-436" value="" style="shadow=0;dashed=0;align=center;html=1;strokeWidth=1;shape=mxgraph.electrical.abstract.mux2;whiteSpace=wrap;flipV=1;" vertex="1" parent="1">
          <mxGeometry x="4626.67" y="1720" width="53.33" height="80" as="geometry" />
        </mxCell>
        <mxCell id="Bub89V-sbVYf07L1PBp1-437" style="edgeStyle=orthogonalEdgeStyle;rounded=0;orthogonalLoop=1;jettySize=auto;html=1;exitX=0;exitY=0.75;exitDx=0;exitDy=0;exitPerimeter=0;startArrow=classic;startFill=1;endArrow=none;endFill=0;" edge="1" source="Bub89V-sbVYf07L1PBp1-441" parent="1">
          <mxGeometry relative="1" as="geometry">
            <mxPoint x="4506.67" y="1709.888888888889" as="targetPoint" />
          </mxGeometry>
        </mxCell>
        <mxCell id="Bub89V-sbVYf07L1PBp1-438" value="s2" style="edgeLabel;html=1;align=center;verticalAlign=middle;resizable=0;points=[];" vertex="1" connectable="0" parent="Bub89V-sbVYf07L1PBp1-437">
          <mxGeometry x="0.7558" relative="1" as="geometry">
            <mxPoint x="-4" as="offset" />
          </mxGeometry>
        </mxCell>
        <mxCell id="Bub89V-sbVYf07L1PBp1-439" style="edgeStyle=orthogonalEdgeStyle;rounded=0;orthogonalLoop=1;jettySize=auto;html=1;exitX=0;exitY=0.25;exitDx=0;exitDy=0;exitPerimeter=0;endArrow=none;endFill=0;startArrow=classic;startFill=1;" edge="1" source="Bub89V-sbVYf07L1PBp1-441" parent="1">
          <mxGeometry relative="1" as="geometry">
            <mxPoint x="4506.67" y="1689.888888888889" as="targetPoint" />
          </mxGeometry>
        </mxCell>
        <mxCell id="Bub89V-sbVYf07L1PBp1-440" value="next_state" style="edgeLabel;html=1;align=center;verticalAlign=middle;resizable=0;points=[];" vertex="1" connectable="0" parent="Bub89V-sbVYf07L1PBp1-439">
          <mxGeometry x="0.7661" relative="1" as="geometry">
            <mxPoint as="offset" />
          </mxGeometry>
        </mxCell>
        <mxCell id="Bub89V-sbVYf07L1PBp1-441" value="" style="verticalLabelPosition=bottom;shadow=0;dashed=0;align=center;html=1;verticalAlign=top;shape=mxgraph.electrical.logic_gates.logic_gate;operation=xor;negating=1;negSize=0.15;" vertex="1" parent="1">
          <mxGeometry x="4560" y="1680" width="66.67" height="40" as="geometry" />
        </mxCell>
        <mxCell id="Bub89V-sbVYf07L1PBp1-442" style="edgeStyle=orthogonalEdgeStyle;rounded=0;orthogonalLoop=1;jettySize=auto;html=1;exitX=1;exitY=0.5;exitDx=0;exitDy=0;exitPerimeter=0;entryX=0.31248828051753236;entryY=1;entryDx=10;entryDy=0;entryPerimeter=0;" edge="1" source="Bub89V-sbVYf07L1PBp1-441" target="Bub89V-sbVYf07L1PBp1-436" parent="1">
          <mxGeometry relative="1" as="geometry" />
        </mxCell>
      </root>
    </mxGraphModel>
  </diagram>
  <diagram id="jIRq9k0lM26ry0uUiWuy" name="decoder">
    <mxGraphModel dx="479" dy="488" grid="1" gridSize="10" guides="1" tooltips="1" connect="1" arrows="1" fold="1" page="1" pageScale="1" pageWidth="850" pageHeight="1100" math="0" shadow="0">
      <root>
        <mxCell id="0" />
        <mxCell id="1" parent="0" />
        <mxCell id="4JVVpVUIlpoil2xhoo_Y-1" value="input" style="swimlane;childLayout=stackLayout;horizontal=1;startSize=50;horizontalStack=0;rounded=1;fontSize=14;fontStyle=0;strokeWidth=2;resizeParent=0;resizeLast=1;shadow=0;dashed=0;align=center;arcSize=4;whiteSpace=wrap;html=1;fontColor=#0000FF;" vertex="1" parent="1">
          <mxGeometry x="80" y="40" width="160" height="160" as="geometry" />
        </mxCell>
        <mxCell id="4JVVpVUIlpoil2xhoo_Y-2" value="sel[1:0]" style="align=left;strokeColor=none;fillColor=none;spacingLeft=4;fontSize=12;verticalAlign=top;resizable=0;rotatable=0;part=1;html=1;fontColor=#0000FF;" vertex="1" parent="4JVVpVUIlpoil2xhoo_Y-1">
          <mxGeometry y="50" width="160" height="110" as="geometry" />
        </mxCell>
        <mxCell id="4JVVpVUIlpoil2xhoo_Y-3" value="output" style="swimlane;childLayout=stackLayout;horizontal=1;startSize=50;horizontalStack=0;rounded=1;fontSize=14;fontStyle=0;strokeWidth=2;resizeParent=0;resizeLast=1;shadow=0;dashed=0;align=center;arcSize=4;whiteSpace=wrap;html=1;fontColor=#FF0000;" vertex="1" parent="1">
          <mxGeometry x="280" y="40" width="160" height="160" as="geometry" />
        </mxCell>
        <mxCell id="4JVVpVUIlpoil2xhoo_Y-4" value="hsel_1&lt;br&gt;hsel_2&lt;br&gt;hsel_3&lt;br&gt;hsel_4" style="align=left;strokeColor=none;fillColor=none;spacingLeft=4;fontSize=12;verticalAlign=top;resizable=0;rotatable=0;part=1;html=1;fontColor=#FF0000;" vertex="1" parent="4JVVpVUIlpoil2xhoo_Y-3">
          <mxGeometry y="50" width="160" height="110" as="geometry" />
        </mxCell>
        <mxCell id="4JVVpVUIlpoil2xhoo_Y-12" value="" style="shape=trapezoid;perimeter=trapezoidPerimeter;whiteSpace=wrap;html=1;fixedSize=1;rotation=-90;" vertex="1" parent="1">
          <mxGeometry x="250" y="330" width="120" height="60" as="geometry" />
        </mxCell>
        <mxCell id="4JVVpVUIlpoil2xhoo_Y-13" value="" style="endArrow=classic;html=1;rounded=0;strokeColor=#0000FF;" edge="1" parent="1">
          <mxGeometry width="50" height="50" relative="1" as="geometry">
            <mxPoint x="200" y="359.76" as="sourcePoint" />
            <mxPoint x="280" y="359.76" as="targetPoint" />
          </mxGeometry>
        </mxCell>
        <mxCell id="4JVVpVUIlpoil2xhoo_Y-14" value="" style="endArrow=classic;html=1;rounded=0;strokeColor=#FF0000;" edge="1" parent="1">
          <mxGeometry width="50" height="50" relative="1" as="geometry">
            <mxPoint x="340" y="320" as="sourcePoint" />
            <mxPoint x="420" y="320" as="targetPoint" />
          </mxGeometry>
        </mxCell>
        <mxCell id="4JVVpVUIlpoil2xhoo_Y-15" value="" style="endArrow=classic;html=1;rounded=0;strokeColor=#FF0000;" edge="1" parent="1">
          <mxGeometry width="50" height="50" relative="1" as="geometry">
            <mxPoint x="340" y="400" as="sourcePoint" />
            <mxPoint x="420" y="400" as="targetPoint" />
          </mxGeometry>
        </mxCell>
        <mxCell id="4JVVpVUIlpoil2xhoo_Y-16" value="" style="endArrow=classic;html=1;rounded=0;strokeColor=#FF0000;" edge="1" parent="1">
          <mxGeometry width="50" height="50" relative="1" as="geometry">
            <mxPoint x="340" y="374" as="sourcePoint" />
            <mxPoint x="420" y="374" as="targetPoint" />
          </mxGeometry>
        </mxCell>
        <mxCell id="4JVVpVUIlpoil2xhoo_Y-17" value="" style="endArrow=classic;html=1;rounded=0;strokeColor=#FF0000;" edge="1" parent="1">
          <mxGeometry width="50" height="50" relative="1" as="geometry">
            <mxPoint x="340" y="345" as="sourcePoint" />
            <mxPoint x="420" y="345" as="targetPoint" />
          </mxGeometry>
        </mxCell>
        <mxCell id="4JVVpVUIlpoil2xhoo_Y-18" value="&lt;font color=&quot;#0000ff&quot;&gt;sel[1:0]&lt;/font&gt;" style="text;html=1;strokeColor=none;fillColor=none;align=center;verticalAlign=middle;whiteSpace=wrap;rounded=0;" vertex="1" parent="1">
          <mxGeometry x="200" y="340" width="40" height="20" as="geometry" />
        </mxCell>
        <mxCell id="4JVVpVUIlpoil2xhoo_Y-19" value="&lt;font color=&quot;#ff0000&quot;&gt;hsel_1&lt;/font&gt;" style="text;html=1;strokeColor=none;fillColor=none;align=center;verticalAlign=middle;whiteSpace=wrap;rounded=0;" vertex="1" parent="1">
          <mxGeometry x="420" y="310" width="40" height="20" as="geometry" />
        </mxCell>
        <mxCell id="4JVVpVUIlpoil2xhoo_Y-21" value="&lt;font color=&quot;#ff0000&quot;&gt;hsel_2&lt;/font&gt;" style="text;html=1;strokeColor=none;fillColor=none;align=center;verticalAlign=middle;whiteSpace=wrap;rounded=0;" vertex="1" parent="1">
          <mxGeometry x="420" y="335" width="40" height="20" as="geometry" />
        </mxCell>
        <mxCell id="4JVVpVUIlpoil2xhoo_Y-22" value="&lt;font color=&quot;#ff0000&quot;&gt;hsel_3&lt;/font&gt;" style="text;html=1;strokeColor=none;fillColor=none;align=center;verticalAlign=middle;whiteSpace=wrap;rounded=0;" vertex="1" parent="1">
          <mxGeometry x="420" y="364" width="40" height="20" as="geometry" />
        </mxCell>
        <mxCell id="4JVVpVUIlpoil2xhoo_Y-23" value="&lt;font color=&quot;#ff0000&quot;&gt;hsel_4&lt;/font&gt;" style="text;html=1;strokeColor=none;fillColor=none;align=center;verticalAlign=middle;whiteSpace=wrap;rounded=0;" vertex="1" parent="1">
          <mxGeometry x="420" y="390" width="40" height="20" as="geometry" />
        </mxCell>
        <mxCell id="4JVVpVUIlpoil2xhoo_Y-24" value="00" style="text;html=1;strokeColor=none;fillColor=none;align=right;verticalAlign=middle;whiteSpace=wrap;rounded=0;" vertex="1" parent="1">
          <mxGeometry x="310" y="310" width="30" height="20" as="geometry" />
        </mxCell>
        <mxCell id="4JVVpVUIlpoil2xhoo_Y-25" value="01" style="text;html=1;strokeColor=none;fillColor=none;align=right;verticalAlign=middle;whiteSpace=wrap;rounded=0;" vertex="1" parent="1">
          <mxGeometry x="310" y="335" width="30" height="20" as="geometry" />
        </mxCell>
        <mxCell id="4JVVpVUIlpoil2xhoo_Y-26" value="10" style="text;html=1;strokeColor=none;fillColor=none;align=right;verticalAlign=middle;whiteSpace=wrap;rounded=0;" vertex="1" parent="1">
          <mxGeometry x="310" y="364" width="30" height="20" as="geometry" />
        </mxCell>
        <mxCell id="4JVVpVUIlpoil2xhoo_Y-27" value="11" style="text;html=1;strokeColor=none;fillColor=none;align=right;verticalAlign=middle;whiteSpace=wrap;rounded=0;" vertex="1" parent="1">
          <mxGeometry x="310" y="390" width="30" height="20" as="geometry" />
        </mxCell>
      </root>
    </mxGraphModel>
  </diagram>
  <diagram id="8OUTdWal_-JGo2xPFlu8" name="multiplexer">
    <mxGraphModel dx="1437" dy="1463" grid="1" gridSize="10" guides="1" tooltips="1" connect="1" arrows="1" fold="1" page="1" pageScale="1" pageWidth="850" pageHeight="1100" math="0" shadow="0">
      <root>
        <mxCell id="0" />
        <mxCell id="1" parent="0" />
        <mxCell id="MUuqvJUcsDrPny1VjROn-1" value="input" style="swimlane;childLayout=stackLayout;horizontal=1;startSize=50;horizontalStack=0;rounded=1;fontSize=14;fontStyle=0;strokeWidth=2;resizeParent=0;resizeLast=1;shadow=0;dashed=0;align=center;arcSize=4;whiteSpace=wrap;html=1;fontColor=#0000FF;" vertex="1" parent="1">
          <mxGeometry x="80" y="40" width="160" height="320" as="geometry" />
        </mxCell>
        <mxCell id="MUuqvJUcsDrPny1VjROn-2" value="hrdata_1[31:0]&lt;br&gt;hrdata_2[31:0]&lt;br&gt;hrdata_3[31:0]&lt;br&gt;hrdata_4[31:0]&lt;br&gt;&lt;br&gt;hreadyout_1&lt;br&gt;hreadyout_2&lt;br&gt;hreadyout_3&lt;br&gt;hreadyout_4&lt;br&gt;&lt;br&gt;hresp_1&lt;br&gt;hresp_2&lt;br&gt;hresp_3&lt;br&gt;hresp_4&lt;br&gt;&lt;br&gt;sel[1:0]" style="align=left;strokeColor=none;fillColor=none;spacingLeft=4;fontSize=12;verticalAlign=top;resizable=0;rotatable=0;part=1;html=1;fontColor=#0000FF;" vertex="1" parent="MUuqvJUcsDrPny1VjROn-1">
          <mxGeometry y="50" width="160" height="270" as="geometry" />
        </mxCell>
        <mxCell id="MUuqvJUcsDrPny1VjROn-3" value="output" style="swimlane;childLayout=stackLayout;horizontal=1;startSize=50;horizontalStack=0;rounded=1;fontSize=14;fontStyle=0;strokeWidth=2;resizeParent=0;resizeLast=1;shadow=0;dashed=0;align=center;arcSize=4;whiteSpace=wrap;html=1;fontColor=#FF0000;" vertex="1" parent="1">
          <mxGeometry x="280" y="40" width="160" height="160" as="geometry" />
        </mxCell>
        <mxCell id="MUuqvJUcsDrPny1VjROn-4" value="hrdata[31:0]&lt;br&gt;hreadyout&lt;br&gt;hresp" style="align=left;strokeColor=none;fillColor=none;spacingLeft=4;fontSize=12;verticalAlign=top;resizable=0;rotatable=0;part=1;html=1;fontColor=#FF0000;" vertex="1" parent="MUuqvJUcsDrPny1VjROn-3">
          <mxGeometry y="50" width="160" height="110" as="geometry" />
        </mxCell>
        <mxCell id="MUuqvJUcsDrPny1VjROn-11" style="edgeStyle=orthogonalEdgeStyle;rounded=0;orthogonalLoop=1;jettySize=auto;html=1;exitX=0;exitY=0.65;exitDx=0;exitDy=3;exitPerimeter=0;endArrow=none;endFill=0;startArrow=classic;startFill=1;" edge="1" parent="1" source="MUuqvJUcsDrPny1VjROn-5">
          <mxGeometry relative="1" as="geometry">
            <mxPoint x="240" y="519.1428571428571" as="targetPoint" />
          </mxGeometry>
        </mxCell>
        <mxCell id="MUuqvJUcsDrPny1VjROn-13" style="edgeStyle=orthogonalEdgeStyle;rounded=0;orthogonalLoop=1;jettySize=auto;html=1;exitX=0;exitY=0.21666666666666667;exitDx=0;exitDy=3;exitPerimeter=0;startArrow=classic;startFill=1;endArrow=none;endFill=0;" edge="1" parent="1" source="MUuqvJUcsDrPny1VjROn-5">
          <mxGeometry relative="1" as="geometry">
            <mxPoint x="239.99999999999994" y="571.0769230769231" as="targetPoint" />
          </mxGeometry>
        </mxCell>
        <mxCell id="MUuqvJUcsDrPny1VjROn-17" style="edgeStyle=orthogonalEdgeStyle;rounded=0;orthogonalLoop=1;jettySize=auto;html=1;exitX=0.375;exitY=1;exitDx=10;exitDy=0;exitPerimeter=0;endArrow=none;endFill=0;startArrow=classic;startFill=1;" edge="1" parent="1" source="MUuqvJUcsDrPny1VjROn-5">
          <mxGeometry relative="1" as="geometry">
            <mxPoint x="360.0769230769231" y="460" as="targetPoint" />
          </mxGeometry>
        </mxCell>
        <mxCell id="MUuqvJUcsDrPny1VjROn-18" value="&lt;font color=&quot;#0000ff&quot;&gt;sel[0]&lt;/font&gt;" style="edgeLabel;html=1;align=center;verticalAlign=middle;resizable=0;points=[];" vertex="1" connectable="0" parent="MUuqvJUcsDrPny1VjROn-17">
          <mxGeometry x="0.7578" relative="1" as="geometry">
            <mxPoint y="-2" as="offset" />
          </mxGeometry>
        </mxCell>
        <mxCell id="MUuqvJUcsDrPny1VjROn-24" value="&lt;font color=&quot;#ff0000&quot;&gt;hrdata[31:0]&lt;/font&gt;" style="edgeLabel;html=1;align=center;verticalAlign=middle;resizable=0;points=[];" vertex="1" connectable="0" parent="MUuqvJUcsDrPny1VjROn-17">
          <mxGeometry x="0.7578" relative="1" as="geometry">
            <mxPoint x="349" y="121" as="offset" />
          </mxGeometry>
        </mxCell>
        <mxCell id="MUuqvJUcsDrPny1VjROn-25" value="&lt;font color=&quot;#0000ff&quot;&gt;hrdata_4[31:0]&lt;/font&gt;" style="edgeLabel;html=1;align=center;verticalAlign=middle;resizable=0;points=[];" vertex="1" connectable="0" parent="MUuqvJUcsDrPny1VjROn-17">
          <mxGeometry x="0.7578" relative="1" as="geometry">
            <mxPoint x="-110" y="48" as="offset" />
          </mxGeometry>
        </mxCell>
        <mxCell id="MUuqvJUcsDrPny1VjROn-26" value="&lt;font color=&quot;#0000ff&quot;&gt;hrdata_3[31:0]&lt;/font&gt;" style="edgeLabel;html=1;align=center;verticalAlign=middle;resizable=0;points=[];" vertex="1" connectable="0" parent="MUuqvJUcsDrPny1VjROn-17">
          <mxGeometry x="0.7578" relative="1" as="geometry">
            <mxPoint x="-110" y="98" as="offset" />
          </mxGeometry>
        </mxCell>
        <mxCell id="MUuqvJUcsDrPny1VjROn-27" value="&lt;font color=&quot;#0000ff&quot;&gt;hrdata_2[31:0]&lt;/font&gt;" style="edgeLabel;html=1;align=center;verticalAlign=middle;resizable=0;points=[];" vertex="1" connectable="0" parent="MUuqvJUcsDrPny1VjROn-17">
          <mxGeometry x="0.7578" relative="1" as="geometry">
            <mxPoint x="-110" y="208" as="offset" />
          </mxGeometry>
        </mxCell>
        <mxCell id="MUuqvJUcsDrPny1VjROn-28" value="&lt;font color=&quot;#0000ff&quot;&gt;hrdata_1[31:0]&lt;/font&gt;" style="edgeLabel;html=1;align=center;verticalAlign=middle;resizable=0;points=[];" vertex="1" connectable="0" parent="MUuqvJUcsDrPny1VjROn-17">
          <mxGeometry x="0.7578" relative="1" as="geometry">
            <mxPoint x="-110" y="259" as="offset" />
          </mxGeometry>
        </mxCell>
        <mxCell id="MUuqvJUcsDrPny1VjROn-5" value="Mux" style="shadow=0;dashed=0;align=center;html=1;strokeWidth=1;shape=mxgraph.electrical.abstract.mux2;whiteSpace=wrap;flipV=1;" vertex="1" parent="1">
          <mxGeometry x="320" y="480" width="80" height="120" as="geometry" />
        </mxCell>
        <mxCell id="MUuqvJUcsDrPny1VjROn-14" style="edgeStyle=orthogonalEdgeStyle;rounded=0;orthogonalLoop=1;jettySize=auto;html=1;exitX=0;exitY=0.65;exitDx=0;exitDy=3;exitPerimeter=0;endArrow=none;endFill=0;startArrow=classic;startFill=1;" edge="1" parent="1" source="MUuqvJUcsDrPny1VjROn-6">
          <mxGeometry relative="1" as="geometry">
            <mxPoint x="239.99999999999994" y="678.9615384615385" as="targetPoint" />
          </mxGeometry>
        </mxCell>
        <mxCell id="MUuqvJUcsDrPny1VjROn-15" style="edgeStyle=orthogonalEdgeStyle;rounded=0;orthogonalLoop=1;jettySize=auto;html=1;exitX=0;exitY=0.21666666666666667;exitDx=0;exitDy=3;exitPerimeter=0;endArrow=none;endFill=0;startArrow=classic;startFill=1;" edge="1" parent="1" source="MUuqvJUcsDrPny1VjROn-6">
          <mxGeometry relative="1" as="geometry">
            <mxPoint x="239.99999999999994" y="731.0769230769231" as="targetPoint" />
          </mxGeometry>
        </mxCell>
        <mxCell id="MUuqvJUcsDrPny1VjROn-16" style="edgeStyle=orthogonalEdgeStyle;rounded=0;orthogonalLoop=1;jettySize=auto;html=1;exitX=0.375;exitY=1;exitDx=10;exitDy=0;exitPerimeter=0;startArrow=classic;startFill=1;endArrow=none;endFill=0;" edge="1" parent="1" source="MUuqvJUcsDrPny1VjROn-6">
          <mxGeometry relative="1" as="geometry">
            <mxPoint x="360.0769230769231" y="620.0000000000001" as="targetPoint" />
          </mxGeometry>
        </mxCell>
        <mxCell id="MUuqvJUcsDrPny1VjROn-22" value="&lt;font color=&quot;#0000ff&quot;&gt;sel[0]&lt;/font&gt;" style="edgeLabel;html=1;align=center;verticalAlign=middle;resizable=0;points=[];" vertex="1" connectable="0" parent="MUuqvJUcsDrPny1VjROn-16">
          <mxGeometry x="0.7614" y="-1" relative="1" as="geometry">
            <mxPoint y="-3" as="offset" />
          </mxGeometry>
        </mxCell>
        <mxCell id="MUuqvJUcsDrPny1VjROn-6" value="Mux" style="shadow=0;dashed=0;align=center;html=1;strokeWidth=1;shape=mxgraph.electrical.abstract.mux2;whiteSpace=wrap;flipV=1;" vertex="1" parent="1">
          <mxGeometry x="320" y="640" width="80" height="120" as="geometry" />
        </mxCell>
        <mxCell id="MUuqvJUcsDrPny1VjROn-20" style="edgeStyle=orthogonalEdgeStyle;rounded=0;orthogonalLoop=1;jettySize=auto;html=1;exitX=0.375;exitY=1;exitDx=10;exitDy=0;exitPerimeter=0;endArrow=none;endFill=0;startArrow=classic;startFill=1;" edge="1" parent="1" source="MUuqvJUcsDrPny1VjROn-7">
          <mxGeometry relative="1" as="geometry">
            <mxPoint x="559.8888888888889" y="500" as="targetPoint" />
          </mxGeometry>
        </mxCell>
        <mxCell id="MUuqvJUcsDrPny1VjROn-21" value="&lt;font color=&quot;#0000ff&quot;&gt;sel[1]&lt;/font&gt;" style="edgeLabel;html=1;align=center;verticalAlign=middle;resizable=0;points=[];" vertex="1" connectable="0" parent="MUuqvJUcsDrPny1VjROn-20">
          <mxGeometry x="0.733" y="-1" relative="1" as="geometry">
            <mxPoint y="-2" as="offset" />
          </mxGeometry>
        </mxCell>
        <mxCell id="MUuqvJUcsDrPny1VjROn-23" style="edgeStyle=orthogonalEdgeStyle;rounded=0;orthogonalLoop=1;jettySize=auto;html=1;exitX=1;exitY=0.5;exitDx=0;exitDy=-5;exitPerimeter=0;" edge="1" parent="1" source="MUuqvJUcsDrPny1VjROn-7">
          <mxGeometry relative="1" as="geometry">
            <mxPoint x="680" y="585.2857142857142" as="targetPoint" />
          </mxGeometry>
        </mxCell>
        <mxCell id="MUuqvJUcsDrPny1VjROn-7" value="Mux" style="shadow=0;dashed=0;align=center;html=1;strokeWidth=1;shape=mxgraph.electrical.abstract.mux2;whiteSpace=wrap;flipV=1;" vertex="1" parent="1">
          <mxGeometry x="520" y="520" width="80" height="120" as="geometry" />
        </mxCell>
        <mxCell id="MUuqvJUcsDrPny1VjROn-8" style="edgeStyle=orthogonalEdgeStyle;rounded=0;orthogonalLoop=1;jettySize=auto;html=1;exitX=1;exitY=0.5;exitDx=0;exitDy=-5;exitPerimeter=0;entryX=0;entryY=0.65;entryDx=0;entryDy=3;entryPerimeter=0;" edge="1" parent="1" source="MUuqvJUcsDrPny1VjROn-5" target="MUuqvJUcsDrPny1VjROn-7">
          <mxGeometry relative="1" as="geometry" />
        </mxCell>
        <mxCell id="MUuqvJUcsDrPny1VjROn-10" style="edgeStyle=orthogonalEdgeStyle;rounded=0;orthogonalLoop=1;jettySize=auto;html=1;exitX=1;exitY=0.5;exitDx=0;exitDy=-5;exitPerimeter=0;entryX=0;entryY=0.21666666666666667;entryDx=0;entryDy=3;entryPerimeter=0;" edge="1" parent="1" source="MUuqvJUcsDrPny1VjROn-6" target="MUuqvJUcsDrPny1VjROn-7">
          <mxGeometry relative="1" as="geometry" />
        </mxCell>
        <mxCell id="MUuqvJUcsDrPny1VjROn-29" style="edgeStyle=orthogonalEdgeStyle;rounded=0;orthogonalLoop=1;jettySize=auto;html=1;exitX=0;exitY=0.65;exitDx=0;exitDy=3;exitPerimeter=0;endArrow=none;endFill=0;startArrow=classic;startFill=1;" edge="1" source="MUuqvJUcsDrPny1VjROn-38" parent="1">
          <mxGeometry relative="1" as="geometry">
            <mxPoint x="240" y="899.1428571428571" as="targetPoint" />
          </mxGeometry>
        </mxCell>
        <mxCell id="MUuqvJUcsDrPny1VjROn-30" style="edgeStyle=orthogonalEdgeStyle;rounded=0;orthogonalLoop=1;jettySize=auto;html=1;exitX=0;exitY=0.21666666666666667;exitDx=0;exitDy=3;exitPerimeter=0;startArrow=classic;startFill=1;endArrow=none;endFill=0;" edge="1" source="MUuqvJUcsDrPny1VjROn-38" parent="1">
          <mxGeometry relative="1" as="geometry">
            <mxPoint x="239.99999999999994" y="951.0769230769231" as="targetPoint" />
          </mxGeometry>
        </mxCell>
        <mxCell id="MUuqvJUcsDrPny1VjROn-31" style="edgeStyle=orthogonalEdgeStyle;rounded=0;orthogonalLoop=1;jettySize=auto;html=1;exitX=0.375;exitY=1;exitDx=10;exitDy=0;exitPerimeter=0;endArrow=none;endFill=0;startArrow=classic;startFill=1;" edge="1" source="MUuqvJUcsDrPny1VjROn-38" parent="1">
          <mxGeometry relative="1" as="geometry">
            <mxPoint x="360.0769230769231" y="840" as="targetPoint" />
          </mxGeometry>
        </mxCell>
        <mxCell id="MUuqvJUcsDrPny1VjROn-32" value="&lt;font color=&quot;#0000ff&quot;&gt;sel[0]&lt;/font&gt;" style="edgeLabel;html=1;align=center;verticalAlign=middle;resizable=0;points=[];" vertex="1" connectable="0" parent="MUuqvJUcsDrPny1VjROn-31">
          <mxGeometry x="0.7578" relative="1" as="geometry">
            <mxPoint y="-2" as="offset" />
          </mxGeometry>
        </mxCell>
        <mxCell id="MUuqvJUcsDrPny1VjROn-33" value="&lt;font color=&quot;#ff0000&quot;&gt;hreadyout&lt;/font&gt;" style="edgeLabel;html=1;align=center;verticalAlign=middle;resizable=0;points=[];" vertex="1" connectable="0" parent="MUuqvJUcsDrPny1VjROn-31">
          <mxGeometry x="0.7578" relative="1" as="geometry">
            <mxPoint x="349" y="121" as="offset" />
          </mxGeometry>
        </mxCell>
        <mxCell id="MUuqvJUcsDrPny1VjROn-34" value="hreadyout_4" style="edgeLabel;html=1;align=center;verticalAlign=middle;resizable=0;points=[];fontColor=#0000FF;" vertex="1" connectable="0" parent="MUuqvJUcsDrPny1VjROn-31">
          <mxGeometry x="0.7578" relative="1" as="geometry">
            <mxPoint x="-110" y="48" as="offset" />
          </mxGeometry>
        </mxCell>
        <mxCell id="MUuqvJUcsDrPny1VjROn-35" value="hreadyout_3" style="edgeLabel;html=1;align=center;verticalAlign=middle;resizable=0;points=[];fontColor=#0000FF;" vertex="1" connectable="0" parent="MUuqvJUcsDrPny1VjROn-31">
          <mxGeometry x="0.7578" relative="1" as="geometry">
            <mxPoint x="-110" y="98" as="offset" />
          </mxGeometry>
        </mxCell>
        <mxCell id="MUuqvJUcsDrPny1VjROn-36" value="hreadyout_2" style="edgeLabel;html=1;align=center;verticalAlign=middle;resizable=0;points=[];fontColor=#0000FF;" vertex="1" connectable="0" parent="MUuqvJUcsDrPny1VjROn-31">
          <mxGeometry x="0.7578" relative="1" as="geometry">
            <mxPoint x="-110" y="208" as="offset" />
          </mxGeometry>
        </mxCell>
        <mxCell id="MUuqvJUcsDrPny1VjROn-37" value="hreadyout_1" style="edgeLabel;html=1;align=center;verticalAlign=middle;resizable=0;points=[];fontColor=#0000FF;" vertex="1" connectable="0" parent="MUuqvJUcsDrPny1VjROn-31">
          <mxGeometry x="0.7578" relative="1" as="geometry">
            <mxPoint x="-110" y="259" as="offset" />
          </mxGeometry>
        </mxCell>
        <mxCell id="MUuqvJUcsDrPny1VjROn-38" value="Mux" style="shadow=0;dashed=0;align=center;html=1;strokeWidth=1;shape=mxgraph.electrical.abstract.mux2;whiteSpace=wrap;flipV=1;" vertex="1" parent="1">
          <mxGeometry x="320" y="860" width="80" height="120" as="geometry" />
        </mxCell>
        <mxCell id="MUuqvJUcsDrPny1VjROn-39" style="edgeStyle=orthogonalEdgeStyle;rounded=0;orthogonalLoop=1;jettySize=auto;html=1;exitX=0;exitY=0.65;exitDx=0;exitDy=3;exitPerimeter=0;endArrow=none;endFill=0;startArrow=classic;startFill=1;" edge="1" source="MUuqvJUcsDrPny1VjROn-43" parent="1">
          <mxGeometry relative="1" as="geometry">
            <mxPoint x="239.99999999999994" y="1058.9615384615386" as="targetPoint" />
          </mxGeometry>
        </mxCell>
        <mxCell id="MUuqvJUcsDrPny1VjROn-40" style="edgeStyle=orthogonalEdgeStyle;rounded=0;orthogonalLoop=1;jettySize=auto;html=1;exitX=0;exitY=0.21666666666666667;exitDx=0;exitDy=3;exitPerimeter=0;endArrow=none;endFill=0;startArrow=classic;startFill=1;" edge="1" source="MUuqvJUcsDrPny1VjROn-43" parent="1">
          <mxGeometry relative="1" as="geometry">
            <mxPoint x="239.99999999999994" y="1111.076923076923" as="targetPoint" />
          </mxGeometry>
        </mxCell>
        <mxCell id="MUuqvJUcsDrPny1VjROn-41" style="edgeStyle=orthogonalEdgeStyle;rounded=0;orthogonalLoop=1;jettySize=auto;html=1;exitX=0.375;exitY=1;exitDx=10;exitDy=0;exitPerimeter=0;startArrow=classic;startFill=1;endArrow=none;endFill=0;" edge="1" source="MUuqvJUcsDrPny1VjROn-43" parent="1">
          <mxGeometry relative="1" as="geometry">
            <mxPoint x="360.0769230769231" y="1000.0000000000001" as="targetPoint" />
          </mxGeometry>
        </mxCell>
        <mxCell id="MUuqvJUcsDrPny1VjROn-42" value="&lt;font color=&quot;#0000ff&quot;&gt;sel[0]&lt;/font&gt;" style="edgeLabel;html=1;align=center;verticalAlign=middle;resizable=0;points=[];" vertex="1" connectable="0" parent="MUuqvJUcsDrPny1VjROn-41">
          <mxGeometry x="0.7614" y="-1" relative="1" as="geometry">
            <mxPoint y="-3" as="offset" />
          </mxGeometry>
        </mxCell>
        <mxCell id="MUuqvJUcsDrPny1VjROn-43" value="Mux" style="shadow=0;dashed=0;align=center;html=1;strokeWidth=1;shape=mxgraph.electrical.abstract.mux2;whiteSpace=wrap;flipV=1;" vertex="1" parent="1">
          <mxGeometry x="320" y="1020" width="80" height="120" as="geometry" />
        </mxCell>
        <mxCell id="MUuqvJUcsDrPny1VjROn-44" style="edgeStyle=orthogonalEdgeStyle;rounded=0;orthogonalLoop=1;jettySize=auto;html=1;exitX=0.375;exitY=1;exitDx=10;exitDy=0;exitPerimeter=0;endArrow=none;endFill=0;startArrow=classic;startFill=1;" edge="1" source="MUuqvJUcsDrPny1VjROn-47" parent="1">
          <mxGeometry relative="1" as="geometry">
            <mxPoint x="559.8888888888889" y="880" as="targetPoint" />
          </mxGeometry>
        </mxCell>
        <mxCell id="MUuqvJUcsDrPny1VjROn-45" value="&lt;font color=&quot;#0000ff&quot;&gt;sel[1]&lt;/font&gt;" style="edgeLabel;html=1;align=center;verticalAlign=middle;resizable=0;points=[];" vertex="1" connectable="0" parent="MUuqvJUcsDrPny1VjROn-44">
          <mxGeometry x="0.733" y="-1" relative="1" as="geometry">
            <mxPoint y="-2" as="offset" />
          </mxGeometry>
        </mxCell>
        <mxCell id="MUuqvJUcsDrPny1VjROn-46" style="edgeStyle=orthogonalEdgeStyle;rounded=0;orthogonalLoop=1;jettySize=auto;html=1;exitX=1;exitY=0.5;exitDx=0;exitDy=-5;exitPerimeter=0;" edge="1" source="MUuqvJUcsDrPny1VjROn-47" parent="1">
          <mxGeometry relative="1" as="geometry">
            <mxPoint x="680" y="965.2857142857142" as="targetPoint" />
          </mxGeometry>
        </mxCell>
        <mxCell id="MUuqvJUcsDrPny1VjROn-47" value="Mux" style="shadow=0;dashed=0;align=center;html=1;strokeWidth=1;shape=mxgraph.electrical.abstract.mux2;whiteSpace=wrap;flipV=1;" vertex="1" parent="1">
          <mxGeometry x="520" y="900" width="80" height="120" as="geometry" />
        </mxCell>
        <mxCell id="MUuqvJUcsDrPny1VjROn-48" style="edgeStyle=orthogonalEdgeStyle;rounded=0;orthogonalLoop=1;jettySize=auto;html=1;exitX=1;exitY=0.5;exitDx=0;exitDy=-5;exitPerimeter=0;entryX=0;entryY=0.65;entryDx=0;entryDy=3;entryPerimeter=0;" edge="1" source="MUuqvJUcsDrPny1VjROn-38" target="MUuqvJUcsDrPny1VjROn-47" parent="1">
          <mxGeometry relative="1" as="geometry" />
        </mxCell>
        <mxCell id="MUuqvJUcsDrPny1VjROn-49" style="edgeStyle=orthogonalEdgeStyle;rounded=0;orthogonalLoop=1;jettySize=auto;html=1;exitX=1;exitY=0.5;exitDx=0;exitDy=-5;exitPerimeter=0;entryX=0;entryY=0.21666666666666667;entryDx=0;entryDy=3;entryPerimeter=0;" edge="1" source="MUuqvJUcsDrPny1VjROn-43" target="MUuqvJUcsDrPny1VjROn-47" parent="1">
          <mxGeometry relative="1" as="geometry" />
        </mxCell>
        <mxCell id="MUuqvJUcsDrPny1VjROn-50" style="edgeStyle=orthogonalEdgeStyle;rounded=0;orthogonalLoop=1;jettySize=auto;html=1;exitX=0;exitY=0.65;exitDx=0;exitDy=3;exitPerimeter=0;endArrow=none;endFill=0;startArrow=classic;startFill=1;" edge="1" source="MUuqvJUcsDrPny1VjROn-59" parent="1">
          <mxGeometry relative="1" as="geometry">
            <mxPoint x="240" y="1259.142857142857" as="targetPoint" />
          </mxGeometry>
        </mxCell>
        <mxCell id="MUuqvJUcsDrPny1VjROn-51" style="edgeStyle=orthogonalEdgeStyle;rounded=0;orthogonalLoop=1;jettySize=auto;html=1;exitX=0;exitY=0.21666666666666667;exitDx=0;exitDy=3;exitPerimeter=0;startArrow=classic;startFill=1;endArrow=none;endFill=0;" edge="1" source="MUuqvJUcsDrPny1VjROn-59" parent="1">
          <mxGeometry relative="1" as="geometry">
            <mxPoint x="239.99999999999994" y="1311.076923076923" as="targetPoint" />
          </mxGeometry>
        </mxCell>
        <mxCell id="MUuqvJUcsDrPny1VjROn-52" style="edgeStyle=orthogonalEdgeStyle;rounded=0;orthogonalLoop=1;jettySize=auto;html=1;exitX=0.375;exitY=1;exitDx=10;exitDy=0;exitPerimeter=0;endArrow=none;endFill=0;startArrow=classic;startFill=1;" edge="1" source="MUuqvJUcsDrPny1VjROn-59" parent="1">
          <mxGeometry relative="1" as="geometry">
            <mxPoint x="360.0769230769231" y="1200" as="targetPoint" />
          </mxGeometry>
        </mxCell>
        <mxCell id="MUuqvJUcsDrPny1VjROn-53" value="&lt;font color=&quot;#0000ff&quot;&gt;sel[0]&lt;/font&gt;" style="edgeLabel;html=1;align=center;verticalAlign=middle;resizable=0;points=[];" vertex="1" connectable="0" parent="MUuqvJUcsDrPny1VjROn-52">
          <mxGeometry x="0.7578" relative="1" as="geometry">
            <mxPoint y="-2" as="offset" />
          </mxGeometry>
        </mxCell>
        <mxCell id="MUuqvJUcsDrPny1VjROn-54" value="&lt;font color=&quot;#ff0000&quot;&gt;hresp&lt;/font&gt;" style="edgeLabel;html=1;align=center;verticalAlign=middle;resizable=0;points=[];" vertex="1" connectable="0" parent="MUuqvJUcsDrPny1VjROn-52">
          <mxGeometry x="0.7578" relative="1" as="geometry">
            <mxPoint x="349" y="121" as="offset" />
          </mxGeometry>
        </mxCell>
        <mxCell id="MUuqvJUcsDrPny1VjROn-55" value="hresp_4" style="edgeLabel;html=1;align=center;verticalAlign=middle;resizable=0;points=[];fontColor=#0000FF;" vertex="1" connectable="0" parent="MUuqvJUcsDrPny1VjROn-52">
          <mxGeometry x="0.7578" relative="1" as="geometry">
            <mxPoint x="-110" y="48" as="offset" />
          </mxGeometry>
        </mxCell>
        <mxCell id="MUuqvJUcsDrPny1VjROn-56" value="hresp_3" style="edgeLabel;html=1;align=center;verticalAlign=middle;resizable=0;points=[];fontColor=#0000FF;" vertex="1" connectable="0" parent="MUuqvJUcsDrPny1VjROn-52">
          <mxGeometry x="0.7578" relative="1" as="geometry">
            <mxPoint x="-110" y="98" as="offset" />
          </mxGeometry>
        </mxCell>
        <mxCell id="MUuqvJUcsDrPny1VjROn-57" value="hresp_2" style="edgeLabel;html=1;align=center;verticalAlign=middle;resizable=0;points=[];fontColor=#0000FF;" vertex="1" connectable="0" parent="MUuqvJUcsDrPny1VjROn-52">
          <mxGeometry x="0.7578" relative="1" as="geometry">
            <mxPoint x="-110" y="208" as="offset" />
          </mxGeometry>
        </mxCell>
        <mxCell id="MUuqvJUcsDrPny1VjROn-58" value="hresp_1" style="edgeLabel;html=1;align=center;verticalAlign=middle;resizable=0;points=[];fontColor=#0000FF;" vertex="1" connectable="0" parent="MUuqvJUcsDrPny1VjROn-52">
          <mxGeometry x="0.7578" relative="1" as="geometry">
            <mxPoint x="-110" y="259" as="offset" />
          </mxGeometry>
        </mxCell>
        <mxCell id="MUuqvJUcsDrPny1VjROn-59" value="Mux" style="shadow=0;dashed=0;align=center;html=1;strokeWidth=1;shape=mxgraph.electrical.abstract.mux2;whiteSpace=wrap;flipV=1;" vertex="1" parent="1">
          <mxGeometry x="320" y="1220" width="80" height="120" as="geometry" />
        </mxCell>
        <mxCell id="MUuqvJUcsDrPny1VjROn-60" style="edgeStyle=orthogonalEdgeStyle;rounded=0;orthogonalLoop=1;jettySize=auto;html=1;exitX=0;exitY=0.65;exitDx=0;exitDy=3;exitPerimeter=0;endArrow=none;endFill=0;startArrow=classic;startFill=1;" edge="1" source="MUuqvJUcsDrPny1VjROn-64" parent="1">
          <mxGeometry relative="1" as="geometry">
            <mxPoint x="239.99999999999994" y="1418.9615384615386" as="targetPoint" />
          </mxGeometry>
        </mxCell>
        <mxCell id="MUuqvJUcsDrPny1VjROn-61" style="edgeStyle=orthogonalEdgeStyle;rounded=0;orthogonalLoop=1;jettySize=auto;html=1;exitX=0;exitY=0.21666666666666667;exitDx=0;exitDy=3;exitPerimeter=0;endArrow=none;endFill=0;startArrow=classic;startFill=1;" edge="1" source="MUuqvJUcsDrPny1VjROn-64" parent="1">
          <mxGeometry relative="1" as="geometry">
            <mxPoint x="239.99999999999994" y="1471.076923076923" as="targetPoint" />
          </mxGeometry>
        </mxCell>
        <mxCell id="MUuqvJUcsDrPny1VjROn-62" style="edgeStyle=orthogonalEdgeStyle;rounded=0;orthogonalLoop=1;jettySize=auto;html=1;exitX=0.375;exitY=1;exitDx=10;exitDy=0;exitPerimeter=0;startArrow=classic;startFill=1;endArrow=none;endFill=0;" edge="1" source="MUuqvJUcsDrPny1VjROn-64" parent="1">
          <mxGeometry relative="1" as="geometry">
            <mxPoint x="360.0769230769231" y="1360" as="targetPoint" />
          </mxGeometry>
        </mxCell>
        <mxCell id="MUuqvJUcsDrPny1VjROn-63" value="&lt;font color=&quot;#0000ff&quot;&gt;sel[0]&lt;/font&gt;" style="edgeLabel;html=1;align=center;verticalAlign=middle;resizable=0;points=[];" vertex="1" connectable="0" parent="MUuqvJUcsDrPny1VjROn-62">
          <mxGeometry x="0.7614" y="-1" relative="1" as="geometry">
            <mxPoint y="-3" as="offset" />
          </mxGeometry>
        </mxCell>
        <mxCell id="MUuqvJUcsDrPny1VjROn-64" value="Mux" style="shadow=0;dashed=0;align=center;html=1;strokeWidth=1;shape=mxgraph.electrical.abstract.mux2;whiteSpace=wrap;flipV=1;" vertex="1" parent="1">
          <mxGeometry x="320" y="1380" width="80" height="120" as="geometry" />
        </mxCell>
        <mxCell id="MUuqvJUcsDrPny1VjROn-65" style="edgeStyle=orthogonalEdgeStyle;rounded=0;orthogonalLoop=1;jettySize=auto;html=1;exitX=0.375;exitY=1;exitDx=10;exitDy=0;exitPerimeter=0;endArrow=none;endFill=0;startArrow=classic;startFill=1;" edge="1" source="MUuqvJUcsDrPny1VjROn-68" parent="1">
          <mxGeometry relative="1" as="geometry">
            <mxPoint x="559.8888888888889" y="1240" as="targetPoint" />
          </mxGeometry>
        </mxCell>
        <mxCell id="MUuqvJUcsDrPny1VjROn-66" value="&lt;font color=&quot;#0000ff&quot;&gt;sel[1]&lt;/font&gt;" style="edgeLabel;html=1;align=center;verticalAlign=middle;resizable=0;points=[];" vertex="1" connectable="0" parent="MUuqvJUcsDrPny1VjROn-65">
          <mxGeometry x="0.733" y="-1" relative="1" as="geometry">
            <mxPoint y="-2" as="offset" />
          </mxGeometry>
        </mxCell>
        <mxCell id="MUuqvJUcsDrPny1VjROn-67" style="edgeStyle=orthogonalEdgeStyle;rounded=0;orthogonalLoop=1;jettySize=auto;html=1;exitX=1;exitY=0.5;exitDx=0;exitDy=-5;exitPerimeter=0;" edge="1" source="MUuqvJUcsDrPny1VjROn-68" parent="1">
          <mxGeometry relative="1" as="geometry">
            <mxPoint x="680" y="1325.2857142857142" as="targetPoint" />
          </mxGeometry>
        </mxCell>
        <mxCell id="MUuqvJUcsDrPny1VjROn-68" value="Mux" style="shadow=0;dashed=0;align=center;html=1;strokeWidth=1;shape=mxgraph.electrical.abstract.mux2;whiteSpace=wrap;flipV=1;" vertex="1" parent="1">
          <mxGeometry x="520" y="1260" width="80" height="120" as="geometry" />
        </mxCell>
        <mxCell id="MUuqvJUcsDrPny1VjROn-69" style="edgeStyle=orthogonalEdgeStyle;rounded=0;orthogonalLoop=1;jettySize=auto;html=1;exitX=1;exitY=0.5;exitDx=0;exitDy=-5;exitPerimeter=0;entryX=0;entryY=0.65;entryDx=0;entryDy=3;entryPerimeter=0;" edge="1" source="MUuqvJUcsDrPny1VjROn-59" target="MUuqvJUcsDrPny1VjROn-68" parent="1">
          <mxGeometry relative="1" as="geometry" />
        </mxCell>
        <mxCell id="MUuqvJUcsDrPny1VjROn-70" style="edgeStyle=orthogonalEdgeStyle;rounded=0;orthogonalLoop=1;jettySize=auto;html=1;exitX=1;exitY=0.5;exitDx=0;exitDy=-5;exitPerimeter=0;entryX=0;entryY=0.21666666666666667;entryDx=0;entryDy=3;entryPerimeter=0;" edge="1" source="MUuqvJUcsDrPny1VjROn-64" target="MUuqvJUcsDrPny1VjROn-68" parent="1">
          <mxGeometry relative="1" as="geometry" />
        </mxCell>
      </root>
    </mxGraphModel>
  </diagram>
</mxfile>
